<svg width="95" height="61" viewBox="0 0 95 61" fill="none" xmlns="http://www.w3.org/2000/svg">
<path d="M64.6669 40.8392C62.2179 42.7743 59.1878 43.8269 56.0665 43.8269C52.9452 43.8269 49.9151 42.7743 47.466 40.8392C41.6859 44.8349 35.9367 44.8271 30.1332 40.8392C28.5604 42.0981 26.728 42.9926 24.7679 43.4581C22.8078 43.9236 20.7688 43.9487 18.7979 43.5314C15.6144 42.9223 12.7621 41.1735 10.7754 38.6124C8.68963 35.9606 7.65174 32.6344 7.85931 29.267C8.06689 25.8995 9.50545 22.726 11.9012 20.3504C14.2969 17.9748 17.4824 16.5631 20.8515 16.3839C24.2205 16.2048 27.5379 17.2707 30.172 19.3788C32.626 17.438 35.6632 16.3821 38.7919 16.3821C41.9206 16.3821 44.9577 17.438 47.4117 19.3788C49.864 17.4341 52.9018 16.3757 56.0316 16.3757C59.1613 16.3757 62.1991 17.4341 64.6514 19.3788C66.6713 17.7518 69.1101 16.7294 71.6864 16.4296C74.2626 16.1298 76.8711 16.5648 79.2106 17.6844C81.5501 18.804 83.5252 20.5626 84.9078 22.757C86.2903 24.9514 87.024 27.4921 87.024 30.0857C87.024 32.6793 86.2903 35.22 84.9078 37.4144C83.5252 39.6088 81.5501 41.3674 79.2106 42.487C76.8711 43.6066 74.2626 44.0417 71.6864 43.7418C69.1101 43.442 66.6713 42.4196 64.6514 40.7926L64.6669 40.8392ZM28.0927 21.4891C26.4826 20.2621 24.5617 19.5094 22.5467 19.316C20.5316 19.1226 18.5026 19.4961 16.6885 20.3944C14.8744 21.2927 13.3475 22.6801 12.2799 24.4001C11.2124 26.12 10.6467 28.1041 10.6467 30.1284C10.6467 32.1527 11.2124 34.1368 12.2799 35.8567C13.3475 37.5766 14.8744 38.964 16.6885 39.8624C18.5026 40.7607 20.5316 41.1342 22.5467 40.9408C24.5617 40.7473 26.4826 39.9946 28.0927 38.7676C26.1215 36.3205 25.0454 33.2734 25.0425 30.1311C25.0397 26.9888 26.1104 23.9398 28.0772 21.4891H28.0927ZM66.7462 21.4891C68.7147 23.9368 69.7877 26.9835 69.7877 30.1245C69.7877 33.2655 68.7147 36.3122 66.7462 38.7599C68.356 39.9882 70.2771 40.7421 72.2926 40.9364C74.3081 41.1308 76.3378 40.7579 78.1527 39.8599C79.9675 38.9619 81.4952 37.5744 82.5633 35.8542C83.6314 34.1339 84.1974 32.1494 84.1974 30.1245C84.1974 28.0996 83.6314 26.1151 82.5633 24.3948C81.4952 22.6746 79.9675 21.2871 78.1527 20.3891C76.3378 19.4911 74.3081 19.1182 72.2926 19.3126C70.2771 19.507 68.356 20.2608 66.7462 21.4891ZM32.2358 38.7599C34.1116 40.1839 36.4019 40.9548 38.757 40.9548C41.112 40.9548 43.4024 40.1839 45.2781 38.7599C41.2333 32.9719 41.2333 27.1917 45.2781 21.4193C43.4076 19.9935 41.1206 19.2213 38.7686 19.2213C36.4166 19.2213 34.1296 19.9935 32.2591 21.4193C34.2392 23.8764 35.317 26.9381 35.3127 30.0937C35.3085 33.2493 34.2225 36.3081 32.2358 38.7599ZM49.491 21.4891C51.4575 23.9362 52.5294 26.9814 52.5294 30.1206C52.5294 33.2599 51.4575 36.3051 49.491 38.7521C51.3709 40.1873 53.6704 40.9648 56.0354 40.9648C58.4005 40.9648 60.7 40.1873 62.5799 38.7521C60.604 36.3093 59.526 33.2625 59.526 30.1206C59.526 26.9787 60.604 23.932 62.5799 21.4891C60.6988 20.0549 58.3982 19.2794 56.0328 19.2822C53.6674 19.285 51.3686 20.066 49.491 21.5047V21.4891ZM47.3962 23.5452C45.9359 25.4201 45.143 27.7286 45.143 30.1051C45.143 32.4816 45.9359 34.7901 47.3962 36.665C48.8514 34.7909 49.6413 32.4856 49.6413 30.1129C49.6413 27.7401 48.8514 25.4349 47.3962 23.5607V23.5452ZM30.1565 36.6806C31.6161 34.8039 32.4086 32.4942 32.4086 30.1167C32.4086 27.7393 31.6161 25.4296 30.1565 23.5529C28.6931 25.4309 27.8984 27.7437 27.8984 30.1245C27.8984 32.5054 28.6931 34.8181 30.1565 36.6961V36.6806ZM64.6669 23.5685C63.2073 25.4451 62.4149 27.7548 62.4149 30.1323C62.4149 32.5097 63.2073 34.8194 64.6669 36.6961C66.1291 34.8205 66.9232 32.5104 66.9232 30.1323C66.9232 27.7541 66.1291 25.444 64.6669 23.5685Z" fill="#FDFDFC"/>
</svg>
