<svg width="994" height="560" viewBox="0 0 994 560" fill="none" xmlns="http://www.w3.org/2000/svg">
<g clip-path="url(#clip0)">
<path d="M280.693 559.926C435.242 559.926 560.53 434.639 560.53 280.089C560.53 125.539 435.242 0.251953 280.693 0.251953C126.143 0.251953 0.855713 125.539 0.855713 280.089C0.855713 434.639 126.143 559.926 280.693 559.926Z" fill="white"/>
<path d="M713.176 559.926C867.726 559.926 993.013 434.639 993.013 280.089C993.013 125.539 867.726 0.251953 713.176 0.251953C558.627 0.251953 433.339 125.539 433.339 280.089C433.339 434.639 558.627 559.926 713.176 559.926Z" fill="white"/>
<path opacity="0.33" d="M496.934 454.195C415.351 358.04 415.351 202.146 496.934 106.037C578.518 202.146 578.518 358.04 496.934 454.195Z" fill="#F5F5EF"/>
<mask id="mask0" mask-type="alpha" maskUnits="userSpaceOnUse" x="0" y="0" width="993" height="560">
<path fill-rule="evenodd" clip-rule="evenodd" d="M496.579 457.512C445.256 519.919 367.444 559.719 280.337 559.719C125.787 559.719 0.5 434.431 0.5 279.882C0.5 125.332 125.787 0.0449219 280.337 0.0449219C367.444 0.0449219 445.256 39.8446 496.579 102.251C547.902 39.8446 625.714 0.0449219 712.821 0.0449219C867.37 0.0449219 992.658 125.332 992.658 279.882C992.658 434.431 867.37 559.719 712.821 559.719C625.714 559.719 547.902 519.919 496.579 457.512Z" fill="white"/>
</mask>
<g mask="url(#mask0)">
<path d="M164.088 544.202C152.623 474.58 146.904 425.959 145.313 415.983C145.309 415.971 145.308 415.958 145.311 415.946C145.313 415.933 145.32 415.922 145.328 415.913C145.337 415.904 145.349 415.898 145.361 415.896C145.373 415.893 145.386 415.894 145.398 415.898C167.466 420.26 196.124 426.661 219.512 422.141C228.207 420.456 236.995 418.556 244.847 414.448C252.7 410.339 259.607 403.722 262.199 395.252C267.328 378.462 251.52 354.624 263.378 341.681C266.28 338.517 269.041 335.447 271.876 332.509C273.26 331.088 274.315 329.381 274.966 327.508C275.617 325.635 275.848 323.642 275.644 321.67C275.439 319.698 274.804 317.794 273.782 316.095C272.761 314.395 271.379 312.941 269.733 311.835C266.804 309.878 263.697 307.707 260.065 305.096C259.431 304.635 258.915 304.03 258.559 303.332C258.203 302.633 258.018 301.86 258.018 301.076C258.018 300.292 258.203 299.519 258.559 298.821C258.915 298.122 259.431 297.518 260.065 297.056C265.082 293.388 270.079 289.569 275.04 285.769C276.57 284.572 277.818 283.052 278.695 281.318C279.571 279.584 280.055 277.679 280.113 275.737C280.17 273.794 279.798 271.864 279.025 270.081C278.252 268.298 277.096 266.708 275.639 265.423C271.24 261.473 267.496 257.084 265.185 251.721C264.565 250.286 264.342 248.711 264.538 247.161C264.734 245.61 265.342 244.141 266.298 242.905C270.239 237.879 276.537 234.613 282.115 231.131C291.568 225.235 301.208 214.659 290.538 202.801C289.048 201.178 287.311 199.801 285.391 198.72C261.422 184.775 237.95 163.605 234.964 135.668L234.777 132.224C234.777 131.999 234.777 131.775 234.777 131.55C236.93 71.9983 220.794 20.5327 192.53 -19.7676L-82.5619 66.7853L-96.8345 524.726L164.088 544.202Z" fill="url(#paint0_radial)"/>
<path d="M201.823 427.298C184.041 427.298 165.257 423.554 149.338 420.372C148.027 420.101 146.726 419.848 145.444 419.595C144.572 419.629 143.718 419.342 143.044 418.788C142.37 418.234 141.922 417.453 141.785 416.591C141.687 416.01 141.732 415.414 141.916 414.855C142.099 414.295 142.416 413.788 142.838 413.378C143.261 412.967 143.776 412.665 144.341 412.498C144.906 412.331 145.503 412.303 146.081 412.417L150.76 413.353C171.706 417.536 197.762 422.712 218.848 418.669C227.467 417.003 235.806 415.187 243.181 411.312C251.024 407.213 256.714 401.018 258.773 394.242C260.739 387.821 259.101 379.585 257.51 371.621C255.198 359.997 252.83 347.97 260.739 339.304L262.461 337.432C264.791 334.877 267 332.462 269.302 330.076C270.331 329.025 271.116 327.761 271.601 326.373C272.087 324.986 272.26 323.508 272.11 322.045C271.957 320.604 271.488 319.214 270.738 317.973C269.987 316.733 268.973 315.672 267.768 314.867C264.763 312.855 261.665 310.693 258.006 308.054C256.904 307.273 256.005 306.239 255.386 305.039C254.767 303.838 254.446 302.507 254.45 301.156C254.448 299.808 254.764 298.478 255.372 297.275C255.98 296.072 256.863 295.029 257.95 294.23C262.555 290.861 267.421 287.192 272.84 282.999C273.944 282.145 274.845 281.058 275.481 279.816C276.117 278.573 276.471 277.206 276.518 275.812C276.569 274.372 276.301 272.938 275.735 271.614C275.169 270.289 274.318 269.105 273.243 268.146C267.786 263.261 264.174 258.507 261.89 253.172C261.012 251.148 260.695 248.924 260.974 246.736C261.252 244.547 262.115 242.474 263.472 240.734C267.15 236.054 272.363 232.891 277.398 229.849C278.334 229.278 279.27 228.707 280.206 228.127C286.757 224.037 290.913 219.142 291.54 214.706C291.98 211.561 290.791 208.463 287.88 205.235C286.641 203.89 285.198 202.75 283.603 201.856C243.799 178.692 233.251 153.31 231.417 136.08C231.417 136.024 231.417 135.959 231.417 135.902L231.23 132.458C231.23 132.131 231.23 131.794 231.23 131.457C231.264 130.532 231.655 129.655 232.322 129.013C232.989 128.371 233.879 128.012 234.805 128.013H234.936C235.409 128.029 235.874 128.14 236.303 128.338C236.733 128.536 237.12 128.817 237.44 129.165C237.76 129.513 238.008 129.922 238.17 130.366C238.331 130.811 238.403 131.284 238.38 131.756C238.38 131.869 238.38 131.981 238.38 132.093L238.558 135.453C240.252 151.027 250.079 174.097 287.225 195.707C289.467 196.975 291.495 198.589 293.234 200.49C297.567 205.328 299.392 210.457 298.643 215.745C297.37 224.692 288.928 231.178 284.015 234.238C283.079 234.837 282.087 235.427 281.104 236.017C276.621 238.721 271.989 241.52 269.115 245.189C268.557 245.917 268.202 246.782 268.089 247.693C267.975 248.605 268.107 249.53 268.47 250.374C270.341 254.697 273.374 258.656 278.025 262.83C279.878 264.49 281.342 266.539 282.313 268.829C283.284 271.12 283.737 273.597 283.641 276.083C283.556 278.526 282.935 280.92 281.82 283.096C280.706 285.272 279.126 287.175 277.192 288.671C271.717 292.901 266.804 296.617 262.152 300.023C261.976 300.153 261.833 300.322 261.734 300.517C261.636 300.712 261.584 300.928 261.584 301.147C261.584 301.365 261.636 301.581 261.734 301.776C261.833 301.971 261.976 302.14 262.152 302.27C265.755 304.853 268.788 306.949 271.717 308.943C273.8 310.338 275.55 312.175 276.843 314.322C278.137 316.469 278.943 318.875 279.204 321.368C279.464 323.861 279.174 326.381 278.352 328.75C277.531 331.118 276.199 333.277 274.45 335.073C272.213 337.385 270.042 339.753 267.749 342.27L266.017 344.142C260.533 350.141 262.47 359.894 264.529 370.226C266.289 379.061 268.114 388.196 265.615 396.338C262.957 405.033 256.172 412.604 246.504 417.667C238.249 421.982 229.349 423.929 220.186 425.697C214.13 426.815 207.981 427.351 201.823 427.298V427.298Z" fill="url(#paint1_linear)"/>
<path d="M234.767 135.163H234.627C234.155 135.145 233.69 135.033 233.261 134.835C232.832 134.637 232.446 134.356 232.126 134.008C231.806 133.66 231.558 133.252 231.396 132.808C231.234 132.363 231.162 131.891 231.183 131.419C233.214 75.5078 218.838 23.9205 189.6 -17.7555C189.08 -18.5242 188.879 -19.4656 189.042 -20.3796C189.204 -21.2937 189.717 -22.1083 190.471 -22.6503C190.855 -22.9214 191.289 -23.114 191.748 -23.217C192.207 -23.32 192.682 -23.3314 193.146 -23.2505C193.609 -23.1696 194.052 -22.9981 194.449 -22.7458C194.846 -22.4934 195.189 -22.1652 195.459 -21.7799C225.595 21.1783 240.383 74.2725 238.333 131.765C238.288 132.681 237.892 133.544 237.229 134.176C236.565 134.808 235.684 135.161 234.767 135.163V135.163Z" fill="url(#paint2_linear)"/>
<path d="M164.078 547.777C163.231 547.775 162.412 547.473 161.766 546.925C161.12 546.377 160.689 545.617 160.55 544.782C152.061 493.223 146.736 453.259 143.872 431.789C142.936 424.433 142.187 419.127 141.776 416.581C141.701 416.117 141.719 415.643 141.828 415.186C141.937 414.729 142.134 414.297 142.41 413.917C142.685 413.536 143.033 413.213 143.433 412.967C143.834 412.721 144.278 412.556 144.742 412.482C145.206 412.407 145.68 412.425 146.138 412.534C146.595 412.643 147.026 412.841 147.406 413.116C147.787 413.392 148.11 413.739 148.356 414.139C148.602 414.54 148.767 414.984 148.842 415.448C149.272 418.078 149.946 423.16 150.966 430.844C153.821 452.276 159.146 492.165 167.616 543.612C167.77 544.549 167.546 545.509 166.994 546.281C166.441 547.053 165.605 547.574 164.668 547.73C164.473 547.759 164.276 547.775 164.078 547.777V547.777Z" fill="url(#paint3_linear)"/>
<path d="M691.941 336.149C691.455 336.15 690.976 336.025 690.553 335.786C690.13 335.547 689.776 335.202 689.526 334.785C689.276 334.368 689.138 333.893 689.127 333.407C689.115 332.921 689.23 332.44 689.461 332.012C693.064 325.32 694.14 322.925 692.708 317.038C692.287 315.334 690.013 311.731 688.534 309.719C688.131 309.118 687.976 308.385 688.101 307.672C688.226 306.959 688.621 306.322 689.204 305.894C689.787 305.466 690.513 305.279 691.23 305.372C691.947 305.466 692.601 305.833 693.054 306.396C693.494 306.986 697.322 312.255 698.165 315.709C700.036 323.57 698.296 327.398 694.421 334.633C694.185 335.088 693.829 335.47 693.392 335.737C692.955 336.004 692.453 336.147 691.941 336.149V336.149Z" fill="#696973"/>
<path d="M687.055 284.917C684.466 284.785 681.994 283.797 680.027 282.109C679.751 281.859 679.527 281.555 679.37 281.218C679.212 280.88 679.123 280.514 679.109 280.141C679.094 279.769 679.154 279.397 679.284 279.048C679.415 278.698 679.613 278.379 679.869 278.107C680.124 277.835 680.431 277.617 680.772 277.466C681.112 277.314 681.48 277.232 681.853 277.224C682.225 277.215 682.596 277.282 682.943 277.418C683.29 277.555 683.606 277.759 683.873 278.019C684.756 278.705 685.806 279.142 686.915 279.283C690.387 276.475 691.342 275.483 691.894 272.104C691.901 270.418 691.691 268.739 691.267 267.107C691.133 266.397 691.276 265.664 691.669 265.058C692.061 264.452 692.672 264.02 693.374 263.853C694.077 263.686 694.816 263.795 695.44 264.159C696.063 264.522 696.523 265.112 696.723 265.806C696.91 266.582 697.828 270.607 697.435 273.003C696.545 278.506 694.309 280.537 690.106 283.925C689.238 284.605 688.157 284.956 687.055 284.917V284.917ZM686.587 279.564H686.541H686.587Z" fill="url(#paint4_linear)"/>
<path d="M687.748 293.977C684.258 293.96 680.874 292.773 678.136 290.608C676.897 289.633 675.894 288.39 675.202 286.973C674.509 285.557 674.145 284.002 674.137 282.425C674.129 280.848 674.477 279.29 675.155 277.866C675.833 276.442 676.823 275.189 678.052 274.201C688.749 265.891 702.105 255.315 714.955 245.132C720.093 241.061 725.091 237.102 729.695 233.471C730.064 233.179 730.487 232.964 730.939 232.836C731.391 232.708 731.864 232.67 732.33 232.725C732.797 232.779 733.248 232.925 733.659 233.155C734.069 233.384 734.43 233.692 734.721 234.06C735.013 234.429 735.228 234.851 735.356 235.304C735.484 235.756 735.522 236.229 735.467 236.695C735.413 237.162 735.266 237.613 735.037 238.024C734.808 238.434 734.5 238.795 734.132 239.086C729.527 242.717 724.539 246.676 719.4 250.738C706.504 260.958 693.195 271.525 682.395 279.864C682.034 280.181 681.746 280.573 681.55 281.012C681.355 281.451 681.256 281.928 681.262 282.408C681.267 282.889 681.376 283.363 681.581 283.797C681.786 284.232 682.083 284.617 682.451 284.927C683.335 285.655 684.36 286.193 685.461 286.505C686.563 286.818 687.718 286.898 688.852 286.743C693.532 286.106 699.007 281.754 704.763 274.136C705.335 273.379 706.184 272.88 707.124 272.749C708.064 272.619 709.018 272.866 709.775 273.439C710.532 274.011 711.03 274.86 711.161 275.8C711.292 276.74 711.044 277.693 710.472 278.45C703.434 287.753 696.489 292.929 689.816 293.837C689.131 293.928 688.44 293.975 687.748 293.977V293.977Z" fill="url(#paint5_linear)"/>
<path d="M687.814 342.279C686.363 342.243 684.95 341.806 683.733 341.015C679.652 338.498 676.405 332.592 678.417 326.705C680.935 319.218 693.392 295.624 706.494 271.187C716.078 253.274 735.096 225.328 735.901 224.186C736.435 223.402 737.26 222.862 738.193 222.685C739.126 222.509 740.091 222.71 740.875 223.245C741.659 223.78 742.199 224.605 742.375 225.538C742.552 226.471 742.35 227.435 741.815 228.22C741.619 228.51 722.161 256.99 712.802 274.566C704.66 289.662 687.814 321.081 685.165 329.008C684.971 329.667 684.917 330.36 685.006 331.041C685.094 331.723 685.324 332.379 685.68 332.967C686.132 333.774 686.774 334.458 687.551 334.96C688.301 334.564 689.166 334.445 689.995 334.627C690.823 334.808 691.56 335.277 692.075 335.95C692.59 336.624 692.85 337.458 692.808 338.305C692.767 339.152 692.426 339.956 691.847 340.576C691.323 341.115 690.696 341.544 690.003 341.837C689.31 342.129 688.566 342.28 687.814 342.279Z" fill="url(#paint6_linear)"/>
<path d="M839.515 302.428C838.715 302.428 837.938 302.159 837.309 301.666C836.679 301.172 836.233 300.481 836.043 299.704C834.096 291.796 830.643 284.636 826.805 280.546C826.463 280.207 826.192 279.803 826.009 279.357C825.826 278.911 825.735 278.433 825.741 277.951C825.747 277.469 825.85 276.993 826.044 276.552C826.239 276.111 826.52 275.714 826.871 275.384C827.223 275.054 827.637 274.798 828.089 274.632C828.542 274.466 829.023 274.392 829.504 274.417C829.986 274.441 830.457 274.562 830.891 274.772C831.324 274.983 831.711 275.279 832.028 275.642C836.707 280.668 840.732 288.81 842.987 298.001C843.1 298.457 843.122 298.931 843.052 299.395C842.981 299.86 842.819 300.306 842.576 300.708C842.332 301.109 842.012 301.459 841.633 301.737C841.254 302.014 840.823 302.214 840.367 302.325C840.088 302.396 839.802 302.431 839.515 302.428V302.428Z" fill="#43434A"/>
<path d="M810.951 315.802C810.136 315.804 809.345 315.526 808.71 315.015C808.074 314.504 807.633 313.791 807.46 312.995C805.261 303.008 802.968 297.655 800.254 296.148C797.539 294.641 792.766 296.41 786.009 298.816C784.82 299.237 783.576 299.686 782.265 300.135C781.822 300.289 781.352 300.355 780.883 300.327C780.414 300.3 779.955 300.181 779.532 299.976C778.678 299.563 778.024 298.827 777.712 297.931C777.401 297.035 777.458 296.052 777.871 295.198C778.285 294.344 779.02 293.689 779.916 293.378L783.594 292.077C792.083 289.045 798.223 286.845 803.707 289.887C808.546 292.564 811.653 298.815 814.442 311.46C814.542 311.919 814.552 312.393 814.469 312.856C814.386 313.318 814.212 313.76 813.958 314.155C813.705 314.551 813.375 314.893 812.989 315.161C812.603 315.429 812.168 315.618 811.709 315.718C811.461 315.778 811.206 315.806 810.951 315.802V315.802Z" fill="url(#paint7_linear)"/>
<path d="M711.324 322.072C709.681 322.096 708.046 321.846 706.485 321.333C705.786 321.075 705.219 320.55 704.907 319.873C704.596 319.197 704.566 318.424 704.824 317.725C705.082 317.026 705.607 316.459 706.284 316.147C706.96 315.836 707.733 315.806 708.432 316.064C710.369 316.775 713.776 316.42 714.693 315.811C718.025 309.606 718.998 307.332 717.669 301.894C717.285 300.313 715.133 296.915 713.738 295.006C713.336 294.405 713.181 293.672 713.305 292.959C713.43 292.246 713.825 291.61 714.408 291.181C714.991 290.753 715.717 290.566 716.434 290.659C717.152 290.753 717.805 291.12 718.259 291.683C718.933 292.619 722.339 297.299 723.125 300.565C724.95 308.053 723.125 311.918 719.56 318.628C718.259 321.146 714.646 322.072 711.324 322.072Z" fill="url(#paint8_linear)"/>
<path d="M688.993 357.881C687.306 357.909 685.627 357.656 684.023 357.132C683.66 357.018 683.324 356.831 683.036 356.583C682.747 356.335 682.512 356.031 682.344 355.69C682.177 355.348 682.08 354.976 682.061 354.596C682.042 354.216 682.1 353.836 682.232 353.479C682.364 353.122 682.567 352.796 682.829 352.52C683.091 352.244 683.407 352.025 683.756 351.874C684.106 351.724 684.482 351.646 684.863 351.646C685.243 351.646 685.62 351.723 685.97 351.872C688.104 352.659 691.8 352.237 692.746 351.563C696.283 344.956 697.322 342.551 695.909 336.757C695.479 334.97 693.101 331.32 691.744 329.439C691.342 328.838 691.187 328.104 691.311 327.392C691.436 326.679 691.831 326.042 692.414 325.614C692.997 325.185 693.723 324.998 694.44 325.092C695.158 325.186 695.811 325.552 696.265 326.116C696.695 326.706 700.523 331.975 701.365 335.475C703.237 343.346 701.506 347.165 697.622 354.399C696.293 356.936 692.493 357.881 688.993 357.881ZM692.671 351.704C692.671 351.707 692.671 351.71 692.671 351.713V351.704Z" fill="#43434A"/>
<path d="M707.046 355.456C706.48 355.459 705.921 355.324 705.418 355.063C704.573 354.629 703.936 353.878 703.644 352.975C703.353 352.071 703.432 351.089 703.864 350.243C708.072 342.149 711.821 333.825 715.095 325.311C715.264 324.873 715.518 324.472 715.842 324.132C716.165 323.792 716.553 323.519 716.982 323.328C717.412 323.138 717.874 323.034 718.344 323.023C718.813 323.011 719.28 323.092 719.719 323.261C720.157 323.43 720.557 323.684 720.898 324.007C721.238 324.331 721.511 324.719 721.701 325.148C721.891 325.578 721.995 326.04 722.007 326.51C722.018 326.979 721.937 327.446 721.768 327.884C718.42 336.628 714.583 345.177 710.275 353.491C709.974 354.087 709.511 354.587 708.941 354.934C708.37 355.281 707.714 355.462 707.046 355.456V355.456Z" fill="url(#paint9_linear)"/>
<path d="M694 364.872C692.018 364.876 690.056 364.475 688.235 363.692C682.395 361.175 679.727 355.428 681.749 349.738C691.716 321.661 734.675 227.031 736.49 223.016C736.685 222.586 736.963 222.198 737.307 221.875C737.652 221.552 738.057 221.3 738.499 221.134C738.94 220.968 739.411 220.89 739.883 220.905C740.355 220.921 740.819 221.029 741.249 221.224C741.679 221.418 742.067 221.696 742.39 222.041C742.713 222.385 742.965 222.79 743.131 223.232C743.297 223.674 743.375 224.144 743.36 224.616C743.345 225.088 743.236 225.552 743.042 225.983C742.592 226.919 698.389 324.356 688.525 352.125C687.383 355.335 690.471 356.851 691.099 357.122C694.749 358.704 700.308 357.216 703.892 350.225C704.326 349.378 705.077 348.739 705.982 348.446C706.887 348.154 707.871 348.233 708.717 348.666C709.563 349.099 710.203 349.851 710.495 350.756C710.788 351.661 710.708 352.645 710.275 353.491C706.054 361.643 699.7 364.872 694 364.872Z" fill="url(#paint10_linear)"/>
<path d="M745.306 223.128C744.482 223.124 743.685 222.836 743.049 222.313C742.412 221.79 741.975 221.063 741.811 220.256C741.648 219.448 741.767 218.609 742.15 217.879C742.532 217.15 743.155 216.574 743.912 216.249C758.1 210.26 806.983 189.51 840.236 174.218C841.104 173.821 842.095 173.785 842.991 174.118C843.886 174.452 844.612 175.127 845.009 175.996C845.406 176.865 845.442 177.856 845.108 178.751C844.775 179.646 844.099 180.372 843.231 180.769C809.884 196.109 760.871 216.886 746.701 222.885C746.256 223.056 745.783 223.138 745.306 223.128Z" fill="#43434A"/>
<path d="M716.508 329.934C714.822 329.938 713.147 329.653 711.557 329.092C705.399 326.92 702.292 320.959 704.173 314.913C712.933 286.779 730.07 239.263 735.451 225.187C736.176 223.204 737.297 221.39 738.745 219.853C740.193 218.317 741.938 217.091 743.874 216.249C744.749 215.877 745.736 215.867 746.618 216.223C747.5 216.578 748.205 217.269 748.577 218.144C748.95 219.019 748.959 220.006 748.604 220.888C748.248 221.77 747.557 222.475 746.682 222.847C745.628 223.309 744.68 223.981 743.896 224.823C743.113 225.665 742.509 226.658 742.124 227.742C736.761 241.781 719.662 289.054 710.986 317.047C710.107 319.854 712.016 321.67 713.916 322.344C719.438 324.3 728.039 319.667 733.879 304.917C737.969 294.622 743.706 281.407 748.516 271.309C758.315 250.719 760.487 250.223 762.405 249.783C763.263 249.582 764.163 249.705 764.936 250.128C765.708 250.55 766.297 251.243 766.59 252.073C766.884 252.903 766.86 253.812 766.525 254.626C766.19 255.44 765.566 256.101 764.773 256.484C761.498 259.788 749.209 285.637 740.533 307.547C734.263 323.448 724.688 329.934 716.508 329.934Z" fill="url(#paint11_linear)"/>
<path d="M795.013 322.962C788.555 322.962 782.256 320.463 778.335 313.603C773.094 304.403 774.993 289.363 788.836 279.638C794.517 275.651 811.55 267.284 826.805 260.986C843.137 254.238 861.584 235.969 861.771 235.782C861.823 235.724 861.879 235.671 861.939 235.623C862.005 235.566 862.211 235.379 862.099 234.883C862.076 234.743 862.024 234.609 861.947 234.49C861.87 234.37 861.768 234.268 861.649 234.191C842.323 238.458 821.742 243.288 799.964 248.398C788.152 251.206 776.135 254.013 764.034 256.821C763.576 256.927 763.102 256.941 762.639 256.864C762.175 256.786 761.732 256.618 761.333 256.369C760.935 256.12 760.589 255.795 760.316 255.412C760.043 255.03 759.849 254.597 759.743 254.14C759.637 253.682 759.623 253.208 759.7 252.744C759.778 252.281 759.946 251.837 760.195 251.439C760.444 251.04 760.769 250.695 761.151 250.422C761.534 250.149 761.966 249.954 762.424 249.848C774.516 247.041 786.524 244.233 798.326 241.425C820.132 236.315 840.732 231.486 860.021 227.209C861.675 226.854 863.401 227.069 864.917 227.82C866.433 228.572 867.65 229.814 868.369 231.346C869.202 232.894 869.495 234.677 869.202 236.41C868.909 238.144 868.046 239.731 866.75 240.92C865.243 242.408 846.834 260.462 829.529 267.603C814.938 273.63 798.185 281.819 792.954 285.497C782.565 292.788 780.871 303.598 784.53 310.065C788.106 316.345 795.649 317.664 804.718 313.593C808.611 311.843 812.477 310.392 816.585 308.858C826.225 305.245 837.175 301.155 852.627 291.515C858.168 288.062 863.961 286.171 870.672 284.028C879.974 280.986 890.513 277.542 903.718 268.744C918.253 259.058 923.943 249.961 928.988 241.931C929.456 241.191 929.924 240.452 930.373 239.741C932.669 236.398 935.97 233.873 939.798 232.534C940.694 232.306 941.643 232.434 942.447 232.889C943.251 233.344 943.848 234.093 944.114 234.978C944.38 235.863 944.293 236.817 943.873 237.64C943.452 238.462 942.73 239.091 941.857 239.394C939.678 240.234 937.787 241.683 936.41 243.569C935.961 244.28 935.511 245 935.062 245.73C929.915 253.938 923.522 264.159 907.705 274.697C893.667 284.056 882.174 287.8 872.918 290.832C866.647 292.872 861.228 294.65 856.427 297.636C840.339 307.66 829.061 311.881 819.112 315.605C815.116 317.103 811.354 318.507 807.666 320.163C803.687 321.961 799.379 322.914 795.013 322.962V322.962Z" fill="#43434A"/>
<path d="M940.827 239.469C939.971 239.463 939.146 239.151 938.5 238.589C937.855 238.027 937.431 237.253 937.307 236.406C937.183 235.559 937.365 234.696 937.822 233.972C938.279 233.248 938.98 232.712 939.798 232.459C951.665 228.912 1000.18 211.317 1014.31 205.73C1015.19 205.381 1016.17 205.397 1017.04 205.775C1017.91 206.152 1018.6 206.86 1018.95 207.742C1019.3 208.625 1019.28 209.609 1018.9 210.48C1018.53 211.35 1017.82 212.035 1016.94 212.384C1002.35 218.159 954.136 235.651 941.857 239.32C941.523 239.419 941.176 239.47 940.827 239.469Z" fill="url(#paint12_linear)"/>
<path d="M841.733 181.05C840.914 181.055 840.118 180.779 839.478 180.268C838.838 179.756 838.393 179.041 838.218 178.24C838.042 177.44 838.147 176.604 838.514 175.872C838.882 175.14 839.489 174.556 840.236 174.218C856.146 166.88 982.981 139.776 984.263 139.505C984.723 139.408 985.197 139.402 985.659 139.488C986.12 139.575 986.561 139.751 986.955 140.007C987.348 140.264 987.688 140.595 987.953 140.983C988.219 141.37 988.405 141.806 988.503 142.266C988.6 142.726 988.605 143.2 988.519 143.662C988.433 144.124 988.256 144.564 988 144.958C987.744 145.351 987.412 145.691 987.025 145.956C986.637 146.222 986.201 146.408 985.742 146.506C946.096 154.929 855.154 175.229 843.231 180.722C842.761 180.939 842.25 181.051 841.733 181.05V181.05Z" fill="url(#paint13_linear)"/>
</g>
<path d="M755.433 230.355C755.805 230.355 756.162 230.207 756.425 229.943C756.689 229.68 756.837 229.323 756.837 228.951C756.837 228.578 756.689 228.221 756.425 227.958C756.162 227.695 755.805 227.547 755.433 227.547C755.06 227.547 754.703 227.695 754.44 227.958C754.177 228.221 754.029 228.578 754.029 228.951C754.029 229.323 754.177 229.68 754.44 229.943C754.703 230.207 755.06 230.355 755.433 230.355V230.355Z" fill="#F5F5EF"/>
<path d="M327.329 339.903C327.329 337.805 327.951 335.755 329.116 334.012C330.281 332.268 331.937 330.909 333.875 330.106C335.812 329.303 337.944 329.093 340.001 329.503C342.058 329.912 343.948 330.922 345.431 332.405C346.914 333.888 347.924 335.777 348.333 337.834C348.742 339.891 348.532 342.023 347.729 343.961C346.927 345.898 345.568 347.554 343.824 348.719C342.08 349.885 340.03 350.507 337.933 350.507C335.12 350.507 332.423 349.389 330.435 347.401C328.446 345.412 327.329 342.715 327.329 339.903Z" fill="#44FB44"/>
<path d="M327.329 276.288C327.329 274.191 327.951 272.141 329.116 270.397C330.281 268.653 331.937 267.294 333.875 266.492C335.812 265.689 337.944 265.479 340.001 265.888C342.058 266.297 343.948 267.307 345.431 268.79C346.914 270.273 347.924 272.163 348.333 274.22C348.742 276.277 348.532 278.409 347.729 280.346C346.927 282.284 345.568 283.94 343.824 285.105C342.08 286.27 340.03 286.892 337.933 286.892C335.12 286.892 332.423 285.775 330.435 283.787C328.446 281.798 327.329 279.101 327.329 276.288V276.288Z" fill="#00D6FF"/>
<path d="M433.358 414.12C430.546 414.12 427.849 413.002 425.86 411.014C423.872 409.025 422.754 406.328 422.754 403.516V371.695C422.752 370.301 423.024 368.92 423.556 367.631C424.088 366.342 424.869 365.171 425.854 364.185C426.838 363.198 428.008 362.415 429.296 361.881C430.584 361.347 431.964 361.072 433.358 361.072V361.072C436.169 361.075 438.864 362.193 440.85 364.181C442.837 366.17 443.953 368.865 443.953 371.676V403.497C443.955 404.89 443.683 406.271 443.152 407.559C442.621 408.847 441.841 410.017 440.857 411.004C439.873 411.99 438.704 412.773 437.418 413.308C436.131 413.843 434.752 414.118 433.358 414.12V414.12Z" fill="#BFFFB3"/>
<path d="M359.141 371.704C359.141 369.607 359.763 367.557 360.928 365.813C362.093 364.069 363.749 362.71 365.687 361.908C367.624 361.105 369.756 360.895 371.813 361.304C373.87 361.713 375.76 362.723 377.243 364.206C378.726 365.689 379.735 367.579 380.145 369.636C380.554 371.693 380.344 373.825 379.541 375.762C378.739 377.7 377.379 379.356 375.636 380.521C373.892 381.686 371.842 382.308 369.744 382.308C366.932 382.308 364.235 381.191 362.246 379.202C360.258 377.214 359.141 374.517 359.141 371.704V371.704Z" fill="#E8E8E3"/>
<path d="M337.933 202.071C340.745 202.071 343.442 203.188 345.431 205.177C347.419 207.166 348.537 209.863 348.537 212.675V244.496C348.537 247.308 347.419 250.005 345.431 251.994C343.442 253.983 340.745 255.1 337.933 255.1V255.1C335.12 255.1 332.423 253.983 330.435 251.994C328.446 250.005 327.329 247.308 327.329 244.496V212.675C327.329 209.863 328.446 207.166 330.435 205.177C332.423 203.188 335.12 202.071 337.933 202.071V202.071Z" fill="#BFFFB3"/>
<path d="M390.943 276.288C390.943 274.191 391.565 272.141 392.73 270.397C393.895 268.653 395.551 267.294 397.489 266.492C399.426 265.689 401.558 265.479 403.615 265.888C405.672 266.297 407.562 267.307 409.045 268.79C410.528 270.273 411.537 272.163 411.947 274.22C412.356 276.277 412.146 278.409 411.343 280.346C410.541 282.284 409.181 283.94 407.438 285.105C405.694 286.27 403.644 286.892 401.546 286.892C398.734 286.892 396.037 285.775 394.048 283.787C392.06 281.798 390.943 279.101 390.943 276.288V276.288Z" fill="#BFFFB3"/>
<path d="M443.953 435.319C443.953 437.416 443.33 439.467 442.165 441.211C440.999 442.955 439.343 444.314 437.404 445.116C435.466 445.919 433.334 446.128 431.277 445.718C429.219 445.308 427.33 444.297 425.847 442.813C424.365 441.33 423.356 439.439 422.947 437.382C422.539 435.324 422.751 433.192 423.555 431.254C424.359 429.317 425.719 427.661 427.464 426.497C429.209 425.333 431.26 424.713 433.358 424.715C434.75 424.715 436.129 424.989 437.415 425.522C438.701 426.055 439.869 426.836 440.853 427.821C441.837 428.806 442.617 429.975 443.149 431.261C443.681 432.548 443.954 433.927 443.953 435.319V435.319Z" fill="#F5F5EF" fill-opacity="0.5"/>
<path d="M560.576 286.892C557.764 286.892 555.067 285.775 553.078 283.787C551.09 281.798 549.972 279.101 549.972 276.288V244.468C549.975 241.657 551.093 238.962 553.082 236.976C555.07 234.989 557.766 233.873 560.576 233.873V233.873C561.968 233.872 563.347 234.145 564.634 234.677C565.92 235.209 567.089 235.989 568.074 236.973C569.059 237.957 569.84 239.125 570.373 240.411C570.906 241.697 571.18 243.075 571.18 244.468V276.288C571.18 277.681 570.906 279.06 570.373 280.346C569.84 281.633 569.059 282.802 568.074 283.787C567.09 284.771 565.921 285.552 564.634 286.085C563.348 286.618 561.969 286.892 560.576 286.892V286.892Z" fill="url(#paint14_linear)"/>
<path d="M549.972 244.477C549.972 242.38 550.594 240.33 551.76 238.586C552.925 236.842 554.581 235.483 556.518 234.68C558.456 233.878 560.588 233.668 562.645 234.077C564.702 234.486 566.591 235.496 568.074 236.979C569.557 238.462 570.567 240.351 570.976 242.408C571.386 244.465 571.176 246.597 570.373 248.535C569.57 250.472 568.211 252.129 566.467 253.294C564.724 254.459 562.674 255.081 560.576 255.081C559.184 255.081 557.805 254.806 556.518 254.274C555.232 253.741 554.063 252.96 553.078 251.975C552.094 250.99 551.313 249.821 550.78 248.535C550.247 247.248 549.972 245.869 549.972 244.477V244.477Z" fill="#00D6FF"/>
<path d="M549.972 276.288C549.972 274.191 550.594 272.141 551.76 270.397C552.925 268.653 554.581 267.294 556.518 266.492C558.456 265.689 560.588 265.479 562.645 265.888C564.702 266.297 566.591 267.307 568.074 268.79C569.557 270.273 570.567 272.163 570.976 274.22C571.386 276.277 571.176 278.409 570.373 280.346C569.57 282.284 568.211 283.94 566.467 285.105C564.724 286.27 562.674 286.892 560.576 286.892C559.184 286.892 557.805 286.618 556.518 286.085C555.232 285.552 554.063 284.771 553.078 283.787C552.094 282.802 551.313 281.633 550.78 280.346C550.247 279.06 549.972 277.681 549.972 276.288V276.288Z" fill="#00D6FF" fill-opacity="0.5"/>
<path d="M433.358 170.269C434.75 170.269 436.129 170.543 437.415 171.076C438.701 171.609 439.869 172.39 440.853 173.375C441.837 174.36 442.617 175.529 443.149 176.815C443.681 178.102 443.954 179.48 443.953 180.872V212.693C443.954 214.085 443.681 215.464 443.149 216.751C442.617 218.037 441.837 219.206 440.853 220.191C439.869 221.176 438.701 221.957 437.415 222.49C436.129 223.023 434.75 223.297 433.358 223.297V223.297C430.546 223.297 427.849 222.18 425.86 220.191C423.872 218.203 422.754 215.506 422.754 212.693V180.872C422.754 179.48 423.029 178.101 423.562 176.814C424.094 175.528 424.876 174.359 425.86 173.374C426.845 172.39 428.014 171.609 429.3 171.076C430.587 170.543 431.966 170.269 433.358 170.269V170.269Z" fill="#F5F5EF"/>
<path d="M454.556 339.903C454.556 337.805 455.178 335.755 456.343 334.012C457.509 332.268 459.165 330.909 461.102 330.106C463.04 329.303 465.172 329.093 467.229 329.503C469.286 329.912 471.175 330.922 472.658 332.405C474.141 333.888 475.151 335.777 475.56 337.834C475.97 339.891 475.76 342.023 474.957 343.961C474.154 345.898 472.795 347.554 471.051 348.719C469.308 349.885 467.258 350.507 465.16 350.507C462.348 350.507 459.651 349.389 457.662 347.401C455.674 345.412 454.556 342.715 454.556 339.903Z" fill="#44FB44"/>
<path d="M581.784 467.13C581.782 465.031 582.404 462.978 583.569 461.232C584.735 459.486 586.393 458.126 588.332 457.323C590.272 456.52 592.406 456.311 594.465 456.722C596.523 457.133 598.414 458.146 599.896 459.632C601.378 461.119 602.386 463.012 602.792 465.071C603.198 467.131 602.983 469.265 602.175 471.202C601.367 473.14 600.002 474.794 598.253 475.955C596.504 477.116 594.45 477.732 592.351 477.724C589.546 477.714 586.86 476.594 584.88 474.609C582.9 472.623 581.787 469.934 581.784 467.13V467.13Z" fill="#44FB44"/>
<path d="M454.556 308.091C454.556 305.994 455.178 303.944 456.343 302.2C457.509 300.456 459.165 299.097 461.102 298.294C463.04 297.492 465.172 297.282 467.229 297.691C469.286 298.1 471.175 299.11 472.658 300.593C474.141 302.076 475.151 303.966 475.56 306.022C475.97 308.079 475.76 310.211 474.957 312.149C474.154 314.087 472.795 315.743 471.051 316.908C469.308 318.073 467.258 318.695 465.16 318.695C463.767 318.696 462.388 318.423 461.101 317.89C459.814 317.358 458.644 316.577 457.659 315.592C456.675 314.607 455.894 313.438 455.361 312.151C454.829 310.863 454.555 309.484 454.556 308.091Z" fill="#44FB44"/>
<path d="M518.17 371.704C518.17 369.607 518.792 367.557 519.958 365.813C521.123 364.069 522.779 362.71 524.716 361.908C526.654 361.105 528.786 360.895 530.843 361.304C532.9 361.713 534.789 362.723 536.272 364.206C537.755 365.689 538.765 367.579 539.174 369.636C539.584 371.693 539.373 373.825 538.571 375.762C537.768 377.7 536.409 379.356 534.665 380.521C532.922 381.686 530.872 382.308 528.774 382.308C525.962 382.308 523.265 381.191 521.276 379.202C519.288 377.214 518.17 374.517 518.17 371.704V371.704Z" fill="#44FB44"/>
<path d="M380.339 244.477C380.341 246.575 379.72 248.627 378.556 250.372C377.391 252.117 375.735 253.478 373.797 254.282C371.859 255.085 369.726 255.296 367.669 254.887C365.611 254.478 363.72 253.468 362.237 251.985C360.753 250.501 359.743 248.611 359.334 246.553C358.926 244.495 359.136 242.362 359.94 240.424C360.744 238.486 362.104 236.83 363.85 235.666C365.595 234.502 367.646 233.881 369.744 233.883C372.554 233.883 375.249 234.999 377.236 236.986C379.223 238.973 380.339 241.667 380.339 244.477V244.477Z" fill="#F5F5EF" fill-opacity="0.5"/>
<path d="M348.537 467.13C348.538 469.227 347.918 471.278 346.754 473.023C345.59 474.768 343.935 476.129 341.997 476.933C340.06 477.737 337.927 477.948 335.87 477.54C333.812 477.132 331.922 476.123 330.438 474.64C328.954 473.158 327.943 471.268 327.533 469.211C327.123 467.154 327.333 465.021 328.135 463.083C328.937 461.145 330.297 459.488 332.041 458.323C333.785 457.157 335.835 456.535 337.933 456.535C339.325 456.534 340.703 456.807 341.99 457.339C343.276 457.871 344.445 458.651 345.43 459.635C346.415 460.619 347.196 461.787 347.729 463.073C348.262 464.359 348.537 465.738 348.537 467.13Z" fill="#F5F5EF" fill-opacity="0.5"/>
<path d="M528.774 297.496C531.585 297.496 534.281 298.612 536.269 300.599C538.257 302.585 539.376 305.28 539.378 308.091V339.912C539.376 342.723 538.258 345.419 536.27 347.407C534.282 349.395 531.586 350.513 528.774 350.515C525.962 350.515 523.265 349.398 521.276 347.41C519.288 345.421 518.17 342.724 518.17 339.912V308.091C518.17 306.699 518.445 305.32 518.978 304.034C519.511 302.748 520.292 301.58 521.277 300.596C522.262 299.612 523.431 298.832 524.717 298.3C526.003 297.768 527.382 297.495 528.774 297.496V297.496Z" fill="url(#paint15_linear)"/>
<path d="M539.378 339.903C539.378 342 538.756 344.05 537.591 345.794C536.426 347.538 534.77 348.897 532.832 349.699C530.895 350.502 528.762 350.712 526.706 350.303C524.649 349.894 522.759 348.884 521.276 347.401C519.793 345.918 518.783 344.028 518.374 341.971C517.965 339.914 518.175 337.782 518.978 335.845C519.78 333.907 521.139 332.251 522.883 331.086C524.627 329.921 526.677 329.299 528.774 329.299C531.586 329.301 534.282 330.419 536.27 332.407C538.258 334.395 539.376 337.091 539.378 339.903Z" fill="#8AFCE9"/>
<path d="M539.378 308.091C539.38 310.188 538.76 312.239 537.596 313.984C536.432 315.729 534.776 317.09 532.839 317.894C530.901 318.698 528.769 318.909 526.711 318.501C524.654 318.093 522.763 317.084 521.28 315.601C519.796 314.119 518.785 312.229 518.375 310.172C517.965 308.115 518.174 305.982 518.977 304.044C519.779 302.106 521.138 300.449 522.882 299.284C524.626 298.118 526.677 297.496 528.774 297.496C531.585 297.496 534.281 298.612 536.269 300.599C538.257 302.585 539.376 305.28 539.378 308.091V308.091Z" fill="#8AFCE9" fill-opacity="0.5"/>
<path d="M624.359 350.507C621.546 350.507 618.849 349.389 616.86 347.401C614.872 345.412 613.755 342.715 613.755 339.903V308.082C613.755 306.69 614.029 305.311 614.562 304.025C615.095 302.739 615.876 301.571 616.861 300.587C617.846 299.603 619.015 298.823 620.301 298.291C621.588 297.759 622.966 297.486 624.359 297.487V297.487C625.751 297.486 627.129 297.759 628.416 298.291C629.702 298.823 630.871 299.603 631.856 300.587C632.841 301.571 633.622 302.739 634.155 304.025C634.688 305.311 634.962 306.69 634.962 308.082V339.903C634.962 342.715 633.845 345.412 631.857 347.401C629.868 349.389 627.171 350.507 624.359 350.507Z" fill="url(#paint16_linear)"/>
<path d="M613.755 308.091C613.755 305.994 614.377 303.944 615.542 302.2C616.707 300.456 618.363 299.097 620.301 298.294C622.238 297.492 624.37 297.282 626.427 297.691C628.484 298.1 630.374 299.11 631.857 300.593C633.34 302.076 634.35 303.966 634.759 306.022C635.168 308.079 634.958 310.211 634.155 312.149C633.353 314.087 631.994 315.743 630.25 316.908C628.506 318.073 626.456 318.695 624.359 318.695C622.966 318.696 621.586 318.423 620.299 317.89C619.012 317.358 617.843 316.577 616.858 315.592C615.873 314.607 615.092 313.438 614.559 312.151C614.027 310.863 613.753 309.484 613.755 308.091V308.091Z" fill="#40F6CE"/>
<path d="M613.755 339.903C613.755 337.805 614.377 335.755 615.542 334.012C616.707 332.268 618.363 330.909 620.301 330.106C622.238 329.303 624.37 329.093 626.427 329.503C628.484 329.912 630.374 330.922 631.857 332.405C633.34 333.888 634.35 335.777 634.759 337.834C635.168 339.891 634.958 342.023 634.155 343.961C633.353 345.898 631.994 347.554 630.25 348.719C628.506 349.885 626.456 350.507 624.359 350.507C621.546 350.507 618.849 349.389 616.86 347.401C614.872 345.412 613.755 342.715 613.755 339.903V339.903Z" fill="#40F6CE" fill-opacity="0.5"/>
<path d="M549.972 403.516C549.972 401.419 550.594 399.369 551.76 397.625C552.925 395.881 554.581 394.522 556.518 393.719C558.456 392.917 560.588 392.707 562.645 393.116C564.702 393.525 566.591 394.535 568.074 396.018C569.557 397.501 570.567 399.39 570.976 401.447C571.386 403.504 571.176 405.636 570.373 407.574C569.57 409.511 568.211 411.168 566.467 412.333C564.724 413.498 562.674 414.12 560.576 414.12C559.184 414.12 557.805 413.846 556.518 413.313C555.232 412.78 554.063 411.999 553.078 411.014C552.094 410.029 551.313 408.86 550.78 407.574C550.247 406.287 549.972 404.908 549.972 403.516V403.516Z" fill="#BFFFB3"/>
<path d="M496.934 202.071C499.747 202.071 502.444 203.188 504.433 205.177C506.421 207.166 507.538 209.863 507.538 212.675V244.496C507.538 247.308 506.421 250.005 504.433 251.994C502.444 253.983 499.747 255.1 496.934 255.1C495.542 255.1 494.163 254.826 492.877 254.293C491.59 253.76 490.421 252.979 489.436 251.994C488.452 251.009 487.671 249.841 487.138 248.554C486.605 247.267 486.331 245.889 486.331 244.496V212.675C486.331 211.283 486.605 209.904 487.138 208.617C487.671 207.331 488.452 206.162 489.436 205.177C490.421 204.192 491.59 203.411 492.877 202.878C494.163 202.346 495.542 202.071 496.934 202.071V202.071Z" fill="url(#paint17_linear)"/>
<path d="M507.538 244.477C507.54 246.575 506.92 248.626 505.756 250.371C504.592 252.116 502.936 253.477 500.999 254.281C499.061 255.085 496.929 255.296 494.871 254.888C492.814 254.48 490.924 253.471 489.44 251.988C487.956 250.505 486.945 248.616 486.535 246.559C486.125 244.502 486.335 242.369 487.137 240.431C487.939 238.493 489.298 236.836 491.042 235.671C492.786 234.505 494.837 233.883 496.934 233.883C499.745 233.883 502.441 234.999 504.429 236.985C506.418 238.972 507.536 241.667 507.538 244.477V244.477Z" fill="#A5FEF1"/>
<path d="M507.538 212.675C507.538 214.772 506.916 216.823 505.751 218.566C504.586 220.31 502.93 221.669 500.992 222.472C499.055 223.274 496.923 223.484 494.866 223.075C492.809 222.666 490.919 221.656 489.436 220.173C487.953 218.69 486.943 216.801 486.534 214.744C486.125 212.687 486.335 210.555 487.138 208.617C487.94 206.68 489.299 205.024 491.043 203.858C492.787 202.693 494.837 202.071 496.934 202.071C499.747 202.071 502.444 203.188 504.433 205.177C506.421 207.166 507.538 209.863 507.538 212.675V212.675Z" fill="#A5FEF1" fill-opacity="0.5"/>
<path d="M306.131 392.894C308.943 392.894 311.64 394.011 313.629 395.999C315.617 397.988 316.735 400.685 316.735 403.497V435.318C316.735 438.131 315.617 440.828 313.629 442.816C311.64 444.805 308.943 445.922 306.131 445.922C303.318 445.922 300.621 444.805 298.633 442.816C296.644 440.828 295.527 438.131 295.527 435.318V403.497C295.527 400.685 296.644 397.988 298.633 395.999C300.621 394.011 303.318 392.894 306.131 392.894V392.894Z" fill="url(#paint18_linear)"/>
<path d="M316.735 435.319C316.735 437.416 316.113 439.466 314.948 441.21C313.782 442.954 312.126 444.313 310.189 445.115C308.251 445.918 306.119 446.128 304.062 445.719C302.005 445.31 300.116 444.3 298.633 442.817C297.15 441.334 296.14 439.444 295.731 437.387C295.321 435.33 295.531 433.198 296.334 431.261C297.137 429.323 298.496 427.667 300.24 426.502C301.983 425.337 304.033 424.715 306.131 424.715C308.943 424.715 311.64 425.832 313.629 427.821C315.617 429.809 316.735 432.506 316.735 435.319V435.319Z" fill="#F5F5EF"/>
<path d="M316.735 403.516C316.731 405.613 316.106 407.661 314.938 409.402C313.771 411.144 312.114 412.5 310.176 413.299C308.238 414.099 306.106 414.306 304.051 413.895C301.995 413.484 300.107 412.473 298.626 410.989C297.145 409.505 296.137 407.616 295.729 405.559C295.322 403.503 295.533 401.372 296.336 399.435C297.139 397.499 298.498 395.844 300.241 394.679C301.985 393.515 304.034 392.894 306.131 392.894C307.524 392.895 308.904 393.171 310.191 393.705C311.479 394.24 312.648 395.022 313.633 396.009C314.617 396.995 315.398 398.166 315.93 399.454C316.462 400.742 316.736 402.122 316.735 403.516Z" fill="#F5F5EF" fill-opacity="0.5"/>
<path d="M306.131 233.883C308.941 233.883 311.637 234.999 313.625 236.985C315.614 238.972 316.732 241.667 316.735 244.477V276.298C316.735 279.111 315.617 281.808 313.629 283.796C311.64 285.785 308.943 286.902 306.131 286.902V286.902C303.318 286.902 300.621 285.785 298.633 283.796C296.644 281.808 295.527 279.111 295.527 276.298V244.477C295.527 243.085 295.801 241.707 296.334 240.421C296.867 239.135 297.648 237.966 298.633 236.983C299.618 235.999 300.787 235.218 302.073 234.687C303.36 234.155 304.739 233.882 306.131 233.883V233.883Z" fill="url(#paint19_linear)"/>
<path d="M316.735 276.288C316.735 278.386 316.113 280.436 314.948 282.18C313.782 283.923 312.126 285.283 310.189 286.085C308.251 286.888 306.119 287.098 304.062 286.689C302.005 286.279 300.116 285.269 298.633 283.787C297.15 282.304 296.14 280.414 295.731 278.357C295.321 276.3 295.531 274.168 296.334 272.231C297.137 270.293 298.496 268.637 300.24 267.472C301.983 266.306 304.033 265.685 306.131 265.685C308.943 265.685 311.64 266.802 313.629 268.79C315.617 270.779 316.735 273.476 316.735 276.288V276.288Z" fill="#40F6CE"/>
<path d="M316.735 244.477C316.736 246.575 316.116 248.626 314.952 250.371C313.788 252.116 312.133 253.477 310.195 254.281C308.258 255.085 306.125 255.296 304.068 254.888C302.01 254.48 300.12 253.471 298.636 251.988C297.152 250.505 296.141 248.616 295.731 246.559C295.321 244.502 295.531 242.369 296.333 240.431C297.135 238.493 298.495 236.836 300.239 235.671C301.983 234.505 304.033 233.883 306.131 233.883C308.941 233.883 311.637 234.999 313.625 236.985C315.614 238.972 316.732 241.667 316.735 244.477V244.477Z" fill="#40F6CE" fill-opacity="0.5"/>
<path d="M454.556 212.675C454.556 210.578 455.178 208.528 456.343 206.784C457.509 205.04 459.165 203.681 461.102 202.878C463.04 202.076 465.172 201.866 467.229 202.275C469.286 202.684 471.175 203.694 472.658 205.177C474.141 206.66 475.151 208.55 475.56 210.606C475.97 212.663 475.76 214.795 474.957 216.733C474.154 218.671 472.795 220.327 471.051 221.492C469.308 222.657 467.258 223.279 465.16 223.279C462.348 223.279 459.651 222.162 457.662 220.173C455.674 218.185 454.556 215.487 454.556 212.675Z" fill="#F5F5EF"/>
<path d="M518.17 149.061C518.17 146.964 518.792 144.914 519.958 143.17C521.123 141.426 522.779 140.067 524.716 139.264C526.654 138.462 528.786 138.252 530.843 138.661C532.9 139.07 534.789 140.08 536.272 141.563C537.755 143.046 538.765 144.935 539.174 146.992C539.584 149.049 539.373 151.181 538.571 153.119C537.768 155.056 536.409 156.713 534.665 157.878C532.922 159.043 530.872 159.665 528.774 159.665C525.962 159.665 523.265 158.548 521.276 156.559C519.288 154.57 518.17 151.873 518.17 149.061V149.061Z" fill="#F5F5EF"/>
<path d="M485.966 180.873C485.964 178.775 486.584 176.724 487.748 174.979C488.912 173.234 490.568 171.874 492.505 171.07C494.442 170.266 496.575 170.054 498.632 170.462C500.69 170.87 502.58 171.88 504.064 173.362C505.548 174.845 506.559 176.734 506.969 178.791C507.379 180.849 507.169 182.981 506.367 184.919C505.565 186.858 504.206 188.514 502.462 189.68C500.718 190.845 498.667 191.467 496.569 191.467C493.759 191.467 491.063 190.352 489.075 188.365C487.086 186.378 485.968 183.684 485.966 180.873Z" fill="#44FB44"/>
<path d="M518.17 244.477C518.17 242.38 518.792 240.33 519.958 238.586C521.123 236.842 522.779 235.483 524.716 234.68C526.654 233.878 528.786 233.668 530.843 234.077C532.9 234.486 534.789 235.496 536.272 236.979C537.755 238.462 538.765 240.351 539.174 242.408C539.584 244.465 539.373 246.597 538.571 248.535C537.768 250.472 536.409 252.129 534.665 253.294C532.922 254.459 530.872 255.081 528.774 255.081C527.381 255.082 526.002 254.809 524.715 254.276C523.428 253.744 522.258 252.963 521.273 251.978C520.289 250.993 519.508 249.823 518.975 248.536C518.443 247.249 518.169 245.87 518.17 244.477V244.477Z" fill="#F5F5EF"/>
<path d="M518.17 277.44C518.176 275.344 518.802 273.297 519.971 271.557C521.139 269.816 522.797 268.462 524.736 267.663C526.674 266.865 528.805 266.659 530.86 267.071C532.915 267.484 534.802 268.496 536.282 269.98C537.762 271.464 538.769 273.354 539.176 275.41C539.583 277.466 539.371 279.597 538.568 281.532C537.765 283.468 536.406 285.123 534.662 286.287C532.919 287.451 530.87 288.072 528.774 288.072C527.379 288.072 525.998 287.797 524.71 287.262C523.421 286.727 522.251 285.944 521.266 284.956C520.281 283.969 519.501 282.796 518.969 281.507C518.438 280.217 518.167 278.835 518.17 277.44V277.44Z" fill="#64FF64"/>
<path d="M422.754 246.78C422.754 244.682 423.376 242.632 424.541 240.888C425.707 239.145 427.363 237.786 429.3 236.983C431.238 236.18 433.37 235.97 435.427 236.38C437.484 236.789 439.373 237.799 440.856 239.282C442.339 240.765 443.349 242.654 443.758 244.711C444.167 246.768 443.958 248.9 443.155 250.838C442.352 252.775 440.993 254.431 439.249 255.596C437.506 256.762 435.455 257.383 433.358 257.383C430.546 257.383 427.849 256.266 425.86 254.278C423.872 252.289 422.754 249.592 422.754 246.78V246.78Z" fill="#A5FEF1"/>
<path d="M454.556 244.477C454.556 242.38 455.178 240.33 456.343 238.586C457.509 236.842 459.165 235.483 461.102 234.68C463.04 233.878 465.172 233.668 467.229 234.077C469.286 234.486 471.175 235.496 472.658 236.979C474.141 238.462 475.151 240.351 475.56 242.408C475.97 244.465 475.76 246.597 474.957 248.535C474.154 250.472 472.795 252.129 471.051 253.294C469.308 254.459 467.258 255.081 465.16 255.081C463.767 255.082 462.388 254.809 461.101 254.276C459.814 253.744 458.644 252.963 457.659 251.978C456.675 250.993 455.894 249.823 455.361 248.536C454.829 247.249 454.555 245.87 454.556 244.477V244.477Z" fill="#BFFFB3"/>
<path d="M624.171 233.883C625.564 233.882 626.942 234.155 628.229 234.687C629.515 235.218 630.684 235.999 631.669 236.983C632.654 237.966 633.435 239.135 633.968 240.421C634.501 241.707 634.775 243.085 634.775 244.477V276.298C634.773 279.109 633.655 281.804 631.666 283.79C629.678 285.777 626.982 286.893 624.171 286.893V286.893C621.359 286.893 618.662 285.776 616.673 283.787C614.685 281.798 613.568 279.101 613.568 276.289V244.468C613.573 241.659 614.692 238.967 616.68 236.982C618.668 234.997 621.362 233.883 624.171 233.883V233.883Z" fill="#F5F5EF"/>
<path d="M465.16 106.655C467.973 106.655 470.67 107.772 472.658 109.761C474.647 111.75 475.764 114.447 475.764 117.259V149.08C475.759 151.889 474.64 154.581 472.652 156.566C470.664 158.551 467.969 159.665 465.16 159.665V159.665C462.348 159.665 459.651 158.548 457.662 156.559C455.674 154.571 454.556 151.874 454.556 149.061V117.24C454.561 114.431 455.681 111.739 457.669 109.754C459.657 107.77 462.351 106.655 465.16 106.655V106.655Z" fill="#F5F5EF"/>
<path d="M655.992 392.894C657.384 392.894 658.763 393.168 660.049 393.701C661.335 394.234 662.503 395.015 663.487 396C664.471 396.985 665.251 398.154 665.783 399.44C666.315 400.727 666.588 402.105 666.587 403.497V435.318C666.588 436.71 666.315 438.089 665.783 439.376C665.251 440.662 664.471 441.831 663.487 442.816C662.503 443.801 661.335 444.582 660.049 445.115C658.763 445.648 657.384 445.922 655.992 445.922V445.922C653.18 445.922 650.483 444.805 648.494 442.816C646.506 440.828 645.388 438.131 645.388 435.318V403.497C645.388 400.685 646.506 397.988 648.494 395.999C650.483 394.011 653.18 392.894 655.992 392.894Z" fill="#F5F5EF"/>
<path d="M337.933 361.072C340.745 361.072 343.442 362.189 345.431 364.178C347.419 366.167 348.537 368.864 348.537 371.676V435.318C348.537 438.13 347.419 440.827 345.431 442.816C343.442 444.805 340.745 445.922 337.933 445.922C335.12 445.922 332.423 444.805 330.435 442.816C328.446 440.827 327.329 438.13 327.329 435.318V371.676C327.331 368.865 328.449 366.169 330.437 364.181C332.425 362.193 335.121 361.075 337.933 361.072V361.072Z" fill="#F5F5EF"/>
<path d="M624.359 424.715C627.171 424.715 629.868 425.832 631.857 427.821C633.845 429.809 634.962 432.506 634.962 435.319V467.14C634.962 468.532 634.688 469.91 634.155 471.196C633.622 472.482 632.841 473.65 631.856 474.634C630.871 475.618 629.702 476.398 628.416 476.93C627.129 477.462 625.751 477.735 624.359 477.734V477.734C622.966 477.735 621.588 477.462 620.301 476.93C619.015 476.398 617.846 475.618 616.861 474.634C615.876 473.65 615.095 472.482 614.562 471.196C614.029 469.91 613.755 468.532 613.755 467.14V435.319C613.755 432.506 614.872 429.809 616.86 427.821C618.849 425.832 621.546 424.715 624.359 424.715Z" fill="#BFFFB3"/>
<path d="M645.398 244.477C645.398 242.379 646.02 240.329 647.186 238.585C648.351 236.841 650.008 235.482 651.946 234.679C653.884 233.877 656.017 233.668 658.074 234.077C660.131 234.487 662.021 235.498 663.503 236.982C664.986 238.466 665.995 240.356 666.403 242.414C666.811 244.471 666.6 246.604 665.796 248.541C664.992 250.479 663.631 252.134 661.886 253.298C660.141 254.462 658.09 255.083 655.992 255.081C654.6 255.081 653.222 254.806 651.936 254.273C650.65 253.74 649.482 252.959 648.498 251.974C647.514 250.99 646.734 249.821 646.202 248.534C645.67 247.248 645.397 245.869 645.398 244.477V244.477Z" fill="#F5F5EF"/>
<path d="M549.972 212.675C549.972 210.578 550.594 208.528 551.76 206.784C552.925 205.04 554.581 203.681 556.518 202.878C558.456 202.076 560.588 201.866 562.645 202.275C564.702 202.684 566.591 203.694 568.074 205.177C569.557 206.66 570.567 208.55 570.976 210.606C571.386 212.663 571.176 214.795 570.373 216.733C569.57 218.671 568.211 220.327 566.467 221.492C564.724 222.657 562.674 223.279 560.576 223.279C559.184 223.279 557.805 223.005 556.518 222.472C555.232 221.939 554.063 221.158 553.078 220.173C552.094 219.189 551.313 218.02 550.78 216.733C550.247 215.447 549.972 214.068 549.972 212.675V212.675Z" fill="#F5F5EF"/>
<path d="M549.972 308.091C549.972 305.994 550.594 303.944 551.76 302.2C552.925 300.456 554.581 299.097 556.518 298.294C558.456 297.492 560.588 297.282 562.645 297.691C564.702 298.1 566.591 299.11 568.074 300.593C569.557 302.076 570.567 303.966 570.976 306.022C571.386 308.079 571.176 310.211 570.373 312.149C569.57 314.087 568.211 315.743 566.467 316.908C564.724 318.073 562.674 318.695 560.576 318.695C559.184 318.695 557.805 318.421 556.518 317.888C555.232 317.355 554.063 316.574 553.078 315.589C552.094 314.605 551.313 313.436 550.78 312.149C550.247 310.863 549.972 309.484 549.972 308.091Z" fill="#F5F5EF"/>
<path d="M485.966 339.903C485.966 337.805 486.587 335.755 487.753 334.012C488.918 332.268 490.574 330.909 492.512 330.106C494.449 329.303 496.581 329.093 498.638 329.503C500.695 329.912 502.584 330.922 504.067 332.405C505.55 333.888 506.56 335.777 506.969 337.834C507.379 339.891 507.169 342.023 506.366 343.961C505.563 345.898 504.204 347.554 502.461 348.719C500.717 349.885 498.667 350.507 496.569 350.507C493.757 350.507 491.06 349.389 489.071 347.401C487.083 345.412 485.966 342.715 485.966 339.903V339.903Z" fill="#F5F5EF"/>
<path d="M518.17 403.516C518.17 401.419 518.792 399.369 519.958 397.625C521.123 395.881 522.779 394.522 524.716 393.719C526.654 392.917 528.786 392.707 530.843 393.116C532.9 393.525 534.789 394.535 536.272 396.018C537.755 397.501 538.765 399.39 539.174 401.447C539.584 403.504 539.373 405.636 538.571 407.574C537.768 409.511 536.409 411.168 534.665 412.333C532.922 413.498 530.872 414.12 528.774 414.12C525.962 414.12 523.265 413.003 521.276 411.014C519.288 409.025 518.17 406.328 518.17 403.516V403.516Z" fill="#F5F5EF"/>
<path d="M602.992 403.516C602.988 405.611 602.364 407.658 601.198 409.398C600.033 411.139 598.377 412.495 596.442 413.296C594.506 414.097 592.376 414.306 590.322 413.898C588.267 413.49 586.379 412.482 584.897 411.002C583.414 409.522 582.403 407.636 581.991 405.582C581.579 403.528 581.785 401.398 582.582 399.461C583.38 397.524 584.733 395.866 586.472 394.698C588.21 393.529 590.256 392.901 592.351 392.894C593.747 392.89 595.131 393.162 596.423 393.694C597.714 394.227 598.888 395.009 599.877 395.995C600.865 396.982 601.649 398.155 602.184 399.445C602.719 400.736 602.993 402.119 602.992 403.516Z" fill="#00E200"/>
<path d="M645.398 339.903C645.398 337.805 646.02 335.755 647.186 334.011C648.351 332.267 650.008 330.907 651.946 330.105C653.884 329.303 656.017 329.093 658.074 329.503C660.131 329.913 662.021 330.924 663.503 332.408C664.986 333.892 665.995 335.782 666.403 337.84C666.811 339.897 666.6 342.03 665.796 343.967C664.992 345.905 663.631 347.56 661.886 348.724C660.141 349.888 658.09 350.508 655.992 350.507C653.182 350.504 650.487 349.386 648.5 347.397C646.514 345.409 645.398 342.713 645.398 339.903V339.903Z" fill="#BFFFB3"/>
<path d="M613.755 371.704C613.755 369.607 614.377 367.557 615.542 365.813C616.707 364.069 618.363 362.71 620.301 361.908C622.238 361.105 624.37 360.895 626.427 361.304C628.484 361.713 630.374 362.723 631.857 364.206C633.34 365.689 634.35 367.579 634.759 369.636C635.168 371.693 634.958 373.825 634.155 375.762C633.353 377.7 631.994 379.356 630.25 380.521C628.506 381.686 626.456 382.308 624.359 382.308C621.546 382.308 618.849 381.191 616.86 379.202C614.872 377.214 613.755 374.517 613.755 371.704V371.704Z" fill="#9EE9FF"/>
<path d="M655.992 318.695C653.18 318.695 650.483 317.577 648.494 315.589C646.506 313.6 645.388 310.903 645.388 308.091V276.27C645.393 273.461 646.513 270.768 648.501 268.784C650.489 266.799 653.183 265.685 655.992 265.685C657.384 265.685 658.763 265.959 660.049 266.492C661.335 267.025 662.503 267.806 663.487 268.791C664.471 269.776 665.251 270.945 665.783 272.231C666.315 273.518 666.588 274.896 666.587 276.288V308.109C666.584 310.918 665.467 313.61 663.48 315.595C661.494 317.58 658.8 318.695 655.992 318.695V318.695Z" fill="#BFFFB3"/>
<path d="M401.546 350.507C398.734 350.507 396.037 349.389 394.048 347.401C392.06 345.412 390.943 342.715 390.943 339.903V308.082C390.943 306.69 391.217 305.311 391.75 304.025C392.283 302.739 393.064 301.571 394.049 300.587C395.034 299.603 396.203 298.823 397.489 298.291C398.776 297.759 400.154 297.486 401.546 297.487V297.487C402.939 297.486 404.317 297.759 405.604 298.291C406.89 298.823 408.059 299.603 409.044 300.587C410.029 301.571 410.81 302.739 411.343 304.025C411.876 305.311 412.15 306.69 412.15 308.082V339.903C412.15 342.715 411.033 345.412 409.045 347.401C407.056 349.389 404.359 350.507 401.546 350.507V350.507Z" fill="url(#paint20_linear)"/>
<path d="M390.943 308.091C390.943 305.994 391.565 303.944 392.73 302.2C393.895 300.456 395.551 299.097 397.489 298.294C399.426 297.492 401.558 297.282 403.615 297.691C405.672 298.1 407.562 299.11 409.045 300.593C410.528 302.076 411.537 303.966 411.947 306.022C412.356 308.079 412.146 310.211 411.343 312.149C410.541 314.087 409.181 315.743 407.438 316.908C405.694 318.073 403.644 318.695 401.546 318.695C400.154 318.696 398.774 318.423 397.487 317.89C396.2 317.358 395.031 316.577 394.046 315.592C393.061 314.607 392.28 313.438 391.747 312.151C391.215 310.863 390.941 309.484 390.943 308.091V308.091Z" fill="#44FB44"/>
<path d="M390.943 339.903C390.943 337.805 391.565 335.755 392.73 334.012C393.895 332.268 395.551 330.909 397.489 330.106C399.426 329.303 401.558 329.093 403.615 329.503C405.672 329.912 407.562 330.922 409.045 332.405C410.528 333.888 411.537 335.777 411.947 337.834C412.356 339.891 412.146 342.023 411.343 343.961C410.541 345.898 409.181 347.554 407.438 348.719C405.694 349.885 403.644 350.507 401.546 350.507C398.734 350.507 396.037 349.389 394.048 347.401C392.06 345.412 390.943 342.715 390.943 339.903V339.903Z" fill="#44FB44" fill-opacity="0.5"/>
<path d="M401.546 445.922C398.734 445.922 396.037 444.805 394.048 442.816C392.06 440.828 390.943 438.131 390.943 435.318V403.497C390.943 400.685 392.06 397.988 394.048 395.999C396.037 394.011 398.734 392.894 401.546 392.894V392.894C404.359 392.894 407.056 394.011 409.045 395.999C411.033 397.988 412.15 400.685 412.15 403.497V435.318C412.15 438.131 411.033 440.828 409.045 442.816C407.056 444.805 404.359 445.922 401.546 445.922V445.922Z" fill="url(#paint21_linear)"/>
<path d="M390.943 403.516C390.943 401.419 391.565 399.369 392.73 397.625C393.895 395.881 395.551 394.522 397.489 393.719C399.426 392.917 401.558 392.707 403.615 393.116C405.672 393.525 407.562 394.535 409.045 396.018C410.528 397.501 411.537 399.39 411.947 401.447C412.356 403.504 412.146 405.636 411.343 407.574C410.541 409.511 409.181 411.168 407.438 412.333C405.694 413.498 403.644 414.12 401.546 414.12C398.734 414.12 396.037 413.003 394.048 411.014C392.06 409.025 390.943 406.328 390.943 403.516V403.516Z" fill="#BFFFB3"/>
<path d="M390.943 435.319C390.943 433.221 391.565 431.171 392.73 429.428C393.895 427.684 395.551 426.325 397.489 425.522C399.426 424.719 401.558 424.509 403.615 424.919C405.672 425.328 407.562 426.338 409.045 427.821C410.528 429.304 411.537 431.193 411.947 433.25C412.356 435.307 412.146 437.439 411.343 439.377C410.541 441.314 409.181 442.97 407.438 444.135C405.694 445.301 403.644 445.923 401.546 445.923C398.734 445.923 396.037 444.805 394.048 442.817C392.06 440.828 390.943 438.131 390.943 435.319V435.319Z" fill="#BFFFB3" fill-opacity="0.5"/>
<path d="M465.16 382.309C462.348 382.309 459.651 381.192 457.662 379.203C455.674 377.214 454.556 374.517 454.556 371.705V339.884C454.556 337.072 455.674 334.375 457.662 332.386C459.651 330.397 462.348 329.28 465.16 329.28V329.28C467.973 329.28 470.67 330.397 472.658 332.386C474.647 334.375 475.764 337.072 475.764 339.884V371.705C475.764 374.517 474.647 377.214 472.658 379.203C470.67 381.192 467.973 382.309 465.16 382.309V382.309Z" fill="url(#paint22_linear)"/>
<path d="M454.556 339.903C454.556 337.805 455.178 335.755 456.343 334.012C457.509 332.268 459.165 330.909 461.102 330.106C463.04 329.303 465.172 329.093 467.229 329.503C469.286 329.912 471.175 330.922 472.658 332.405C474.141 333.888 475.151 335.777 475.56 337.834C475.97 339.891 475.76 342.023 474.957 343.961C474.154 345.898 472.795 347.554 471.051 348.719C469.308 349.885 467.258 350.507 465.16 350.507C462.348 350.507 459.651 349.389 457.662 347.401C455.674 345.412 454.556 342.715 454.556 339.903Z" fill="#9EE9FF"/>
<path d="M454.556 371.704C454.556 369.607 455.178 367.557 456.343 365.813C457.509 364.069 459.165 362.71 461.102 361.908C463.04 361.105 465.172 360.895 467.229 361.304C469.286 361.713 471.175 362.723 472.658 364.206C474.141 365.689 475.151 367.579 475.56 369.636C475.97 371.693 475.76 373.825 474.957 375.762C474.154 377.7 472.795 379.356 471.051 380.521C469.308 381.686 467.258 382.308 465.16 382.308C462.348 382.308 459.651 381.191 457.662 379.202C455.674 377.214 454.556 374.517 454.556 371.704V371.704Z" fill="#9EE9FF" fill-opacity="0.5"/>
<path d="M306.131 382.309C303.318 382.309 300.621 381.192 298.633 379.203C296.644 377.214 295.527 374.517 295.527 371.705V339.884C295.527 337.072 296.644 334.375 298.633 332.386C300.621 330.397 303.318 329.28 306.131 329.28C308.943 329.28 311.64 330.397 313.629 332.386C315.617 334.375 316.735 337.072 316.735 339.884V371.705C316.735 374.517 315.617 377.214 313.629 379.203C311.64 381.192 308.943 382.309 306.131 382.309V382.309Z" fill="url(#paint23_linear)"/>
<path d="M295.527 339.903C295.527 337.805 296.149 335.755 297.314 334.012C298.479 332.268 300.135 330.909 302.073 330.106C304.01 329.303 306.142 329.093 308.199 329.503C310.256 329.912 312.146 330.922 313.629 332.405C315.112 333.888 316.122 335.777 316.531 337.834C316.94 339.891 316.73 342.023 315.927 343.961C315.125 345.898 313.766 347.554 312.022 348.719C310.278 349.885 308.228 350.507 306.131 350.507C303.318 350.507 300.621 349.389 298.633 347.401C296.644 345.412 295.527 342.715 295.527 339.903Z" fill="#BFFFB3"/>
<path d="M295.527 371.704C295.527 369.607 296.149 367.557 297.314 365.813C298.479 364.069 300.135 362.71 302.073 361.908C304.01 361.105 306.142 360.895 308.199 361.304C310.256 361.713 312.146 362.723 313.629 364.206C315.112 365.689 316.122 367.579 316.531 369.636C316.94 371.693 316.73 373.825 315.927 375.762C315.125 377.7 313.766 379.356 312.022 380.521C310.278 381.686 308.228 382.308 306.131 382.308C303.318 382.308 300.621 381.191 298.633 379.202C296.644 377.214 295.527 374.517 295.527 371.704V371.704Z" fill="#BFFFB3" fill-opacity="0.5"/>
<path d="M592.35 329.299C593.743 329.299 595.122 329.573 596.408 330.106C597.695 330.639 598.864 331.42 599.849 332.405C600.833 333.389 601.614 334.558 602.147 335.845C602.68 337.131 602.954 338.51 602.954 339.903V371.724C602.949 374.533 601.83 377.225 599.842 379.21C597.854 381.194 595.16 382.309 592.35 382.309V382.309C589.538 382.309 586.841 381.192 584.852 379.203C582.864 377.214 581.747 374.517 581.747 371.705V339.884C581.752 337.075 582.871 334.383 584.859 332.398C586.847 330.413 589.541 329.299 592.35 329.299V329.299Z" fill="url(#paint24_linear)"/>
<path d="M602.992 371.704C602.986 373.799 602.361 375.845 601.194 377.584C600.027 379.323 598.371 380.678 596.435 381.477C594.499 382.277 592.37 382.485 590.316 382.076C588.262 381.666 586.375 380.658 584.893 379.177C583.412 377.697 582.402 375.811 581.99 373.757C581.579 371.704 581.786 369.574 582.583 367.638C583.381 365.701 584.734 364.044 586.473 362.876C588.211 361.707 590.256 361.08 592.351 361.072C593.749 361.067 595.134 361.339 596.427 361.871C597.719 362.404 598.894 363.187 599.883 364.175C600.872 365.163 601.656 366.337 602.189 367.629C602.723 368.921 602.996 370.306 602.992 371.704Z" fill="#44FB44"/>
<path d="M602.992 339.903C602.992 341.998 602.371 344.047 601.207 345.79C600.044 347.533 598.39 348.892 596.455 349.696C594.519 350.499 592.389 350.712 590.333 350.306C588.277 349.899 586.388 348.893 584.903 347.414C583.419 345.935 582.406 344.049 581.993 341.994C581.579 339.94 581.784 337.809 582.581 335.871C583.378 333.932 584.731 332.274 586.47 331.104C588.208 329.934 590.255 329.306 592.351 329.299C593.746 329.295 595.128 329.567 596.419 330.098C597.709 330.629 598.882 331.409 599.87 332.394C600.858 333.379 601.643 334.549 602.179 335.838C602.714 337.126 602.991 338.507 602.992 339.903V339.903Z" fill="#44FB44" fill-opacity="0.5"/>
<path d="M465.16 318.694C462.348 318.694 459.651 317.577 457.662 315.589C455.674 313.6 454.556 310.903 454.556 308.091V278.581C454.556 275.769 455.674 273.072 457.662 271.083C459.651 269.095 462.348 267.978 465.16 267.978V267.978C467.973 267.978 470.67 269.095 472.658 271.083C474.647 273.072 475.764 275.769 475.764 278.581V308.091C475.764 310.903 474.647 313.6 472.658 315.589C470.67 317.577 467.973 318.694 465.16 318.694V318.694Z" fill="url(#paint25_linear)"/>
<path opacity="0.5" d="M454.556 278.581C454.556 276.484 455.178 274.434 456.343 272.69C457.509 270.946 459.165 269.587 461.102 268.785C463.04 267.982 465.172 267.772 467.229 268.181C469.286 268.59 471.175 269.6 472.658 271.083C474.141 272.566 475.151 274.456 475.56 276.513C475.97 278.57 475.76 280.702 474.957 282.639C474.154 284.577 472.795 286.233 471.051 287.398C469.308 288.563 467.258 289.185 465.16 289.185C462.348 289.185 459.651 288.068 457.662 286.079C455.674 284.091 454.556 281.394 454.556 278.581Z" fill="#44FB44"/>
<path d="M369.744 268.306C372.555 268.308 375.25 269.426 377.237 271.415C379.223 273.403 380.339 276.099 380.339 278.909V310.73C380.339 313.54 379.223 316.235 377.236 318.222C375.249 320.209 372.554 321.325 369.744 321.325V321.325C368.352 321.326 366.974 321.053 365.687 320.521C364.401 319.989 363.232 319.209 362.247 318.225C361.262 317.241 360.481 316.073 359.948 314.787C359.415 313.501 359.141 312.122 359.141 310.73V278.909C359.141 276.097 360.258 273.4 362.246 271.411C364.235 269.423 366.932 268.306 369.744 268.306Z" fill="url(#paint26_linear)"/>
<path d="M380.339 310.721C380.339 312.819 379.717 314.869 378.551 316.613C377.386 318.357 375.729 319.716 373.791 320.519C371.853 321.321 369.72 321.53 367.663 321.12C365.606 320.711 363.716 319.7 362.234 318.216C360.751 316.732 359.742 314.842 359.334 312.784C358.926 310.726 359.137 308.594 359.941 306.657C360.745 304.719 362.106 303.064 363.851 301.9C365.596 300.736 367.647 300.115 369.744 300.117C371.136 300.117 372.515 300.392 373.801 300.925C375.087 301.458 376.255 302.239 377.239 303.224C378.223 304.208 379.003 305.377 379.535 306.664C380.067 307.95 380.34 309.329 380.339 310.721Z" fill="#44FB44"/>
<path d="M380.339 278.91C380.339 281.007 379.717 283.058 378.551 284.802C377.386 286.546 375.729 287.905 373.791 288.707C371.853 289.509 369.72 289.719 367.663 289.309C365.606 288.899 363.716 287.888 362.234 286.404C360.751 284.92 359.742 283.03 359.334 280.972C358.926 278.915 359.137 276.783 359.941 274.845C360.745 272.908 362.106 271.252 363.851 270.088C365.596 268.924 367.647 268.304 369.744 268.306C371.136 268.306 372.515 268.58 373.801 269.113C375.087 269.646 376.255 270.427 377.239 271.412C378.223 272.397 379.003 273.566 379.535 274.852C380.067 276.139 380.34 277.517 380.339 278.91Z" fill="#44FB44" fill-opacity="0.5"/>
<path d="M496.934 265.685C499.747 265.685 502.444 266.802 504.433 268.79C506.421 270.779 507.538 273.476 507.538 276.288V308.109C507.538 310.922 506.421 313.619 504.433 315.607C502.444 317.596 499.747 318.713 496.934 318.713C495.542 318.713 494.163 318.439 492.877 317.906C491.59 317.373 490.421 316.592 489.436 315.607C488.452 314.623 487.671 313.454 487.138 312.167C486.605 310.881 486.331 309.502 486.331 308.109V276.288C486.331 274.896 486.605 273.517 487.138 272.231C487.671 270.944 488.452 269.775 489.436 268.79C490.421 267.806 491.59 267.025 492.877 266.492C494.163 265.959 495.542 265.685 496.934 265.685Z" fill="#F5F5EF"/>
<path d="M465.16 392.894C467.973 392.894 470.67 394.011 472.658 395.999C474.647 397.988 475.764 400.685 475.764 403.497V435.318C475.764 438.131 474.647 440.828 472.658 442.816C470.67 444.805 467.973 445.922 465.16 445.922V445.922C462.348 445.922 459.651 444.805 457.662 442.816C455.674 440.828 454.556 438.131 454.556 435.318V403.497C454.556 400.685 455.674 397.988 457.662 395.999C459.651 394.011 462.348 392.894 465.16 392.894V392.894Z" fill="#F5F5EF"/>
<path d="M592.35 265.685C593.743 265.685 595.122 265.959 596.408 266.492C597.695 267.025 598.864 267.806 599.849 268.79C600.833 269.775 601.614 270.944 602.147 272.231C602.68 273.517 602.954 274.896 602.954 276.288V308.109C602.949 310.918 601.83 313.611 599.842 315.595C597.854 317.58 595.16 318.695 592.35 318.695C589.538 318.695 586.841 317.577 584.852 315.589C582.864 313.6 581.747 310.903 581.747 308.091V276.27C581.752 273.461 582.871 270.768 584.859 268.784C586.847 266.799 589.541 265.685 592.35 265.685Z" fill="url(#paint27_linear)"/>
<path d="M602.992 308.091C602.994 310.187 602.374 312.236 601.212 313.98C600.05 315.725 598.396 317.085 596.461 317.89C594.526 318.695 592.395 318.909 590.339 318.504C588.282 318.099 586.392 317.093 584.907 315.615C583.421 314.136 582.407 312.25 581.993 310.195C581.579 308.14 581.783 306.009 582.58 304.07C583.376 302.131 584.73 300.472 586.469 299.302C588.208 298.132 590.255 297.504 592.351 297.496C593.745 297.491 595.128 297.762 596.418 298.292C597.708 298.822 598.881 299.601 599.87 300.585C600.858 301.57 601.643 302.739 602.178 304.027C602.714 305.315 602.991 306.696 602.992 308.091V308.091Z" fill="#F5F5EF"/>
<path d="M602.992 276.289C602.992 278.384 602.371 280.433 601.207 282.176C600.044 283.919 598.39 285.278 596.455 286.082C594.519 286.885 592.389 287.097 590.333 286.691C588.277 286.285 586.388 285.279 584.903 283.8C583.419 282.32 582.406 280.435 581.993 278.38C581.579 276.326 581.784 274.195 582.581 272.256C583.378 270.318 584.731 268.66 586.47 267.49C588.208 266.32 590.255 265.692 592.351 265.685C593.746 265.68 595.129 265.95 596.42 266.481C597.711 267.012 598.884 267.792 599.873 268.777C600.862 269.762 601.646 270.933 602.181 272.222C602.716 273.511 602.992 274.893 602.992 276.289Z" fill="#F5F5EF" fill-opacity="0.5"/>
<path d="M592.351 442.31C562.186 442.31 552.715 375.14 541.746 297.366C536.664 261.361 531.451 224.121 523.964 196.643C516.27 168.173 507.117 153.741 496.822 153.741C470.327 153.741 458.066 216.11 447.219 271.141C436.119 327.614 426.536 376.384 401.406 376.384C385.936 376.384 377.737 364.115 369.052 351.115C357.1 332.996 343.399 312.527 306.131 312.527C304.89 312.527 303.699 312.034 302.822 311.157C301.944 310.279 301.451 309.089 301.451 307.848C301.451 306.607 301.944 305.416 302.822 304.539C303.699 303.661 304.89 303.168 306.131 303.168C348.396 303.168 364.915 327.876 376.97 345.921C385.72 359.023 391.589 367.025 401.547 367.025C418.973 367.025 429.175 315.129 438.178 269.335C450.251 207.902 462.736 144.382 496.935 144.382C517.253 144.382 527.286 172.815 533.061 194.2C540.632 222.278 545.929 259.77 551.049 296.065C555.934 330.693 560.988 366.52 567.895 392.604C574.989 419.371 583.225 432.951 592.388 432.951C600.362 432.951 604.854 425.641 612.098 412.716C623.46 392.463 639.024 364.723 686.615 364.723H996.71C997.951 364.723 999.142 365.216 1000.02 366.094C1000.9 366.971 1001.39 368.161 1001.39 369.403C1001.39 370.644 1000.9 371.834 1000.02 372.711C999.142 373.589 997.951 374.082 996.71 374.082H686.615C644.499 374.082 631.06 398.041 620.259 417.293C613.044 430.162 606.23 442.31 592.351 442.31Z" fill="url(#paint28_linear)"/>
<path fill-rule="evenodd" clip-rule="evenodd" d="M713.663 555.039C865.628 555.039 988.821 431.847 988.821 279.882C988.821 127.917 865.628 4.72447 713.663 4.72447C561.698 4.72447 438.506 127.917 438.506 279.882C438.506 431.847 561.698 555.039 713.663 555.039ZM713.663 559.719C868.213 559.719 993.5 434.431 993.5 279.882C993.5 125.332 868.213 0.0449219 713.663 0.0449219C559.113 0.0449219 433.826 125.332 433.826 279.882C433.826 434.431 559.113 559.719 713.663 559.719Z" fill="url(#paint29_linear)"/>
<path fill-rule="evenodd" clip-rule="evenodd" d="M280.337 555.039C128.372 555.039 5.17949 431.847 5.17949 279.882C5.17949 127.917 128.372 4.72447 280.337 4.72447C432.302 4.72447 555.494 127.917 555.494 279.882C555.494 431.847 432.302 555.039 280.337 555.039ZM280.337 559.719C125.787 559.719 0.499941 434.431 0.499941 279.882C0.499941 125.332 125.787 0.0449219 280.337 0.0449219C434.887 0.0449219 560.174 125.332 560.174 279.882C560.174 434.431 434.887 559.719 280.337 559.719Z" fill="url(#paint30_linear)"/>
</g>
<defs>
<radialGradient id="paint0_radial" cx="0" cy="0" r="1" gradientUnits="userSpaceOnUse" gradientTransform="translate(99.1731 261.258) scale(242.831 335.107)">
<stop offset="0.25" stop-color="#B3B3B3" stop-opacity="0"/>
<stop offset="0.86" stop-color="#646464" stop-opacity="0.06"/>
<stop offset="1" stop-color="#333333" stop-opacity="0.1"/>
</radialGradient>
<linearGradient id="paint1_linear" x1="141.738" y1="277.655" x2="298.774" y2="277.655" gradientUnits="userSpaceOnUse">
<stop offset="0.39" stop-color="#9E9EA8"/>
<stop offset="0.53" stop-color="#7F7F87"/>
<stop offset="0.83" stop-color="#313134"/>
<stop offset="1" stop-color="#030303"/>
</linearGradient>
<linearGradient id="paint2_linear" x1="213.738" y1="135.163" x2="213.738" y2="-23.3523" gradientUnits="userSpaceOnUse">
<stop stop-color="#6F6F75"/>
<stop offset="0.59" stop-color="#525254"/>
<stop offset="1" stop-color="#3B3B3B"/>
</linearGradient>
<linearGradient id="paint3_linear" x1="154.7" y1="547.777" x2="154.7" y2="412.435" gradientUnits="userSpaceOnUse">
<stop stop-color="#3B3B3B"/>
<stop offset="0.68" stop-color="#82828A"/>
<stop offset="1" stop-color="#A0A0AB"/>
</linearGradient>
<linearGradient id="paint4_linear" x1="679.138" y1="274.294" x2="697.528" y2="274.294" gradientUnits="userSpaceOnUse">
<stop stop-color="#7C7C85"/>
<stop offset="1" stop-color="#6F6F7A"/>
</linearGradient>
<linearGradient id="paint5_linear" x1="704.838" y1="293.977" x2="704.838" y2="232.703" gradientUnits="userSpaceOnUse">
<stop stop-color="#888891"/>
<stop offset="0.49" stop-color="#686870"/>
<stop offset="1" stop-color="#43434A"/>
</linearGradient>
<linearGradient id="paint6_linear" x1="666.802" y1="321.783" x2="758.84" y2="244.542" gradientUnits="userSpaceOnUse">
<stop stop-color="#65656E"/>
<stop offset="0.67" stop-color="#4A4A4D"/>
<stop offset="1" stop-color="#3B3B3B"/>
</linearGradient>
<linearGradient id="paint7_linear" x1="796.023" y1="315.802" x2="796.023" y2="288.427" gradientUnits="userSpaceOnUse">
<stop offset="0.24" stop-color="#43434A"/>
<stop offset="0.96" stop-color="#43434A"/>
</linearGradient>
<linearGradient id="paint8_linear" x1="719.288" y1="298.319" x2="712.662" y2="318.207" gradientUnits="userSpaceOnUse">
<stop stop-color="#717178"/>
<stop offset="1" stop-color="#7E7E88"/>
</linearGradient>
<linearGradient id="paint9_linear" x1="712.737" y1="355.438" x2="712.737" y2="322.999" gradientUnits="userSpaceOnUse">
<stop offset="0.24" stop-color="#43434A"/>
<stop offset="0.85" stop-color="#43434A"/>
</linearGradient>
<linearGradient id="paint10_linear" x1="665.062" y1="338.245" x2="767.647" y2="252.169" gradientUnits="userSpaceOnUse">
<stop offset="0.47" stop-color="#43434A"/>
<stop offset="0.65" stop-color="#4D4D55"/>
<stop offset="0.98" stop-color="#676771"/>
<stop offset="1" stop-color="#696973"/>
</linearGradient>
<linearGradient id="paint11_linear" x1="689.91" y1="297.608" x2="768.358" y2="252.319" gradientUnits="userSpaceOnUse">
<stop stop-color="#82828C"/>
<stop offset="0.44" stop-color="#65656B"/>
<stop offset="1" stop-color="#3B3B3B"/>
</linearGradient>
<linearGradient id="paint12_linear" x1="937.252" y1="222.473" x2="1019.2" y2="222.473" gradientUnits="userSpaceOnUse">
<stop stop-color="#43434A"/>
<stop offset="0.56" stop-color="#5B5B64"/>
<stop offset="1" stop-color="#696973"/>
</linearGradient>
<linearGradient id="paint13_linear" x1="135431" y1="7273.91" x2="159612" y2="7273.91" gradientUnits="userSpaceOnUse">
<stop stop-color="#43434A"/>
<stop offset="0.56" stop-color="#5B5B64"/>
<stop offset="1" stop-color="#696973"/>
</linearGradient>
<linearGradient id="paint14_linear" x1="560.576" y1="233.882" x2="560.576" y2="286.892" gradientUnits="userSpaceOnUse">
<stop stop-color="#00D6FF" stop-opacity="0.61"/>
<stop offset="1" stop-color="#00D6FF" stop-opacity="0"/>
</linearGradient>
<linearGradient id="paint15_linear" x1="528.774" y1="350.506" x2="528.774" y2="297.496" gradientUnits="userSpaceOnUse">
<stop stop-color="#8AFCE9" stop-opacity="0.56"/>
<stop offset="1" stop-color="#8AFCE9" stop-opacity="0"/>
</linearGradient>
<linearGradient id="paint16_linear" x1="624.359" y1="297.487" x2="624.359" y2="350.507" gradientUnits="userSpaceOnUse">
<stop stop-color="#40F6CE" stop-opacity="0.56"/>
<stop offset="1" stop-color="#40F6CE" stop-opacity="0"/>
</linearGradient>
<linearGradient id="paint17_linear" x1="496.934" y1="255.081" x2="496.934" y2="202.071" gradientUnits="userSpaceOnUse">
<stop stop-color="#A5FEF1" stop-opacity="0.72"/>
<stop offset="1" stop-color="#A5FEF1" stop-opacity="0"/>
</linearGradient>
<linearGradient id="paint18_linear" x1="306.131" y1="445.922" x2="306.131" y2="392.912" gradientUnits="userSpaceOnUse">
<stop stop-color="#F5F5EF" stop-opacity="0.72"/>
<stop offset="1" stop-color="#F5F5EF" stop-opacity="0"/>
</linearGradient>
<linearGradient id="paint19_linear" x1="306.131" y1="286.893" x2="306.131" y2="233.883" gradientUnits="userSpaceOnUse">
<stop stop-color="#40F6CE" stop-opacity="0.72"/>
<stop offset="1" stop-color="#40F6CE" stop-opacity="0"/>
</linearGradient>
<linearGradient id="paint20_linear" x1="401.546" y1="297.487" x2="401.546" y2="350.507" gradientUnits="userSpaceOnUse">
<stop stop-color="#44FB44" stop-opacity="0.56"/>
<stop offset="1" stop-color="#44FB44" stop-opacity="0"/>
</linearGradient>
<linearGradient id="paint21_linear" x1="401.546" y1="392.912" x2="401.546" y2="445.922" gradientUnits="userSpaceOnUse">
<stop stop-color="#BFFFB3" stop-opacity="0.67"/>
<stop offset="1" stop-color="#BFFFB3" stop-opacity="0"/>
</linearGradient>
<linearGradient id="paint22_linear" x1="465.16" y1="329.299" x2="465.16" y2="382.309" gradientUnits="userSpaceOnUse">
<stop stop-color="#9EE9FF" stop-opacity="0.67"/>
<stop offset="1" stop-color="#9EE9FF" stop-opacity="0"/>
</linearGradient>
<linearGradient id="paint23_linear" x1="306.131" y1="329.299" x2="306.131" y2="382.309" gradientUnits="userSpaceOnUse">
<stop stop-color="#BFFFB3" stop-opacity="0.56"/>
<stop offset="1" stop-color="#BFFFB3" stop-opacity="0"/>
</linearGradient>
<linearGradient id="paint24_linear" x1="146946" y1="-397107" x2="146946" y2="-400110" gradientUnits="userSpaceOnUse">
<stop stop-color="#44FB44" stop-opacity="0.56"/>
<stop offset="1" stop-color="#44FB44" stop-opacity="0"/>
</linearGradient>
<linearGradient id="paint25_linear" x1="10975.7" y1="-40575.4" x2="10975.7" y2="-43323.8" gradientUnits="userSpaceOnUse">
<stop stop-color="#44FB44" stop-opacity="0.56"/>
<stop offset="1" stop-color="#44FB44" stop-opacity="0"/>
</linearGradient>
<linearGradient id="paint26_linear" x1="142058" y1="-400694" x2="142058" y2="-403697" gradientUnits="userSpaceOnUse">
<stop stop-color="#44FB44" stop-opacity="0.56"/>
<stop offset="1" stop-color="#44FB44" stop-opacity="0"/>
</linearGradient>
<linearGradient id="paint27_linear" x1="13985.9" y1="-45296.9" x2="13985.9" y2="-42294.4" gradientUnits="userSpaceOnUse">
<stop stop-color="#F5F5EF" stop-opacity="0.72"/>
<stop offset="1" stop-color="#F5F5EF" stop-opacity="0"/>
</linearGradient>
<linearGradient id="paint28_linear" x1="301.451" y1="293.341" x2="1001.39" y2="293.341" gradientUnits="userSpaceOnUse">
<stop stop-color="#BFFFB3" stop-opacity="0"/>
<stop offset="0.1" stop-color="#69FC66" stop-opacity="0.7"/>
<stop offset="0.15" stop-color="#44FB44"/>
<stop offset="0.18" stop-color="#31F431"/>
<stop offset="0.23" stop-color="#16EA16"/>
<stop offset="0.28" stop-color="#06E406"/>
<stop offset="0.31" stop-color="#00E200"/>
<stop offset="0.57" stop-color="#44FB44"/>
<stop offset="0.6" stop-color="#5AFC58" stop-opacity="0.82"/>
<stop offset="0.64" stop-color="#71FC6D" stop-opacity="0.63"/>
<stop offset="0.68" stop-color="#86FD80" stop-opacity="0.46"/>
<stop offset="0.72" stop-color="#98FE8F" stop-opacity="0.32"/>
<stop offset="0.77" stop-color="#A6FE9C" stop-opacity="0.2"/>
<stop offset="0.81" stop-color="#B1FFA6" stop-opacity="0.11"/>
<stop offset="0.87" stop-color="#B9FFAE" stop-opacity="0.05"/>
<stop offset="0.92" stop-color="#BEFFB2" stop-opacity="0.01"/>
<stop offset="1" stop-color="#BFFFB3" stop-opacity="0"/>
</linearGradient>
<linearGradient id="paint29_linear" x1="993.5" y1="279.882" x2="404.813" y2="213.432" gradientUnits="userSpaceOnUse">
<stop offset="0.68343" stop-color="#E9E9E2"/>
<stop offset="1" stop-color="#E9E9E2" stop-opacity="0"/>
</linearGradient>
<linearGradient id="paint30_linear" x1="0.499946" y1="279.882" x2="589.187" y2="213.432" gradientUnits="userSpaceOnUse">
<stop offset="0.68343" stop-color="#E9E9E2"/>
<stop offset="1" stop-color="#E9E9E2" stop-opacity="0"/>
</linearGradient>
<clipPath id="clip0">
<rect width="993" height="559.674" fill="white" transform="translate(0.5 0.0449219)"/>
</clipPath>
</defs>
</svg>
