<svg width="340" height="340" viewBox="0 0 340 340" fill="none" xmlns="http://www.w3.org/2000/svg">
<path d="M275.238 238.809C268.519 238.809 263.095 233.386 263.095 226.667C263.095 175.343 221.324 133.571 170 133.571C118.676 133.571 76.9049 175.343 76.9049 226.667C76.9049 233.386 71.481 238.809 64.762 238.809C58.043 238.809 52.6191 233.386 52.6191 226.667C52.6191 161.905 105.238 109.286 170 109.286C234.762 109.286 287.381 161.905 287.381 226.667C287.381 233.386 281.957 238.809 275.238 238.809Z" fill="url(#paint0_linear)"/>
<path d="M307.619 234.762C303.167 234.762 299.524 231.119 299.524 226.666C299.524 198.414 290.538 171.538 273.619 148.952C261.8 133.247 246.338 120.133 228.852 111.228C210.557 101.838 190.724 97.1426 170 97.1426C98.5999 97.1426 40.4761 155.266 40.4761 226.666C40.4761 231.119 36.8333 234.762 32.3809 234.762C27.9285 234.762 24.2856 231.119 24.2856 226.666C24.2856 146.281 89.6142 80.9521 170 80.9521C193.314 80.9521 215.576 86.295 236.219 96.8188C255.89 106.857 273.295 121.509 286.571 139.238C305.595 164.576 315.714 194.852 315.714 226.666C315.714 231.119 312.071 234.762 307.619 234.762Z" fill="url(#paint1_linear)"/>
<path d="M275.238 238.81C281.944 238.81 287.381 233.373 287.381 226.667C287.381 219.96 281.944 214.524 275.238 214.524C268.532 214.524 263.095 219.96 263.095 226.667C263.095 233.373 268.532 238.81 275.238 238.81Z" fill="#FF0064"/>
<path d="M307.619 234.762C312.09 234.762 315.714 231.137 315.714 226.667C315.714 222.196 312.09 218.571 307.619 218.571C303.148 218.571 299.524 222.196 299.524 226.667C299.524 231.137 303.148 234.762 307.619 234.762Z" fill="#00E200"/>
<path d="M170 238.81C167.733 238.81 165.548 238.162 163.524 236.948C157.857 233.386 156.238 225.857 159.8 220.191L216.467 131.143C220.029 125.476 227.557 123.857 233.224 127.419C238.89 130.981 240.51 138.51 236.948 144.176L180.281 233.224C177.933 236.786 173.967 238.81 170 238.81Z" fill="url(#paint2_linear)"/>
<path d="M226.667 149.762C233.373 149.762 238.81 144.325 238.81 137.619C238.81 130.913 233.373 125.476 226.667 125.476C219.96 125.476 214.524 130.913 214.524 137.619C214.524 144.325 219.96 149.762 226.667 149.762Z" fill="#FF0064"/>
<path d="M170 238.81C176.706 238.81 182.143 233.373 182.143 226.667C182.143 219.96 176.706 214.524 170 214.524C163.293 214.524 157.857 219.96 157.857 226.667C157.857 233.373 163.293 238.81 170 238.81Z" fill="#FF0064"/>
<defs>
<linearGradient id="paint0_linear" x1="83.5841" y1="143.517" x2="269.088" y2="259.433" gradientUnits="userSpaceOnUse">
<stop stop-color="#FF4B7D"/>
<stop offset="0.0901231" stop-color="#F84577"/>
<stop offset="0.2201" stop-color="#E53668"/>
<stop offset="0.3735" stop-color="#C61C4F"/>
<stop offset="0.5103" stop-color="#A40034"/>
<stop offset="0.5977" stop-color="#AE083C"/>
<stop offset="0.7461" stop-color="#C91E51"/>
<stop offset="0.9364" stop-color="#F44274"/>
<stop offset="0.9798" stop-color="#FF4B7D"/>
</linearGradient>
<linearGradient id="paint1_linear" x1="24.2897" y1="157.857" x2="315.718" y2="157.857" gradientUnits="userSpaceOnUse">
<stop stop-color="#00B100"/>
<stop offset="1" stop-color="#50FB44"/>
</linearGradient>
<linearGradient id="paint2_linear" x1="150.482" y1="222.298" x2="246.192" y2="141.988" gradientUnits="userSpaceOnUse">
<stop stop-color="#F5F5EF"/>
<stop offset="1" stop-color="#FF4B7D"/>
</linearGradient>
</defs>
</svg>
