<svg width="340" height="340" viewBox="0 0 340 340" fill="none" xmlns="http://www.w3.org/2000/svg">
<path d="M171.376 223.267C167.41 223.267 163.929 220.352 163.362 216.305C160.691 196.552 148.953 168.867 108.638 149.519C104.591 147.576 102.891 142.719 104.833 138.752C106.776 134.705 111.634 133.005 115.6 134.948C162.391 157.452 176.071 190.481 179.31 214.2C179.876 218.652 176.8 222.7 172.348 223.348C172.105 223.186 171.7 223.267 171.376 223.267Z" fill="url(#paint0_linear)"/>
<path d="M168.867 299.524C162.957 299.524 157.776 295.233 156.886 289.243C156.724 288.271 153.243 264.795 155.591 235.248C158.91 194.448 171.376 163.038 192.667 141.748C197.443 136.971 205.133 136.971 209.829 141.748C214.605 146.524 214.605 154.214 209.829 158.91C168.462 200.276 180.767 284.71 180.929 285.6C181.9 292.238 177.367 298.391 170.729 299.443C170.081 299.443 169.433 299.524 168.867 299.524Z" fill="url(#paint1_linear)"/>
<path d="M112.119 145.957C111.715 145.957 111.31 145.876 110.905 145.795L65.167 131.871C63.0622 131.224 61.8481 128.957 62.4957 126.852C63.1434 124.747 65.4102 123.533 67.5149 124.181L113.253 138.105C115.358 138.752 116.572 141.019 115.924 143.124C115.439 144.824 113.819 145.957 112.119 145.957Z" fill="url(#paint2_linear)"/>
<path d="M80.2242 167.41C75.1242 167.41 69.6195 166.6 63.71 164.819C28.7386 154.133 11.1721 118.272 10.4435 116.734C8.50063 112.767 10.2006 107.991 14.0863 105.967C15.6244 105.238 51.8911 87.4287 86.5387 98.0335C117.139 107.343 121.915 131.548 120.134 143.124C119.972 144.095 119.648 145.067 119.162 145.876C114.386 154.376 100.948 167.41 80.2242 167.41ZM68.4051 149.357C79.2527 152.676 88.7244 151.705 96.5767 146.443C100.462 143.853 102.972 140.857 104.186 139.157C104.267 134.138 102.729 119.891 81.7622 113.576C61.9289 107.505 40.5576 113.172 29.3052 117.219C35.7814 126.853 48.9765 143.367 68.4051 149.357Z" fill="#00C800"/>
<path d="M70.4128 128.225C70.5176 125.992 68.7924 124.097 66.5594 123.992C64.3264 123.887 62.4313 125.613 62.3265 127.846C62.2217 130.078 63.9469 131.974 66.1799 132.078C68.4129 132.183 70.308 130.458 70.4128 128.225Z" fill="#B4FF82"/>
<path d="M120.13 142.362C120.344 137.807 116.824 133.94 112.269 133.727C107.714 133.513 103.847 137.032 103.634 141.588C103.42 146.143 106.939 150.009 111.495 150.223C116.05 150.437 119.916 146.917 120.13 142.362Z" fill="#B4FF82"/>
<path d="M168.867 299.929C175.573 299.929 181.01 294.492 181.01 287.786C181.01 281.08 175.573 275.643 168.867 275.643C162.161 275.643 156.724 281.08 156.724 287.786C156.724 294.492 162.161 299.929 168.867 299.929Z" fill="#6C00A0"/>
<path d="M201.167 154.295C199.872 154.295 198.577 153.648 197.848 152.514C196.634 150.652 197.119 148.143 198.9 146.929L265.686 101.838C267.548 100.624 270.057 101.11 271.272 102.891C272.486 104.752 272 107.262 270.219 108.476L203.434 153.567C202.705 154.052 201.976 154.295 201.167 154.295Z" fill="url(#paint3_linear)"/>
<path d="M237.515 174.695C230.472 174.695 224.157 173.562 218.896 172.105C204.081 167.976 194.529 160.448 193.557 159.557C191.776 158.1 190.4 156.157 189.672 153.89C189.267 152.595 185.705 141.019 187.243 125.719C188.7 111.147 195.338 90.5046 218.167 74.8808C259.048 46.9523 315.067 60.3903 317.414 60.957C323.405 62.4141 327.372 68.1618 326.562 74.3141C326.238 76.7427 318.386 133.814 277.505 161.743C263.176 171.619 249.334 174.695 237.515 174.695ZM211.934 142.962C219.624 147.738 240.591 157.695 263.824 141.828C286.005 126.69 296.043 98.5189 300.091 82.7332C283.9 80.7904 254.029 79.8999 231.848 95.038C208.696 110.824 210.234 133.976 211.934 142.962Z" fill="#00C800"/>
<path d="M211.79 158.858C216.898 153.66 216.824 145.305 211.626 140.198C206.428 135.09 198.073 135.163 192.966 140.361C187.858 145.559 187.931 153.914 193.129 159.022C198.327 164.13 206.682 164.056 211.79 158.858Z" fill="#B4FF82"/>
<path d="M270.849 107.874C272.415 106.279 272.393 103.716 270.798 102.15C269.204 100.583 266.641 100.605 265.074 102.2C263.507 103.794 263.53 106.357 265.124 107.924C266.719 109.491 269.282 109.468 270.849 107.874Z" fill="#B4FF82"/>
<defs>
<linearGradient id="paint0_linear" x1="184.712" y1="186.191" x2="98.8638" y2="171.054" gradientUnits="userSpaceOnUse">
<stop stop-color="#D740FF"/>
<stop offset="1" stop-color="#6C00A0"/>
</linearGradient>
<linearGradient id="paint1_linear" x1="165.267" y1="299.066" x2="193.906" y2="136.644" gradientUnits="userSpaceOnUse">
<stop stop-color="#D740FF"/>
<stop offset="1" stop-color="#6C00A0"/>
</linearGradient>
<linearGradient id="paint2_linear" x1="63.1453" y1="125.882" x2="115.757" y2="144.53" gradientUnits="userSpaceOnUse">
<stop stop-color="#50FB44"/>
<stop offset="1" stop-color="#00C800"/>
</linearGradient>
<linearGradient id="paint3_linear" x1="280.347" y1="96.5951" x2="257.673" y2="77.3239" gradientUnits="userSpaceOnUse">
<stop stop-color="#50FB44"/>
<stop offset="1" stop-color="#00C800"/>
</linearGradient>
</defs>
</svg>
