<svg width="340" height="340" viewBox="0 0 340 340" fill="none" xmlns="http://www.w3.org/2000/svg">
<path d="M161.905 275.481C159.8 275.481 157.776 274.671 156.157 273.133C121.671 238.647 121.428 196.309 121.428 194.528C121.428 167.652 143.205 145.714 170 145.714C196.795 145.714 218.571 167.652 218.571 194.528C218.571 211.447 234.033 226.909 250.952 226.909C261.719 226.909 270.057 223.185 275.966 215.819C280.581 209.99 283.333 202.057 283.333 194.528C283.333 154.133 263.419 129.443 246.743 115.843C225.857 98.8426 197.928 89.0474 170 89.0474C105.966 89.0474 53.9141 141.262 53.9141 205.376C53.9141 209.828 50.2713 213.471 45.8189 213.471C41.3665 213.471 37.7236 209.828 37.7236 205.376C37.7236 132.276 97.0617 72.8569 170 72.8569C201.571 72.8569 233.305 83.9474 257.024 103.295C276.452 119.081 299.524 147.819 299.524 194.528C299.524 205.781 295.557 217.195 288.595 225.938C282.362 233.79 270.786 243.1 250.952 243.1C225.047 243.1 202.381 220.433 202.381 194.528C202.381 176.557 187.89 161.905 170 161.905C152.109 161.905 137.619 176.557 137.619 194.528C137.619 194.933 138.024 232.09 167.652 261.638C170.809 264.795 170.809 269.895 167.652 273.052C166.033 274.671 164.009 275.481 161.905 275.481Z" fill="url(#paint0_linear)"/>
<path d="M24.8525 136.486C23.5573 136.486 22.2621 136.162 21.0478 135.514C17.0811 133.409 15.543 128.552 17.6478 124.586C31.4906 98.357 51.8097 76.0951 76.5002 59.9856C101.838 43.4713 131.305 33.9999 161.662 32.5428C164.414 32.3809 167.248 32.3809 170 32.3809C174.453 32.3809 178.095 36.0237 178.095 40.4761C178.095 44.9285 174.453 48.5713 170 48.5713C167.491 48.5713 164.981 48.6523 162.472 48.7332C135.029 50.0285 108.314 58.6094 85.324 73.5856C62.9811 88.157 44.524 108.395 31.9764 132.195C30.5192 134.948 27.6859 136.486 24.8525 136.486Z" fill="url(#paint1_linear)"/>
<path d="M105.805 262.933C103.457 262.933 101.109 261.881 99.4902 259.938C86.5379 243.829 79.4141 223.51 79.4141 202.786C79.4141 178.338 88.8045 155.429 105.805 138.186C122.885 120.862 145.714 111.31 170.081 111.31C212.581 111.31 250.224 141.181 259.695 182.386C260.343 185.3 260.909 188.295 261.314 191.291C261.881 195.743 258.724 199.791 254.271 200.357C249.819 200.924 245.771 197.767 245.205 193.314C244.881 190.886 244.476 188.376 243.909 186.029C236.138 152.11 205.052 127.581 170.081 127.581C150.085 127.581 131.385 135.433 117.381 149.681C103.376 163.929 95.6855 182.791 95.6855 202.948C95.6855 220.271 101.433 236.543 112.2 249.981C115.033 253.462 114.466 258.562 110.985 261.395C109.366 262.367 107.585 262.933 105.805 262.933Z" fill="url(#paint2_linear)"/>
<path d="M218.571 275.238C217.357 275.238 216.143 274.995 214.929 274.348C193.638 263.743 161.905 233.629 161.905 194.286C161.905 189.833 165.548 186.19 170 186.19C174.452 186.19 178.095 189.833 178.095 194.286C178.095 212.662 187 227.557 194.529 236.786C203.838 248.281 214.929 256.295 222.214 259.938C226.181 261.962 227.8 266.819 225.857 270.786C224.4 273.619 221.567 275.238 218.571 275.238Z" fill="url(#paint3_linear)"/>
<path d="M162.067 275.481C166.538 275.481 170.162 271.857 170.162 267.386C170.162 262.915 166.538 259.291 162.067 259.291C157.596 259.291 153.972 262.915 153.972 267.386C153.972 271.857 157.596 275.481 162.067 275.481Z" fill="#00B6FF"/>
<path d="M170 202.381C174.471 202.381 178.095 198.757 178.095 194.286C178.095 189.815 174.471 186.19 170 186.19C165.529 186.19 161.905 189.815 161.905 194.286C161.905 198.757 165.529 202.381 170 202.381Z" fill="#87FF64"/>
<path d="M253.219 202.381C257.69 202.381 261.314 198.757 261.314 194.286C261.314 189.815 257.69 186.19 253.219 186.19C248.748 186.19 245.124 189.815 245.124 194.286C245.124 198.757 248.748 202.381 253.219 202.381Z" fill="#00E200"/>
<path d="M316.281 136.486C313.367 136.486 310.533 134.947 309.076 132.195C285.843 88.157 242.533 57.557 193.072 50.2713C188.619 49.6237 185.624 45.4951 186.272 41.0427C186.919 36.5903 191.048 33.5951 195.5 34.2427C249.981 42.257 297.824 76.0951 323.486 124.667C325.591 128.633 324.053 133.49 320.086 135.595C318.791 136.243 317.576 136.486 316.281 136.486Z" fill="url(#paint4_linear)"/>
<path d="M316.281 136.486C320.752 136.486 324.376 132.862 324.376 128.391C324.376 123.92 320.752 120.295 316.281 120.295C311.81 120.295 308.186 123.92 308.186 128.391C308.186 132.862 311.81 136.486 316.281 136.486Z" fill="#00B6FF"/>
<path d="M170 48.5713C174.471 48.5713 178.095 44.947 178.095 40.4761C178.095 36.0052 174.471 32.3809 170 32.3809C165.529 32.3809 161.905 36.0052 161.905 40.4761C161.905 44.947 165.529 48.5713 170 48.5713Z" fill="#50FB44"/>
<defs>
<linearGradient id="paint0_linear" x1="56.795" y1="240.606" x2="273.11" y2="115.717" gradientUnits="userSpaceOnUse">
<stop offset="0.1066" stop-color="#0053AE"/>
<stop offset="0.1905" stop-color="#005DBA"/>
<stop offset="0.4766" stop-color="#007AE0"/>
<stop offset="0.7074" stop-color="#008CF7"/>
<stop offset="0.8528" stop-color="#0093FF"/>
</linearGradient>
<linearGradient id="paint1_linear" x1="16.7242" y1="84.4584" x2="178.095" y2="84.4584" gradientUnits="userSpaceOnUse">
<stop stop-color="#00B100"/>
<stop offset="1" stop-color="#00C800"/>
</linearGradient>
<linearGradient id="paint2_linear" x1="139.14" y1="275.634" x2="197.455" y2="115.413" gradientUnits="userSpaceOnUse">
<stop offset="0.1624" stop-color="#00B100"/>
<stop offset="1" stop-color="#00C800"/>
</linearGradient>
<linearGradient id="paint3_linear" x1="164.43" y1="188.153" x2="216.217" y2="277.851" gradientUnits="userSpaceOnUse">
<stop stop-color="#00C800"/>
<stop offset="0.8832" stop-color="#00B100"/>
</linearGradient>
<linearGradient id="paint4_linear" x1="195.96" y1="27.6777" x2="322.364" y2="133.743" gradientUnits="userSpaceOnUse">
<stop stop-color="#0053AE"/>
<stop offset="0.1702" stop-color="#005AB7"/>
<stop offset="0.4482" stop-color="#006DCF"/>
<stop offset="0.7976" stop-color="#008DF7"/>
<stop offset="0.8613" stop-color="#0093FF"/>
</linearGradient>
</defs>
</svg>
