<svg width="96" height="61" viewBox="0 0 96 61" fill="none" xmlns="http://www.w3.org/2000/svg">
<path d="M22.4841 30.4606C22.4743 29.4434 22.6682 28.4346 23.0545 27.4937C23.4407 26.5527 24.0114 25.6985 24.7329 24.9816C25.4545 24.2646 26.3122 23.6993 27.2557 23.3191C28.1991 22.9389 29.2091 22.7514 30.2262 22.7676C34.4717 22.7676 37.8034 26.2642 37.7803 30.6572C37.782 31.6712 37.5822 32.6753 37.1924 33.6114C36.8026 34.5474 36.2306 35.3966 35.5096 36.1095C34.7887 36.8225 33.9332 37.385 32.9929 37.7644C32.0526 38.1438 31.0463 38.3324 30.0324 38.3194C29.0185 38.3063 28.0174 38.0919 27.0872 37.6885C26.1569 37.285 25.3162 36.7007 24.6138 35.9694C23.9114 35.2382 23.3614 34.3746 22.9958 33.4288C22.6302 32.4831 22.4563 31.4741 22.4841 30.4606ZM26.6689 30.4808C26.6689 32.5689 28.3058 34.3649 30.1741 34.3128C31.973 34.2636 33.3959 32.7627 33.5665 30.7382C33.7198 28.8988 32.4762 27.0971 30.8162 26.7587C28.6384 26.3133 26.6747 28.0746 26.6573 30.4837L26.6689 30.4808Z" fill="#FDFDFC"/>
<path d="M50.6267 38.0249H46.6472V32.53H42.5462V37.9787H38.5146V23.2522H42.4999V28.3365H46.6125V23.2291H50.6324L50.6267 38.0249Z" fill="#FDFDFC"/>
<path d="M25.5008 38.0402C23.7135 38.0402 22.0997 38.0604 20.4859 38.02C20.1967 37.9707 19.9354 37.8174 19.7513 37.589C18.3805 36.0215 17.0299 34.4367 15.578 32.739V37.9939H11.5725V23.2299H15.5375V27.62C16.7406 26.2347 17.8281 25.0172 18.8634 23.7736C19.0149 23.5675 19.2168 23.404 19.4498 23.2986C19.6828 23.1933 19.9391 23.1497 20.1938 23.172C21.6398 23.2154 23.0859 23.1865 24.6563 23.1865C22.6492 25.6072 20.7317 27.9179 18.8027 30.2489L25.5008 38.0402Z" fill="#FDFDFC"/>
<path d="M70.3619 23.2297C72.3459 23.2297 74.3096 23.0648 76.23 23.273C78.2544 23.4899 79.6715 24.7509 80.2442 26.7435C80.7995 28.6754 80.0099 30.214 78.5986 31.5097C78.3701 31.715 78.1214 31.8972 77.8409 32.1257L82.0373 38.0342C80.545 38.0342 79.1452 38.0487 77.7367 38.0168C77.5864 38.0168 77.4186 37.7623 77.3 37.6004C76.337 36.2874 75.3855 34.9686 74.3096 33.4879V38.0082H70.3619V23.2297ZM74.3241 29.4621C75.2206 29.4621 76.1201 29.6963 76.6725 28.7767C76.8233 28.5459 76.898 28.2736 76.8861 27.9981C76.8741 27.7227 76.7762 27.4579 76.6059 27.241C76.0131 26.4196 75.1599 26.6307 74.3241 26.6625V29.4621Z" fill="#FDFDFC"/>
<path d="M69.0121 28.9207V32.2899H65.3507V34.5458H69.3996V37.9787H61.2035V23.2291H69.3505V26.5954H65.3536V28.9091L69.0121 28.9207Z" fill="#FDFDFC"/>
<path d="M60.2751 34.219C60.2953 34.4359 60.3156 34.5747 60.3185 34.7106C60.3185 35.798 60.3185 36.8854 60.3185 38.0047H51.7463V23.2291H55.7432V34.219H60.2751Z" fill="#FDFDFC"/>
<path d="M83.8822 38.5027C83.7048 38.5107 83.5276 38.4813 83.3623 38.4165C83.197 38.3516 83.0471 38.2527 82.9225 38.1261C82.7978 37.9996 82.7012 37.8483 82.6388 37.6819C82.5765 37.5156 82.5498 37.3381 82.5605 37.1608C82.5559 36.9831 82.5881 36.8064 82.6551 36.6418C82.7221 36.4772 82.8225 36.3282 82.9499 36.2043C83.0773 36.0804 83.2291 35.9843 83.3955 35.9219C83.5619 35.8596 83.7395 35.8323 83.9169 35.842C84.2626 35.8516 84.5912 35.994 84.8347 36.2396C85.0781 36.4851 85.2176 36.8151 85.2241 37.1608C85.2285 37.3382 85.1968 37.5146 85.1309 37.6794C85.065 37.8442 84.9663 37.9939 84.8408 38.1194C84.7153 38.2449 84.5656 38.3435 84.4009 38.4094C84.2361 38.4753 84.0596 38.5071 83.8822 38.5027ZM83.9054 36.1746C83.6437 36.1707 83.3907 36.2689 83.2003 36.4484C83.0098 36.6279 82.8967 36.8746 82.8851 37.1361C82.8734 37.3975 82.964 37.6533 83.1378 37.849C83.3115 38.0448 83.5547 38.1651 83.8157 38.1846C83.95 38.1946 84.085 38.1775 84.2126 38.1344C84.3402 38.0913 84.4579 38.023 84.5586 37.9336C84.6593 37.8442 84.7411 37.7355 84.799 37.6139C84.857 37.4923 84.8899 37.3603 84.8959 37.2258C84.9019 37.0912 84.8809 36.9568 84.834 36.8305C84.7871 36.7043 84.7153 36.5887 84.6229 36.4907C84.5306 36.3927 84.4195 36.3142 84.2962 36.2599C84.1729 36.2056 84.04 36.1766 83.9054 36.1746Z" fill="#FDFDFC"/>
<path d="M83.7668 37.2618L83.5904 37.8605H83.4285V36.481C83.6753 36.4376 83.9285 36.4465 84.1717 36.507C84.2629 36.5801 84.3374 36.6719 84.3903 36.7761C84.4431 36.8804 84.4731 36.9947 84.4783 37.1114C84.451 37.3746 84.3837 37.6321 84.2787 37.8749L83.7668 37.2618Z" fill="#FDFDFC"/>
</svg>
