<svg width="95" height="61" viewBox="0 0 95 61" fill="none" xmlns="http://www.w3.org/2000/svg">
<path d="M0.571533 29.7352C0.571485 27.791 1.19168 25.8974 2.34192 24.33C3.49216 22.7625 5.11245 21.6028 6.96716 21.0196C9.09265 20.3674 11.3842 20.5237 13.4014 21.4585C15.4187 22.3932 17.0193 24.0405 17.8958 26.0838C18.3789 27.194 18.6369 28.389 18.6549 29.5996C18.673 30.8102 18.4507 32.0124 18.001 33.1365C17.5513 34.2606 16.8831 35.2843 16.035 36.1484C15.1869 37.0126 14.1759 37.6998 13.0603 38.1705C11.7639 38.7318 10.3471 38.9576 8.94044 38.8271C5.53239 38.4988 3.03905 36.7726 1.49732 33.7334C0.967247 32.6834 0.664368 31.5335 0.608419 30.3586C0.597354 30.152 0.582598 29.9455 0.571533 29.7352ZM3.37469 33.7924C3.38663 33.8433 3.40395 33.8928 3.42634 33.94C3.66865 34.3413 3.97661 34.6991 4.33736 34.9985C4.82787 35.4371 5.4686 35.6696 6.12621 35.6477C6.69126 35.6465 7.24531 35.4913 7.7288 35.1989C8.21229 34.9065 8.60694 34.4878 8.87036 33.9879C9.16451 33.4848 9.25305 32.8876 9.11748 32.3208C8.96992 31.7767 8.79261 31.241 8.58636 30.7163C8.19558 29.7536 7.86302 28.7683 7.5905 27.7657C7.41197 27.1329 7.34827 26.4734 7.4024 25.8182C7.42697 25.4622 7.56317 25.123 7.79162 24.8488C8.02007 24.5747 8.32914 24.3796 8.67488 24.2912C9.34223 24.0976 10.0509 24.0976 10.7182 24.2912C11.0188 24.3693 11.2899 24.534 11.4977 24.7648C11.7056 24.9956 11.8411 25.2824 11.8875 25.5895C11.9679 26.0067 11.9766 26.4345 11.9133 26.8546C11.783 27.7181 11.5604 28.5652 11.2494 29.3812C10.91 30.3254 10.5707 31.2696 10.224 32.2138C10.1163 32.5219 10.0959 32.8538 10.165 33.1728C10.2314 33.5557 10.3749 33.9211 10.5866 34.247C10.7984 34.5728 11.074 34.8523 11.3969 35.0686C11.7842 35.3607 12.2372 35.5534 12.7162 35.6299C13.1952 35.7064 13.6857 35.6644 14.1447 35.5075C14.8648 35.2283 15.4701 34.7152 15.8635 34.0506C15.9013 33.967 15.9286 33.8791 15.9446 33.7887C15.8705 33.8254 15.7941 33.8575 15.716 33.8846C15.4283 33.9842 15.1406 34.0949 14.8418 34.1687C14.5955 34.2485 14.3332 34.2663 14.0783 34.2203C13.5996 34.0931 13.1822 33.7987 12.9018 33.3904C12.7342 33.16 12.6438 32.8824 12.6436 32.5974C12.6435 32.2559 12.7099 31.9177 12.839 31.6015C13.079 30.9809 13.3701 30.3813 13.7095 29.809C14.2918 28.856 14.6686 27.792 14.816 26.685C14.8938 26.1217 14.8265 25.5478 14.6205 25.0178C14.4717 24.6734 14.2539 24.3631 13.9805 24.1062C13.7071 23.8492 13.3839 23.6511 13.0308 23.524C12.2636 23.2213 11.4503 23.0517 10.626 23.0224C10.1113 22.9947 9.59537 22.9947 9.0806 23.0224C8.54952 23.0475 8.02013 23.1004 7.49461 23.181C6.92398 23.2526 6.37207 23.4315 5.86803 23.7085C5.52301 23.8865 5.2215 24.1385 4.98498 24.4464C4.74846 24.7544 4.58275 25.1106 4.49965 25.4899C4.39636 26.0222 4.39636 26.5694 4.49965 27.1018C4.68134 28.0246 5.01805 28.9101 5.49551 29.7205C5.67992 30.0487 5.86434 30.3659 6.0377 30.7053C6.21105 31.0446 6.3881 31.5093 6.53932 31.9224C6.64772 32.2139 6.66697 32.531 6.59464 32.8335C6.51417 33.1578 6.34874 33.4549 6.11536 33.6941C5.88199 33.9333 5.5891 34.106 5.26683 34.1945C5.07375 34.242 4.87317 34.2508 4.67669 34.2203C4.22011 34.1632 3.77839 34.0206 3.37469 33.7998V33.7924Z" fill="#FDFDFC"/>
<path d="M66.7817 27.0314V27.6879C67.0611 27.3858 67.4055 27.151 67.7888 27.0015C68.1722 26.852 68.5846 26.7916 68.9948 26.8249C69.4107 26.8496 69.8158 26.9667 70.1808 27.1676C70.5457 27.3686 70.8613 27.6484 71.1045 27.9867C71.1425 27.9101 71.1896 27.8382 71.2447 27.7728C71.6665 27.3537 72.1963 27.0599 72.7752 26.9238C73.354 26.7877 73.9592 26.8147 74.5236 27.0019C74.9254 27.1219 75.2875 27.348 75.5717 27.6562C75.856 27.9645 76.052 28.3437 76.1391 28.7539C76.2359 29.09 76.2891 29.437 76.2977 29.7866C76.3162 31.6566 76.2977 33.5303 76.2977 35.4003C76.2977 35.4409 76.2977 35.4815 76.2977 35.5368H74.4314V35.2343C74.4314 33.6152 74.4314 31.9923 74.4314 30.3694C74.4352 30.1036 74.4055 29.8384 74.3429 29.5801C74.3058 29.4036 74.2319 29.2369 74.1259 29.091C74.02 28.9451 73.8844 28.8232 73.728 28.7334C73.5716 28.6435 73.3981 28.5877 73.2186 28.5696C73.0392 28.5516 72.858 28.5716 72.6868 28.6285C72.3668 28.7063 72.0829 28.8909 71.8818 29.1517C71.6806 29.4125 71.5743 29.734 71.5803 30.0632V35.4704C70.9496 35.5434 70.313 35.5508 69.6808 35.4925V35.2048C69.6808 33.6336 69.6808 32.0624 69.6808 30.4911C69.6811 30.2249 69.6551 29.9593 69.6034 29.6981C69.5723 29.4153 69.4458 29.1515 69.2446 28.9503C69.0434 28.7492 68.7797 28.6226 68.4968 28.5916C68.198 28.5555 67.8951 28.6083 67.6262 28.7435C67.3572 28.8786 67.134 29.0901 66.9846 29.3514C66.8656 29.5616 66.8045 29.7996 66.8076 30.0411C66.8076 31.7562 66.8076 33.4713 66.8076 35.1827V35.4741C66.195 35.5401 65.5776 35.5487 64.9634 35.4999V27.0167L66.7817 27.0314Z" fill="#FDFDFC"/>
<path d="M63.064 31.7115H57.3692C57.3636 31.8221 57.3636 31.9329 57.3692 32.0434C57.4096 32.5698 57.6163 33.0696 57.9593 33.4708C58.1202 33.6626 58.3195 33.8185 58.5444 33.9285C58.7694 34.0384 59.0148 34.0999 59.265 34.1089C59.5305 34.1251 59.7969 34.1077 60.058 34.0573C60.3263 34.0105 60.5773 33.8928 60.7848 33.7164C60.9923 33.54 61.1489 33.3113 61.2383 33.054L61.2973 32.9176H63.0271C62.9644 33.1389 62.9202 33.3491 62.8464 33.5483C62.6719 34.0721 62.3602 34.5397 61.9437 34.9023C61.5273 35.2648 61.0213 35.5093 60.4785 35.6101C59.7778 35.772 59.048 35.7581 58.354 35.5695C57.7871 35.4217 57.2646 35.1384 56.8316 34.7439C56.3985 34.3494 56.0678 33.8555 55.868 33.3049C55.5825 32.6185 55.4485 31.8786 55.4753 31.1358C55.502 30.3929 55.6888 29.6646 56.0229 29.0005C56.2561 28.4865 56.6058 28.0339 57.0444 27.6786C57.483 27.3232 57.9983 27.075 58.5495 26.9535C59.3401 26.7602 60.1715 26.8222 60.9248 27.1305C61.3581 27.3081 61.7476 27.5779 62.0661 27.9212C62.3845 28.2645 62.6244 28.6731 62.769 29.1186C62.9454 29.5915 63.045 30.0895 63.064 30.5939C63.0935 30.9591 63.064 31.3095 63.064 31.7115ZM57.4245 30.3062H61.2493C61.2235 30.1218 61.2125 29.9595 61.1756 29.8009C61.1282 29.5067 60.9995 29.2316 60.804 29.0067C60.6084 28.7819 60.3539 28.6162 60.0691 28.5284C59.5714 28.3716 59.0324 28.4125 58.5642 28.6428C58.2541 28.8075 57.9885 29.0449 57.7901 29.3345C57.5916 29.6242 57.4662 29.9576 57.4245 30.3062Z" fill="#FDFDFC"/>
<path d="M77.9417 31.4311C77.8962 30.376 78.184 29.3333 78.7642 28.4509C79.1536 27.8748 79.6964 27.4192 80.3313 27.1357C80.9662 26.8522 81.6678 26.752 82.3566 26.8464C84.0717 27.0014 85.3295 28.1927 85.7499 29.9041C86.0542 31.0396 85.9765 32.2437 85.5286 33.3306C85.2135 34.1062 84.6512 34.7563 83.929 35.1797C83.2067 35.6032 82.3649 35.7765 81.5341 35.6727C79.7932 35.5141 78.4285 34.2822 78.0597 32.3532C77.9859 31.988 77.9638 31.6192 77.9417 31.4311ZM79.8264 31.1508C79.787 31.8477 79.9442 32.5416 80.2801 33.1535C80.4451 33.4549 80.692 33.7034 80.9922 33.8705C81.2924 34.0376 81.6337 34.1163 81.9767 34.0978C82.3629 34.098 82.7398 33.9791 83.056 33.7573C83.3721 33.5356 83.6122 33.2217 83.7435 32.8585C84.0126 32.1925 84.1053 31.4684 84.0127 30.7561C83.9809 30.3731 83.8823 29.9986 83.7213 29.6496C83.5729 29.2983 83.3242 28.9986 83.0064 28.7879C82.6885 28.5772 82.3157 28.4648 81.9343 28.4648C81.553 28.4648 81.1801 28.5772 80.8623 28.7879C80.5445 28.9986 80.2958 29.2983 80.1473 29.6496C79.9329 30.1208 79.8234 30.633 79.8264 31.1508Z" fill="#FDFDFC"/>
<path d="M35.8733 35.5113H33.9996V34.7736C33.9111 34.84 33.8594 34.8732 33.8152 34.9137C33.3552 35.3375 32.7797 35.615 32.1617 35.7109C31.5437 35.8068 30.9111 35.7167 30.3444 35.4522C30.0331 35.3184 29.7537 35.12 29.5248 34.8701C29.2959 34.6202 29.1227 34.3245 29.0166 34.0027C28.858 33.5895 28.7768 33.1507 28.7769 32.7081C28.7769 30.8713 28.7769 29.0271 28.7769 27.1755C28.7769 27.135 28.7769 27.0944 28.7769 27.0206C29.3928 27.0206 30.0014 27.0206 30.6469 27.0206V27.3305C30.6469 28.9128 30.6469 30.4914 30.6469 32.0737C30.6438 32.2973 30.6611 32.5208 30.6985 32.7413C30.7377 33.0635 30.8923 33.3606 31.1337 33.5776C31.3751 33.7946 31.687 33.9168 32.0115 33.9216C32.3446 33.9634 32.6826 33.9096 32.9863 33.7666C33.29 33.6236 33.5467 33.3972 33.7266 33.1138C33.883 32.8862 33.9642 32.6153 33.959 32.3392C33.959 30.6758 33.959 29.0197 33.959 27.3489V27.0391H35.8032C35.8696 27.1977 35.9249 35.0723 35.8733 35.5113Z" fill="#FDFDFC"/>
<path d="M94.853 35.5658H92.9682V35.2486C92.9682 33.6368 92.9682 32.0213 92.9682 30.4094C92.9687 30.1606 92.9377 29.9128 92.876 29.6718C92.8207 29.4076 92.6844 29.1672 92.486 28.9841C92.2877 28.801 92.0373 28.6842 91.7695 28.6501C91.4273 28.5742 91.0703 28.6001 90.7426 28.7246C90.4149 28.8492 90.1308 29.0669 89.9253 29.3509C89.7288 29.601 89.6234 29.9106 89.6266 30.2287C89.6266 31.8811 89.6266 33.5482 89.6266 35.1933V35.4809C88.9949 35.5419 88.3588 35.5419 87.7271 35.4809V27.0567H89.5712V27.8202L89.7999 27.6358C90.1231 27.3537 90.5017 27.1424 90.9114 27.0154C91.3211 26.8884 91.7529 26.8484 92.1789 26.8981C92.7052 26.9292 93.2141 27.0984 93.6543 27.3887C93.9454 27.593 94.1931 27.853 94.3831 28.1538C94.573 28.4545 94.7014 28.7899 94.7608 29.1406C94.822 29.433 94.8542 29.7308 94.8567 30.0295C94.8567 31.8036 94.8567 33.5741 94.8567 35.3445L94.853 35.5658Z" fill="#FDFDFC"/>
<path d="M42.4157 27.0342H44.282V27.3367C44.282 28.9251 44.282 30.5136 44.282 32.1021C44.2801 32.3185 44.2986 32.5346 44.3373 32.7475C44.3767 33.0697 44.5321 33.3664 44.7745 33.5823C45.0168 33.7981 45.3295 33.9184 45.654 33.9204C46.0033 33.9642 46.3577 33.9021 46.6713 33.7424C46.9849 33.5826 47.2434 33.3324 47.4134 33.0242C47.5358 32.8247 47.5986 32.5943 47.5941 32.3602C47.5941 30.6906 47.5941 29.0198 47.5941 27.3478V27.0379H49.4715V35.5212H47.6273V34.7835C47.5351 34.8499 47.4872 34.8831 47.4429 34.92C47.0009 35.3318 46.4492 35.607 45.8543 35.7124C45.2594 35.8178 44.6467 35.7488 44.0902 35.5138C43.6706 35.356 43.3012 35.0881 43.0209 34.7383C42.7405 34.3885 42.5595 33.9697 42.4968 33.5258C42.4343 33.2335 42.401 32.9357 42.3972 32.6369C42.3972 30.848 42.3972 29.0629 42.3972 27.274C42.4046 27.1818 42.4083 27.1191 42.4157 27.0342Z" fill="#FDFDFC"/>
<path d="M26.5383 35.5109H24.6941V23.118H26.5383V35.5109Z" fill="#FDFDFC"/>
<path d="M38.2927 23.118H40.1369V35.4777C39.5235 35.5347 38.9061 35.5347 38.2927 35.4777V23.118Z" fill="#FDFDFC"/>
<path d="M53.7168 35.5113H51.8948C51.8431 35.3232 51.8284 23.4319 51.8948 23.1405C52.5084 23.0886 53.1253 23.0886 53.739 23.1405L53.7168 35.5113Z" fill="#FDFDFC"/>
</svg>
