<svg width="96" height="61" viewBox="0 0 96 61" fill="none" xmlns="http://www.w3.org/2000/svg">
<path d="M46.829 10.7347C42.3865 14.6293 39.9542 19.4753 39.9616 25.3913C39.969 31.3073 42.3828 36.1274 46.866 40.0294C45.2214 41.1557 43.3845 41.9713 41.4461 42.4358C36.0337 43.7167 31.0247 42.7764 26.5785 39.4408C24.6359 37.9933 23.0143 36.1592 21.8157 34.054C20.6171 31.9488 19.8676 29.6181 19.6144 27.2088C19.3612 24.7996 19.6098 22.364 20.3445 20.0556C21.0792 17.7472 22.2842 15.616 23.8834 13.7963C30.7063 6.03301 41.1611 6.62905 46.829 10.7347Z" fill="#FDFDFC"/>
<path d="M49.1653 10.7316C54.7888 6.69261 64.9103 6.08547 71.7296 13.3712C74.8604 16.7061 76.5646 21.1321 76.4788 25.7056C76.3931 30.279 74.5242 34.638 71.2705 37.8532C64.0959 44.9242 54.2408 43.7173 49.169 40.0004C53.6115 36.1391 56.0364 31.2968 56.0401 25.3845C56.0438 19.4723 53.6226 14.6225 49.1653 10.7316Z" fill="#FDFDFC"/>
<path d="M54.7598 25.3836C54.6784 29.5485 53.4197 33.2913 50.7356 36.49C49.9952 37.3711 49.1141 38.1337 48.3071 38.9593C48.0923 39.1777 47.9368 39.1629 47.6999 38.9593C45.3332 37.0206 43.5135 34.4977 42.4207 31.6402C41.1921 28.4366 40.9289 24.9431 41.6639 21.5916C42.3988 18.2401 44.0995 15.1773 46.556 12.7817C46.9262 12.4115 47.3519 12.0709 47.7443 11.7081C47.776 11.6713 47.8152 11.6418 47.8593 11.6215C47.9033 11.6013 47.9513 11.5908 47.9998 11.5908C48.0483 11.5908 48.0962 11.6013 48.1403 11.6215C48.1844 11.6418 48.2236 11.6713 48.2552 11.7081C50.6424 13.6555 52.4779 16.1942 53.5789 19.0716C54.2652 20.8142 54.6411 22.6636 54.6895 24.5359C54.6969 24.8246 54.7376 25.1208 54.7598 25.3836Z" fill="#FDFDFC"/>
<path d="M29.941 51.7951H28.9118C28.9118 51.088 28.9118 50.392 28.9118 49.6998C28.9038 49.3831 28.8716 49.0675 28.8156 48.7557C28.786 48.529 28.672 48.3219 28.4963 48.1757C28.3206 48.0295 28.0961 47.955 27.8678 47.9672C27.622 47.9619 27.3821 48.0425 27.1895 48.1953C26.9968 48.3481 26.8636 48.5633 26.8128 48.8038C26.7646 49.4887 26.7831 50.1736 26.772 50.8585C26.772 50.9437 26.772 51.0325 26.772 51.1177C26.772 51.9173 26.8979 51.81 26.0316 51.8322C25.7613 51.8322 25.691 51.7285 25.6947 51.4842C25.6947 50.9313 25.6947 50.3797 25.6947 49.8293C25.6947 49.5147 25.6688 49.1963 25.6429 48.8779C25.6343 48.6441 25.5396 48.4218 25.3769 48.2536C25.2143 48.0855 24.9951 47.9835 24.7618 47.9672C24.5137 47.9453 24.2659 48.0121 24.0625 48.1558C23.8591 48.2996 23.7133 48.5108 23.6511 48.752C23.5955 49.1382 23.5696 49.528 23.5734 49.9182C23.5734 50.4476 23.5734 50.9733 23.5734 51.499C23.5734 51.7248 23.529 51.8359 23.2698 51.8322C22.3258 51.8137 22.5109 51.9136 22.5035 51.0917C22.5035 49.9034 22.5035 48.715 22.5035 47.5266C22.5035 47.2268 22.5775 47.1009 22.8737 47.1305C23.0833 47.1417 23.2934 47.1417 23.5031 47.1305L23.5697 47.5525C24.7359 46.7566 25.5318 46.8121 26.3907 47.7043C26.7181 47.4624 27.0721 47.2587 27.4458 47.0972C28.4824 46.7788 29.7411 47.1971 29.9225 48.578C29.9448 48.7474 29.9559 48.9181 29.9558 49.0889C29.9447 49.9811 29.941 50.8733 29.941 51.7951Z" fill="#FDFDFC"/>
<path d="M72.5967 51.4651C71.0899 52.1574 70.0793 52.0019 69.3314 50.9876C68.9913 50.5051 68.8222 49.9227 68.8511 49.3331C68.8799 48.7435 69.105 48.1804 69.4906 47.7334C69.8901 47.3024 70.4394 47.0404 71.0258 47.0011C71.6122 46.9619 72.1914 47.1484 72.6448 47.5224V45.8527C72.6448 45.2456 72.6448 45.2456 73.2371 45.2456C73.7258 45.2456 73.7258 45.2456 73.7258 45.7269C73.7258 47.615 73.7258 49.4993 73.7258 51.3874C73.7258 51.7576 73.6259 51.8835 73.2668 51.839C72.9965 51.7983 72.63 51.9538 72.5967 51.4651ZM72.7189 49.4771C72.7328 49.2858 72.7072 49.0936 72.6435 48.9126C72.5799 48.7316 72.4797 48.5657 72.3491 48.4252C72.2184 48.2847 72.0602 48.1726 71.8844 48.096C71.7085 48.0194 71.5187 47.9798 71.3269 47.9798C71.135 47.9798 70.9452 48.0194 70.7694 48.096C70.5935 48.1726 70.4353 48.2847 70.3047 48.4252C70.1741 48.5657 70.0738 48.7316 70.0102 48.9126C69.9465 49.0936 69.9209 49.2858 69.9349 49.4771C69.9349 49.6599 69.9709 49.8409 70.0408 50.0098C70.1108 50.1787 70.2133 50.3321 70.3426 50.4614C70.4718 50.5906 70.6253 50.6932 70.7942 50.7631C70.9631 50.8331 71.1441 50.8691 71.3269 50.8691C71.5097 50.8691 71.6907 50.8331 71.8596 50.7631C72.0284 50.6932 72.1819 50.5906 72.3111 50.4614C72.4404 50.3321 72.5429 50.1787 72.6129 50.0098C72.6828 49.8409 72.7189 49.6599 72.7189 49.4771Z" fill="#FDFDFC"/>
<path d="M34.5303 47.5077L34.6451 47.1634C34.6767 47.1476 34.7103 47.1364 34.7451 47.1301C35.6484 47.0857 35.6484 47.0857 35.6484 47.989C35.6484 49.1293 35.6484 50.2695 35.6484 51.4061C35.6484 51.7578 35.5373 51.8762 35.2078 51.8281C35.171 51.8225 35.1336 51.8225 35.0968 51.8281C34.8191 51.8466 34.5451 51.8651 34.5303 51.4098C34.2494 51.6497 33.9125 51.8149 33.5507 51.8899C33.1889 51.965 32.8141 51.9476 32.4609 51.8392C31.923 51.6974 31.4604 51.354 31.1688 50.8804C30.8601 50.3849 30.7235 49.8013 30.7804 49.2202C30.8373 48.6392 31.0845 48.0931 31.4835 47.6669C31.8816 47.268 32.4135 47.0309 32.9763 47.0015C33.5391 46.9721 34.0928 47.1525 34.5303 47.5077ZM34.6488 49.4625C34.6648 49.2689 34.6402 49.0741 34.5768 48.8905C34.5134 48.7069 34.4124 48.5385 34.2803 48.3961C34.1483 48.2537 33.988 48.1403 33.8097 48.0631C33.6315 47.986 33.4391 47.9469 33.2449 47.9482C33.0506 47.9494 32.8588 47.9912 32.6815 48.0706C32.5043 48.1501 32.3456 48.2656 32.2154 48.4098C32.0852 48.554 31.9865 48.7237 31.9255 48.9081C31.8645 49.0925 31.8426 49.2876 31.8611 49.481C31.8527 49.6701 31.8829 49.8589 31.9497 50.036C32.0166 50.2131 32.1188 50.3747 32.2501 50.511C32.3813 50.6474 32.539 50.7556 32.7134 50.8291C32.8879 50.9026 33.0754 50.9399 33.2647 50.9386C33.454 50.9374 33.641 50.8976 33.8145 50.8218C33.9879 50.746 34.1441 50.6357 34.2736 50.4976C34.4031 50.3595 34.5031 50.1966 34.5676 50.0186C34.6321 49.8406 34.6597 49.6514 34.6488 49.4625Z" fill="#FDFDFC"/>
<path d="M63.2153 47.5629L63.2893 47.1445H64.263V51.7944H63.2893L63.2079 51.3464C62.9784 51.5823 62.6937 51.7573 62.3795 51.8555C62.0654 51.9538 61.7317 51.9722 61.4087 51.9091C60.8477 51.8274 60.3385 51.5365 59.9833 51.0947C59.6156 50.5907 59.4306 49.9765 59.4589 49.3533C59.4871 48.7301 59.727 48.1351 60.1388 47.6665C60.5443 47.265 61.0864 47.0312 61.6567 47.012C62.2271 46.9928 62.7837 47.1895 63.2153 47.5629ZM60.5239 49.4509C60.5129 49.6387 60.5398 49.8267 60.6031 50.0038C60.6664 50.1808 60.7648 50.3434 60.8923 50.4816C61.0198 50.6198 61.1739 50.7309 61.3453 50.8083C61.5167 50.8856 61.7019 50.9276 61.8899 50.9318C62.0825 50.9335 62.2734 50.8959 62.4509 50.8214C62.6285 50.7469 62.789 50.6371 62.9227 50.4985C63.0565 50.36 63.1606 50.1956 63.2287 50.0155C63.2968 49.8354 63.3275 49.6433 63.3189 49.4509C63.3251 49.0703 63.1821 48.7024 62.9206 48.4257C62.6592 48.149 62.2999 47.9855 61.9195 47.9701C61.7303 47.9744 61.5437 48.0162 61.3708 48.0932C61.1978 48.1702 61.0418 48.2808 60.912 48.4186C60.7821 48.5564 60.6809 48.7186 60.6143 48.8958C60.5477 49.073 60.5169 49.2617 60.5239 49.4509Z" fill="#FDFDFC"/>
<path d="M47.0963 49.8547C47.0783 50.0874 47.1425 50.319 47.2779 50.5091C47.4132 50.6993 47.611 50.8358 47.8368 50.895C48.1061 50.9809 48.3913 51.0052 48.6713 50.9661C48.9514 50.927 49.219 50.8256 49.4546 50.6692C49.7137 50.5026 49.8248 50.5359 49.9507 50.7877C50.0421 50.9481 50.1435 51.1026 50.2542 51.2504C49.9673 51.5021 49.6307 51.6907 49.2662 51.804C48.9018 51.9172 48.5176 51.9527 48.1385 51.908C47.7595 51.8633 47.3941 51.7395 47.066 51.5446C46.7378 51.3497 46.4543 51.088 46.2337 50.7765C45.5451 49.5993 45.945 47.8852 47.1037 47.2818C48.5846 46.5043 50.3394 47.2818 50.4726 49.1995C50.4726 49.3957 50.4726 49.5919 50.4726 49.8547H47.1074H47.0963ZM47.0593 48.9921H49.325C49.3262 48.8504 49.2984 48.71 49.2434 48.5794C49.1883 48.4488 49.1072 48.3308 49.0049 48.2327C48.9026 48.1346 48.7814 48.0585 48.6487 48.0089C48.5159 47.9593 48.3744 47.9374 48.2329 47.9444C48.0864 47.9349 47.9394 47.9545 47.8006 48.0022C47.6617 48.0498 47.5337 48.1245 47.4238 48.2219C47.314 48.3193 47.2246 48.4376 47.1608 48.5698C47.0969 48.702 47.0599 48.8455 47.0519 48.9921H47.0593Z" fill="#FDFDFC"/>
<path d="M40.2061 48.3336C39.6899 48.035 39.093 47.9055 38.4994 47.9634C38.3441 47.9849 38.1959 48.0419 38.0663 48.13C38.0031 48.1636 37.9519 48.2159 37.9195 48.2796C37.8871 48.3434 37.8752 48.4156 37.8853 48.4864C37.8954 48.5572 37.9271 48.6232 37.976 48.6753C38.025 48.7275 38.0888 48.7633 38.1588 48.7779C38.5249 48.8721 38.8956 48.9475 39.2694 49.0037C39.7729 49.1074 40.2801 49.2295 40.5874 49.696C40.6891 49.8695 40.7521 50.063 40.7721 50.2631C40.7921 50.4633 40.7686 50.6654 40.7032 50.8556C40.6378 51.0458 40.5321 51.2197 40.3932 51.3652C40.2544 51.5107 40.0857 51.6246 39.8988 51.6988C39.423 51.8866 38.9124 51.9702 38.4015 51.9441C37.8906 51.9179 37.3913 51.7825 36.9371 51.5471C36.6447 51.4101 36.5299 51.2583 36.7816 50.9769C36.8776 50.8475 36.9642 50.7115 37.0408 50.5697C37.3994 50.7256 37.771 50.8494 38.1514 50.9399C38.5219 50.9866 38.8976 50.969 39.2621 50.8881C39.3522 50.8564 39.4331 50.803 39.4977 50.7327C39.5622 50.6623 39.6085 50.5771 39.6323 50.4846C39.6323 50.3513 39.4213 50.1143 39.2621 50.0884C38.7623 49.9403 38.2366 49.8774 37.7331 49.7367C37.4566 49.6764 37.2093 49.5228 37.0327 49.3017C36.856 49.0806 36.7609 48.8054 36.7631 48.5224C36.7564 48.2276 36.8434 47.9381 37.0117 47.6959C37.1801 47.4537 37.421 47.2713 37.6998 47.1749C38.5936 46.8861 39.5645 46.9537 40.4097 47.3637C40.6096 47.4525 40.6392 47.5562 40.5393 47.7339L40.2061 48.3336Z" fill="#FDFDFC"/>
<path d="M42.3652 47.1298V45.7489H43.4277C43.4277 46.0895 43.4277 46.4412 43.4277 46.7892C43.4277 47.0409 43.498 47.1409 43.7609 47.1298C44.1866 47.1298 44.6161 47.1298 45.0714 47.1298V48.0738H43.4462C43.4462 48.8698 43.4092 49.625 43.4462 50.3765C43.4795 50.8689 43.9867 51.054 44.5568 50.8578C45.0159 50.706 45.0159 50.706 45.1566 51.1725C45.1936 51.2872 45.2343 51.402 45.2861 51.5427C44.984 51.7482 44.6366 51.8774 44.2736 51.9193C43.9106 51.9612 43.5429 51.9145 43.2019 51.7833C42.5947 51.5575 42.38 51.017 42.3652 50.4061C42.3652 49.6361 42.3652 48.8698 42.3652 48.059H41.4434V47.115L42.3652 47.1298Z" fill="#FDFDFC"/>
<path d="M58.4616 50.5368C58.5652 50.696 58.6541 50.8256 58.7355 50.9626C58.9873 51.3957 58.9873 51.429 58.5504 51.6475C57.3398 52.2546 55.3555 51.9881 54.8853 50.2888C54.4152 48.5895 55.2556 47.1383 57.0733 47.005C57.636 46.9508 58.2012 47.0807 58.6837 47.3752C58.8762 47.4937 58.9947 47.6085 58.8022 47.8269C58.7455 47.9057 58.6995 47.9916 58.6652 48.0823C58.5467 48.3304 58.432 48.4081 58.1395 48.2378C57.8244 48.0195 57.437 47.9319 57.0586 47.9933C56.6803 48.0548 56.3405 48.2605 56.1107 48.5673C55.9267 48.842 55.8306 49.1662 55.8352 49.4969C55.8398 49.8275 55.945 50.1489 56.1366 50.4184C56.3459 50.6666 56.6293 50.8412 56.9452 50.9165C57.261 50.9918 57.5927 50.9638 57.8915 50.8367C58.0766 50.7405 58.258 50.6405 58.4616 50.5368Z" fill="#FDFDFC"/>
<path d="M51.5129 47.1787C52.2237 47.0232 52.4902 47.0898 52.6235 47.4785C52.8036 47.2993 53.0224 47.1637 53.2631 47.0822C53.5037 47.0007 53.7599 46.9754 54.0118 47.0084C54.4709 47.0602 54.519 47.1194 54.382 47.5563C54.3265 47.7155 54.271 47.8784 54.208 48.0709C54.1174 48.0694 54.027 48.0607 53.9378 48.045C53.1381 47.8413 52.6161 48.2189 52.5939 49.0519C52.5717 49.8849 52.5717 50.6179 52.5939 51.4028C52.5939 51.7434 52.4903 51.847 52.1534 51.8322C51.4315 51.8026 51.5314 51.9136 51.5314 51.2028C51.5314 49.9552 51.5314 48.7076 51.5314 47.4563C51.4944 47.3638 51.4944 47.2675 51.5129 47.1787Z" fill="#FDFDFC"/>
<path d="M66.6129 47.1675L66.6462 47.4822C66.935 47.2953 67.2459 47.1448 67.5717 47.0343C67.9151 47.0045 68.2609 47.0181 68.6009 47.075C68.5417 47.2897 68.512 47.4008 68.475 47.5155C68.3121 48.0486 68.3121 48.0486 67.7346 47.9783C67.5868 47.9624 67.4373 47.9795 67.2968 48.0282C67.1564 48.077 67.0285 48.1563 66.9223 48.2603C66.8162 48.3644 66.7343 48.4906 66.6828 48.6301C66.6312 48.7695 66.6111 48.9186 66.624 49.0667C66.624 49.8367 66.624 50.6105 66.624 51.3805V51.8248H65.7873C65.5392 51.8248 65.5763 51.636 65.5726 51.4842V47.9561C65.5948 47.0157 65.6207 46.9972 66.6129 47.1675Z" fill="#FDFDFC"/>
<path d="M75.3769 51.1174C75.4404 51.1139 75.504 51.123 75.564 51.1443C75.6239 51.1655 75.6791 51.1984 75.7263 51.2411C75.7734 51.2838 75.8116 51.3354 75.8387 51.393C75.8658 51.4505 75.8812 51.5129 75.8841 51.5764C75.8812 51.7044 75.8286 51.8263 75.7373 51.9161C75.6461 52.006 75.5235 52.0568 75.3954 52.0577C75.3348 52.0649 75.2734 52.0587 75.2155 52.0394C75.1575 52.0202 75.1046 51.9884 75.0604 51.9463C75.0162 51.9042 74.9818 51.8529 74.9597 51.796C74.9377 51.7391 74.9284 51.678 74.9326 51.6171C74.9252 51.2951 75.0733 51.1248 75.3769 51.1174Z" fill="#FDFDFC"/>
<path d="M75.8061 36.2461L75.7395 36.0721L75.1731 36.1905V35.5686L75.2471 35.5464L75.4952 35.9166L75.8654 35.476V36.2275L75.8061 36.2461Z" fill="#FDFDFC"/>
<path d="M74.4841 35.5605H74.9062L74.6729 36.2788L74.4841 35.5605Z" fill="#FDFDFC"/>
</svg>
