<svg width="95" height="61" viewBox="0 0 95 61" fill="none" xmlns="http://www.w3.org/2000/svg">
<path d="M34.2379 19.4348C34.3729 19.3223 34.5047 19.1134 34.6493 19.1134C35.26 19.0748 35.8706 19.0973 36.5166 19.0973L36.8187 20.4729C37.1401 20.1804 37.4294 19.9201 37.7186 19.6758C38.0011 19.4104 38.3382 19.2099 38.7062 19.0883C39.0743 18.9668 39.4645 18.927 39.8495 18.972C40.3306 19.0067 40.7792 19.2275 41.1003 19.5875C41.4213 19.9475 41.5894 20.4184 41.5689 20.9004C41.585 22.0863 41.5689 23.2755 41.5689 24.4614C41.5689 25.2681 41.8903 25.6088 42.7034 25.7084V26.2323H39.1135V25.7373C40.0359 25.583 40.2641 25.3066 40.2641 24.3553C40.2641 23.2851 40.2641 22.2181 40.2641 21.1414C40.2641 20.1194 39.6406 19.6373 38.6571 19.9298C38.2471 20.0699 37.8554 20.2587 37.4905 20.4922C37.255 20.6208 37.0631 20.8167 36.9395 21.0548C36.8158 21.293 36.766 21.5626 36.7962 21.8292C36.8444 22.6777 36.7962 23.5326 36.7962 24.3843C36.7962 25.236 37.0598 25.5831 37.9533 25.7277V26.2258C37.7829 26.2258 37.6126 26.2516 37.439 26.2516C34.389 26.2516 31.3326 26.2516 28.2858 26.2516C28.1327 26.2654 27.9788 26.2349 27.8426 26.1637C27.7064 26.0924 27.5936 25.9835 27.5176 25.8498C26.3703 24.1657 25.2036 22.4977 24.0305 20.8072C23.3138 21.4049 22.6871 21.9963 22.8735 23.0569C22.9073 23.4515 22.9073 23.8483 22.8735 24.2428C22.8735 25.2617 23.1949 25.6216 24.2458 25.7116V26.2291H20.071L20.0452 25.7437C21.1315 25.5766 21.3822 25.2874 21.3822 24.2332C21.3822 21.8763 21.3822 19.5194 21.3822 17.1625C21.3822 16.2498 21.0415 15.877 20.0967 15.787C19.9649 15.4656 19.997 15.2824 20.418 15.2856C21.5879 15.2856 22.7546 15.2856 23.9245 15.2856C24.2908 15.2856 24.3808 15.4335 24.2716 15.7549C23.182 15.9445 22.9024 16.2723 22.9024 17.3618V20.91L23.092 21.0707C23.186 20.8904 23.2935 20.7174 23.4134 20.5533C24.413 19.4284 25.4318 18.3035 26.4217 17.1883C26.592 16.9922 26.7913 16.6548 26.7431 16.4619C26.6981 16.2662 26.5838 16.0933 26.4214 15.9752C26.259 15.857 26.0593 15.8016 25.8592 15.8191C25.801 15.816 25.7436 15.8041 25.6889 15.7838C25.5796 15.4624 25.6278 15.2921 26.0103 15.2953C27.0998 15.2953 28.1893 15.2953 29.2789 15.3113C29.4235 15.3113 29.5585 15.5106 29.6002 15.5492C28.9414 15.9798 28.3147 16.2755 27.8358 16.7287C26.8716 17.6575 25.9749 18.6731 25.0204 19.6855C26.351 21.4371 27.643 23.1887 28.9928 24.8921C29.1863 25.1718 29.4519 25.3938 29.7614 25.5347C30.071 25.6756 30.4129 25.7301 30.7508 25.6923C30.8794 25.6924 31.0066 25.6667 31.1251 25.6168C31.2435 25.567 31.3509 25.4939 31.4407 25.402C31.5305 25.3101 31.6011 25.2011 31.6482 25.0815C31.6953 24.962 31.718 24.8342 31.715 24.7057C31.715 23.4394 31.715 22.1731 31.715 20.9068C31.715 20.0487 31.4579 19.7562 30.5934 19.6212C30.4841 19.1198 30.4841 19.107 30.9148 19.0973C31.6057 19.0973 32.2967 19.0973 33.0745 19.0973V20.264C33.0745 21.7103 33.0745 23.1565 33.0745 24.5996C33.0745 25.3645 33.4441 25.6859 34.2862 25.6827C35.1282 25.6795 35.485 25.3324 35.4882 24.5771C35.4882 23.3879 35.4464 22.1988 35.5042 21.0129C35.5396 20.2222 35.2182 19.7273 34.344 19.6084L34.2379 19.4348Z" fill="#FDFDFC"/>
<path d="M6.44704 26.4529L2.59032 17.1003H2.48104C2.48104 17.261 2.44569 17.4218 2.44569 17.5792C2.44569 19.7926 2.44569 22.0091 2.44569 24.2289C2.44569 25.2605 2.76709 25.6173 3.77626 25.6944C3.79876 25.7233 3.83733 25.7555 3.84055 25.7876C3.84055 25.9226 3.84055 26.0544 3.84055 26.2183H0.472335V25.7233C1.54257 25.5691 1.80612 25.2573 1.80612 24.1806C1.80612 21.8666 1.76756 19.5494 1.82862 17.2353C1.84791 16.4062 1.32403 15.7601 0.494835 15.7794C0.350208 15.4355 0.433769 15.2684 0.835511 15.2748C1.58757 15.2748 2.34284 15.3038 3.08526 15.2748C3.25884 15.25 3.43538 15.2924 3.57875 15.3933C3.72212 15.4943 3.82151 15.6462 3.85661 15.818C4.79187 18.2317 5.75605 20.6389 6.7138 23.0397C6.76844 23.1779 6.83272 23.3129 6.93556 23.5443C7.08019 23.2229 7.19267 23.0076 7.28909 22.7762C8.25327 20.4621 9.23352 18.1513 10.1816 15.8276C10.2233 15.6478 10.3318 15.4905 10.4853 15.3878C10.6387 15.2852 10.8255 15.2448 11.0076 15.2748C11.6504 15.3166 12.2739 15.2909 12.907 15.2748C13.267 15.2748 13.3666 15.4259 13.2284 15.7473C12.1903 15.8598 11.8754 16.4511 11.8947 17.3285C11.9461 19.6233 11.8947 21.9212 11.8947 24.216C11.8947 25.2541 12.1775 25.5755 13.2413 25.7201L13.2638 26.2022H9.08568C8.97962 25.8615 8.98927 25.6623 9.44886 25.6494C9.69842 25.6309 9.93301 25.5233 10.11 25.3463C10.2869 25.1694 10.3945 24.9348 10.413 24.6852C10.413 22.2137 10.413 19.7422 10.2909 17.2321C9.0439 20.2789 7.77118 23.3129 6.44704 26.4529Z" fill="#FDFDFC"/>
<path d="M79.1745 34.2735V33.7817C79.8366 33.7817 80.4601 33.7592 81.1029 33.7817C81.1862 33.8052 81.2629 33.8479 81.3265 33.9066C81.3902 33.9652 81.4391 34.0381 81.4693 34.1192C81.564 34.4566 81.6349 34.8003 81.6814 35.1477C81.9905 34.8147 82.3366 34.5182 82.7131 34.2638C83.2506 33.9528 83.8413 33.7447 84.455 33.65C84.6933 33.617 84.9359 33.6344 85.1671 33.701C85.3983 33.7677 85.6129 33.8821 85.797 34.0369C85.9812 34.1917 86.1308 34.3834 86.2363 34.5996C86.3417 34.8159 86.4006 35.0519 86.4091 35.2923C86.4921 36.516 86.5125 37.7432 86.4702 38.969C86.4509 39.8207 86.602 40.1518 87.7558 40.5181C87.4794 40.6981 87.3283 40.8877 87.1708 40.8909C86.2066 40.9199 85.2682 40.8909 84.3168 40.907C83.9762 40.907 83.8315 40.7913 83.9569 40.4474C84.9211 40.216 85.1525 39.8336 85.1139 38.9722C85.0625 37.8859 85.1139 36.7964 85.1139 35.7069C85.1139 34.8391 84.6447 34.4213 83.7801 34.5466C83.0432 34.6386 82.3723 35.0174 81.9128 35.6008C81.7625 35.8282 81.6861 36.0965 81.6943 36.3689C81.6686 37.3331 81.6943 38.2716 81.6782 39.2197C81.6782 39.8368 81.9996 40.1517 82.5203 40.3703C82.6459 40.449 82.7595 40.5453 82.8577 40.6563C82.7292 40.7399 82.6038 40.8942 82.472 40.8942C80.7301 40.9102 78.9849 40.9134 77.243 40.8942C77.0919 40.8942 76.8734 40.6692 76.8091 40.4989C76.7304 40.2094 76.6862 39.9116 76.6773 39.6118C76.3443 39.9516 75.9935 40.2734 75.6264 40.576C74.3762 41.4984 72.8463 41.0034 72.5281 39.5925C72.401 39.126 72.459 38.6284 72.6902 38.2037C72.9215 37.7791 73.3079 37.4602 73.7687 37.3138C74.4526 37.0549 75.1629 36.8717 75.8867 36.7675C76.4684 36.6807 76.6709 36.4814 76.6548 35.874C76.6259 34.5884 76.0281 34.0131 74.7522 34.1578C73.9005 34.2542 73.5309 34.7684 73.7173 35.5976C73.7494 35.7519 73.7912 35.8997 73.878 36.2404C73.6364 36.1287 73.4042 35.9976 73.1838 35.8483C73.0754 35.7337 72.9844 35.6037 72.9138 35.4626C72.3546 34.6013 72.3739 34.4984 73.2963 34.0356C74.2831 33.5451 75.42 33.4497 76.4749 33.7689C76.9141 33.8728 77.303 34.1276 77.5737 34.4888C77.8444 34.85 77.9799 35.2947 77.9565 35.7454C77.9758 36.9153 77.9565 38.082 77.9565 39.2518C77.9565 39.9814 78.3904 40.3799 79.1649 40.3799C79.9395 40.3799 80.3509 40.0007 80.3541 39.2422C80.3541 38.0563 80.3541 36.8671 80.3541 35.6812C80.3669 34.7009 80.1355 34.4374 79.1745 34.2735ZM76.6034 37.0985C75.9413 37.2688 75.3178 37.4199 74.7265 37.5902C74.4639 37.6503 74.2279 37.7941 74.054 37.9999C73.8802 38.2056 73.7778 38.4623 73.7623 38.7312C73.7204 38.9559 73.748 39.188 73.8417 39.3965C73.9353 39.605 74.0904 39.7799 74.2862 39.8979C74.8133 40.2192 75.2953 40.0232 75.7806 39.7372C76.8316 39.1201 76.6838 38.143 76.6098 37.0985H76.6034Z" fill="#FDFDFC"/>
<path d="M28.3024 38.7043C29.0192 39.5431 30.2308 40.3562 30.9314 40.4237C31.0954 40.774 30.9797 40.9026 30.594 40.9251C29.0352 41.0151 28.5017 40.864 27.0587 39.8581C26.0952 40.7187 24.8333 41.1686 23.5426 41.1115C22.0674 41.0922 20.8847 40.5137 20.2837 39.151C19.6827 37.7883 19.9944 36.4063 20.9747 35.2332C21.1775 35.0316 21.3565 34.8072 21.5082 34.5647C21.2896 33.7837 20.9425 33.0092 20.8879 32.2153C20.7947 30.904 21.6528 30.0106 22.9641 29.8531C23.2984 29.8161 23.6358 29.8161 23.9701 29.8531C24.7703 29.9302 25.577 30.0395 26.4384 30.1423V32.5046L26.3034 32.6106C26.1877 32.4789 26.0206 32.3664 25.9595 32.2121C25.7505 31.6191 25.3456 31.115 24.8115 30.7831C24.2775 30.4513 23.6462 30.3114 23.022 30.3866C22.4145 30.4766 21.9132 30.7337 21.701 31.3508C21.4568 32.0514 21.5725 32.781 22.1542 33.1924C24.1854 34.6322 25.6895 36.6345 27.6179 38.1772C27.6495 38.197 27.6843 38.2111 27.7207 38.219C28.9549 36.5927 28.4374 34.6836 26.6441 34.3205C26.5091 33.9605 26.5926 33.7869 27.0265 33.7934C28.0357 33.8084 29.0449 33.8084 30.054 33.7934C30.4365 33.7934 30.5618 33.9251 30.4526 34.2851C29.6169 34.4715 29.1863 35.0757 29.0352 35.9242C28.9002 36.8209 28.5853 37.7112 28.3024 38.7043ZM22.0031 34.9215C21.4636 35.4622 21.154 36.1905 21.139 36.9542C21.1241 37.7179 21.4049 38.4578 21.9228 39.0192C23.1923 40.4398 25.2074 40.6519 26.4898 39.662L22.0031 34.9215Z" fill="#FDFDFC"/>
<path d="M56.0093 40.4506C56.8899 40.2899 57.1277 40.0007 57.1309 39.0912C57.1309 37.9823 57.1309 36.8735 57.1309 35.7647C57.1309 34.7748 56.5267 34.3313 55.5625 34.5852C54.4409 34.8809 53.9266 35.5494 53.9266 36.6968C53.9266 37.5067 53.9266 38.3198 53.9266 39.1297C53.9266 39.9911 54.1677 40.2803 55.0322 40.4571C55.1608 40.7785 55.0933 40.9392 54.7108 40.9392C53.7467 40.9392 52.7664 40.9391 51.7958 40.9231C51.6512 40.9231 51.513 40.7303 51.2751 40.5567C52.4354 40.2032 52.6057 39.975 52.6057 38.9497V35.5558C52.6057 34.7588 52.2843 34.4085 51.4873 34.3056C51.3684 33.9617 51.4101 33.7367 51.8601 33.7785C51.919 33.7818 51.978 33.7818 52.0368 33.7785C52.5125 33.7785 53.0717 33.6339 53.4381 33.8364C53.7338 34.0035 53.7949 34.5852 53.9845 35.0384C54.6273 34.3956 55.2508 33.6757 56.2696 33.6371C57.4041 33.5953 57.9762 33.9585 58.4101 35.0352C58.6512 34.777 58.9219 34.5483 59.2168 34.3538C59.7664 34.071 60.3417 33.7303 60.933 33.6693C62.0932 33.5471 62.9128 34.3377 62.9481 35.5044C62.9867 36.7514 62.9835 37.9984 62.9481 39.2454C62.9348 39.4928 63.0026 39.7378 63.1413 39.9432C63.2799 40.1485 63.4818 40.303 63.7163 40.3831C63.8609 40.4506 63.9573 40.6306 64.073 40.756L63.9605 40.9199C62.8935 40.9199 61.8297 40.9199 60.7466 40.9038C60.618 40.9038 60.4959 40.7045 60.2999 40.5342C61.4858 40.1775 61.6112 40.0039 61.6112 38.8951C61.6112 37.8473 61.6112 36.7964 61.6112 35.7487C61.6112 34.7588 61.0102 34.3185 60.046 34.5692C58.8857 34.8713 58.4036 35.4883 58.4036 36.6711V38.9883C58.4036 39.9718 58.6254 40.2514 59.5574 40.4571C59.6603 40.7785 59.5575 40.9295 59.2039 40.9263C58.2397 40.9263 57.2756 40.9263 56.2889 40.907C56.1443 40.907 56.0028 40.7174 55.8582 40.6146L56.0093 40.4506Z" fill="#FDFDFC"/>
<path d="M63.7578 34.1342C63.896 34.0153 64.0278 33.8128 64.1692 33.7936C64.812 33.7582 65.4548 33.7936 66.1458 33.7936C66.2325 34.2403 66.3129 34.6388 66.4093 35.1081L66.9846 34.4138C67.8941 33.3115 70.4106 33.1861 71.2656 35.002C71.6388 35.7383 71.822 36.5562 71.7984 37.3814C71.7749 38.2065 71.5453 39.0127 71.1306 39.7265C70.8921 40.1333 70.5533 40.4722 70.1466 40.711C69.74 40.9497 69.2789 41.0803 68.8074 41.0903C68.3359 41.1003 67.8698 40.9894 67.4533 40.7681C67.0369 40.5468 66.6841 40.2225 66.4286 39.8261C66.4286 41.0088 66.3579 42.0759 66.4607 43.1429C66.5089 43.6121 67.0103 43.8885 67.5502 43.8757C67.6627 44.197 67.6435 44.3867 67.2481 44.3835C66.239 44.3835 65.2298 44.3835 64.2206 44.3835C63.8671 44.3835 63.7514 44.2453 63.8799 43.9142C64.8441 43.7246 65.0595 43.4771 65.0627 42.484C65.0627 40.2086 65.0627 37.9331 65.0627 35.6576C65.0595 34.6967 64.8152 34.4138 63.7578 34.1342ZM66.4061 37.2967C66.4061 37.7403 66.4061 38.0359 66.4061 38.3348C66.4159 38.823 66.6035 39.2909 66.9336 39.6507C67.2638 40.0104 67.7139 40.2374 68.1995 40.2889C69.3018 40.4046 70.1503 39.8582 70.3014 38.7591C70.4091 37.8618 70.4188 36.9555 70.3303 36.0562C70.3204 35.6833 70.1829 35.3251 69.9407 35.0414C69.6986 34.7577 69.3664 34.5657 68.9997 34.4974C68.6101 34.4077 68.2026 34.4373 67.83 34.5823C67.4575 34.7274 67.1371 34.9811 66.9107 35.3105C66.7001 35.5922 66.5471 35.9126 66.4606 36.2534C66.374 36.5942 66.3555 36.9488 66.4061 37.2967Z" fill="#FDFDFC"/>
<path d="M42.7257 29.8437V33.8161L42.594 33.9222C42.4783 33.7936 42.2983 33.6843 42.2726 33.5397C42.0662 32.6678 41.6053 31.8768 40.9484 31.2674C40.5821 30.9096 40.1294 30.6526 39.6343 30.5214C39.1393 30.3901 38.6187 30.3892 38.1232 30.5186C37.6277 30.6479 37.174 30.9033 36.8063 31.2597C36.4386 31.6162 36.1694 32.0617 36.0247 32.553C35.5597 34.1796 35.5309 35.8998 35.9411 37.541C36.076 38.2405 36.4345 38.8773 36.9625 39.3555C37.4906 39.8337 38.1596 40.1274 38.869 40.1925C40.5306 40.4207 41.9383 39.9997 42.7964 38.4184C42.9668 38.097 43.15 37.8914 43.5357 38.081C43.0696 39.8036 41.3887 41.0539 39.5311 41.1471C35.729 41.3367 33.6142 38.0456 34.0481 34.6485C34.1781 33.6931 34.4866 32.7708 34.9577 31.9295C35.9411 30.2069 37.9466 29.4516 39.936 29.9112C40.8359 30.0879 41.7326 30.5025 42.7257 29.8437Z" fill="#FDFDFC"/>
<path d="M47.9071 33.6203C49.9544 33.6203 51.4425 35.1951 51.4425 37.3453C51.4425 39.4954 49.9383 41.1088 47.8686 41.1088C45.7988 41.1088 44.3333 39.5018 44.3333 37.3067C44.3333 35.1116 45.8213 33.6171 47.9071 33.6203ZM50.1055 37.2874C50.0548 36.6989 49.969 36.114 49.8483 35.5358C49.7504 35.1573 49.5292 34.8223 49.2195 34.5836C48.9099 34.345 48.5295 34.2164 48.1385 34.2181C47.1133 34.1538 46.3612 34.5073 46.0527 35.3397C45.5689 36.6108 45.5689 38.0154 46.0527 39.2865C46.3741 40.1478 47.139 40.5013 48.19 40.4113C48.5909 40.4035 48.9773 40.2596 49.2857 40.0032C49.594 39.7468 49.8061 39.3932 49.8869 39.0004C49.9851 38.4335 50.0527 37.8616 50.0894 37.2874H50.1055Z" fill="#FDFDFC"/>
<path d="M89.2959 44.5032L88.6338 44.2236C89.1995 43.0633 89.7233 41.9417 90.2954 40.8425C90.3878 40.6845 90.4364 40.5048 90.4364 40.3219C90.4364 40.1389 90.3878 39.9592 90.2954 39.8012C89.598 38.3614 88.9327 36.9087 88.2514 35.4592C88.1563 35.1881 87.9984 34.9434 87.7906 34.7451C87.5828 34.5468 87.331 34.4005 87.0558 34.3182C86.9497 34.2893 86.8983 34.0451 86.7537 33.7847C88.081 33.7847 89.2605 33.7847 90.4401 33.7847C90.5397 33.7847 90.6329 34.0354 90.7839 34.2508C90.5894 34.2563 90.3962 34.2855 90.2086 34.3375C89.8615 34.5111 89.5048 34.7746 89.6719 35.1957C90.1412 36.3784 90.6747 37.5354 91.2499 38.8499C91.8124 37.5354 92.3362 36.3719 92.8055 35.186C92.9726 34.7618 92.542 34.3729 91.8767 34.2829C91.7706 33.9615 91.7706 33.7558 92.1981 33.7622C93.0389 33.7473 93.8798 33.7913 94.7146 33.894C94.6021 34.0386 94.4992 34.1865 94.3771 34.3247C94.0364 34.7136 93.5704 35.0414 93.3647 35.4913C92.0791 38.265 90.8418 41.0707 89.5884 43.8475C89.5048 44.0757 89.4084 44.2686 89.2959 44.5032Z" fill="#FDFDFC"/>
<path d="M54.8101 19.602C54.6944 19.242 54.7908 19.0813 55.1893 19.0877C56.1792 19.1049 57.1691 19.1049 58.159 19.0877C58.5768 19.0877 58.6057 19.287 58.5189 19.602C57.5548 19.7948 57.3716 20.129 57.7701 21.0386L59.1553 24.1882C59.7113 22.8802 60.2448 21.7199 60.698 20.5308C60.8619 20.0937 60.5116 19.8205 60.1034 19.6566C59.9622 19.5682 59.8345 19.46 59.7242 19.3352C59.872 19.2516 60.0166 19.1006 60.1677 19.0974C60.939 19.0717 61.7071 19.0974 62.6488 19.0974C62.5299 19.3448 62.4881 19.5987 62.3756 19.6373C62.1169 19.7354 61.8831 19.8899 61.6914 20.0894C61.4996 20.289 61.3546 20.5286 61.2668 20.7911C60.0006 23.6194 58.7321 26.4487 57.4615 29.2791C57.3812 29.4559 57.288 29.6326 57.1851 29.8415L56.5424 29.5426C57.0984 28.4081 57.6223 27.2929 58.1975 26.1937C58.2892 26.0343 58.3374 25.8537 58.3374 25.6699C58.3374 25.486 58.2892 25.3054 58.1975 25.146C57.4937 23.6869 56.8188 22.2149 56.131 20.7461C56.0267 20.4586 55.8505 20.2025 55.6193 20.0022C55.3881 19.802 55.1095 19.6642 54.8101 19.602Z" fill="#FDFDFC"/>
<path d="M54.714 21.9538L50.1374 22.3331C50.0884 22.8889 50.2178 23.4459 50.5067 23.9232C50.7957 24.4005 51.2292 24.7734 51.7443 24.9878C52.2475 25.2072 52.8102 25.2498 53.3408 25.1086C53.8713 24.9674 54.3383 24.6506 54.6658 24.21C54.841 24.0362 55.0338 23.8811 55.2411 23.7472C55.1723 24.28 54.9651 24.7855 54.6402 25.2133C54.3153 25.6412 53.884 25.9765 53.3892 26.1858C52.8945 26.3951 52.3535 26.4713 51.8202 26.4065C51.2869 26.3418 50.7798 26.1385 50.3495 25.817C48.3922 24.3643 48.4211 20.9157 50.3913 19.4952C50.8527 19.1596 51.4005 18.9632 51.9701 18.929C52.5396 18.8948 53.1069 19.0244 53.6052 19.3023C54.4408 19.8133 54.8683 20.8064 54.714 21.9538ZM50.1084 21.7931L53.5281 21.5071C53.7241 20.2215 53.2902 19.553 52.2843 19.4855C51.0276 19.402 50.0924 20.3565 50.1084 21.8092V21.7931Z" fill="#FDFDFC"/>
<path d="M47.7809 21.3332C47.6385 21.2145 47.5141 21.076 47.4113 20.9218C46.9517 19.9351 46.1032 19.392 45.1101 19.4884C44.6698 19.5302 44.2873 19.6877 44.1748 20.1697C44.1078 20.3816 44.1224 20.6108 44.2158 20.8124C44.3092 21.014 44.4745 21.1734 44.6794 21.2593C45.4315 21.6064 46.1996 21.9181 46.9613 22.2491C48.189 22.7859 48.7193 23.7983 48.3754 24.9585C48.0958 25.9002 47.3052 26.4305 46.19 26.424C46.0508 26.4257 45.9118 26.4128 45.7754 26.3855C45.3651 26.2433 44.9437 26.1358 44.5155 26.0641C44.093 26.0698 43.6721 26.1172 43.2588 26.2055V23.6183C43.5063 23.8497 43.6992 23.9397 43.7699 24.1068C44.3034 25.2927 45.3383 25.9355 46.5499 25.7909C47.0031 25.7363 47.4081 25.5948 47.5302 25.0806C47.5953 24.8585 47.5798 24.6204 47.4862 24.4087C47.3927 24.1969 47.2272 24.0251 47.0192 23.9236C46.5049 23.6344 45.9489 23.419 45.4122 23.1651C44.9928 22.991 44.5839 22.7924 44.1877 22.5705C43.8155 22.355 43.5261 22.0213 43.3653 21.6224C43.2046 21.2235 43.1818 20.7823 43.3006 20.369C43.5031 19.5109 44.0623 19.0352 45.0329 18.926C45.3084 18.8942 45.5872 18.9061 45.8589 18.9613C46.5017 19.1059 47.1445 19.5109 47.8998 18.9967V21.2207L47.7809 21.3332Z" fill="#FDFDFC"/>
<path d="M19.8041 23.8336C19.3445 25.762 18.1682 26.5719 16.3877 26.4048C15.6113 26.315 14.8942 25.9453 14.3707 25.365C13.8472 24.7847 13.553 24.0334 13.5434 23.2519C13.4878 22.4687 13.5973 21.6825 13.8648 20.9443C14.755 18.7331 17.6154 18.2157 19.3863 19.9384C18.9203 20.4558 18.8238 21.2914 17.9272 21.616C17.9432 21.3878 17.9464 21.2946 17.9561 21.2014C18.0043 20.5586 17.985 19.9544 17.3133 19.5945C16.7509 19.302 15.8253 19.4981 15.3271 19.9866C14.5429 20.7547 14.3629 22.5866 14.9286 23.7372C15.4685 24.801 16.5355 25.2928 17.8211 25.0967C18.114 25.0478 18.3942 24.9414 18.6458 24.7836C18.8973 24.6259 19.1151 24.4199 19.2867 24.1775C19.4412 24.038 19.6156 23.9221 19.8041 23.8336Z" fill="#FDFDFC"/>
<path d="M33.2064 16.5447C33.2039 16.6683 33.1769 16.7903 33.127 16.9034C33.077 17.0166 33.0052 17.1187 32.9155 17.2039C32.8258 17.2891 32.7201 17.3556 32.6046 17.3997C32.489 17.4438 32.3659 17.4645 32.2422 17.4606C32.0606 17.4531 31.8852 17.3922 31.738 17.2855C31.5907 17.1789 31.4781 17.0313 31.4142 16.8611C31.3504 16.6909 31.338 16.5056 31.3788 16.3284C31.4195 16.1513 31.5115 15.99 31.6433 15.8648C31.7751 15.7396 31.9409 15.6559 32.1199 15.6243C32.299 15.5927 32.4833 15.6145 32.65 15.6871C32.8167 15.7596 32.9584 15.8796 33.0574 16.0321C33.1563 16.1846 33.2081 16.3629 33.2064 16.5447Z" fill="#FDFDFC"/>
</svg>
