<svg width="95" height="61" viewBox="0 0 95 61" fill="none" xmlns="http://www.w3.org/2000/svg">
<path d="M5.57268 20.623C7.01494 20.623 8.45721 20.623 9.90318 20.623C10.2749 20.623 10.3901 20.7346 10.3901 21.0951C10.3901 24.0094 10.3901 26.9224 10.3901 29.8342C10.3901 30.1353 10.2823 30.2579 9.97381 30.2579C7.04964 30.2579 4.12422 30.2579 1.19758 30.2579C0.889057 30.2579 0.781262 30.139 0.781262 29.8379C0.766393 26.9112 0.744093 23.9858 0.714355 21.0617C0.714355 20.7271 0.851898 20.6305 1.16414 20.6342C2.63985 20.6268 4.10812 20.623 5.57268 20.623Z" fill="#FDFDFC"/>
<path d="M20.8835 25.4509C20.8835 26.8931 20.8835 28.3391 20.8835 29.7814C20.8835 30.1308 20.7683 30.2349 20.43 30.2349C17.5678 30.2349 14.7056 30.2349 11.8434 30.2349C11.52 30.2349 11.4048 30.1382 11.4048 29.8074C11.4048 26.908 11.4048 24.0074 11.4048 21.1055C11.4048 20.771 11.5312 20.6743 11.8471 20.6743C14.7341 20.6743 17.6224 20.6682 20.5118 20.6558C20.865 20.6558 20.8835 20.8602 20.8835 21.1167C20.8835 22.5627 20.8835 24.0049 20.8835 25.4509Z" fill="#FDFDFC"/>
<path d="M10.2491 36.0974C10.2491 37.5285 10.2491 38.9596 10.2491 40.3907C10.2491 40.6992 10.1599 40.7624 9.87743 40.7624C8.31251 40.7624 6.75129 40.7624 5.19008 40.7624C3.87421 40.7624 2.56206 40.7624 1.2499 40.7624C0.926508 40.7624 0.811279 40.6621 0.811279 40.335C0.811279 37.4839 0.811279 34.6366 0.811279 31.7855C0.811279 31.4472 0.922801 31.3469 1.28337 31.3617C2.25354 31.4026 3.22743 31.3915 4.1976 31.3878C6.11566 31.3878 8.03001 31.3878 9.94806 31.3543C10.2566 31.3543 10.238 31.5513 10.238 31.752L10.2491 36.0974Z" fill="#FDFDFC"/>
<path d="M16.1706 40.7691C14.7506 40.7691 13.3344 40.7691 11.9181 40.7691C11.5464 40.7691 11.4312 40.6688 11.4349 40.297C11.4535 37.695 11.4572 35.093 11.4683 32.491C11.4602 32.2154 11.4727 31.9396 11.5055 31.6658C11.525 31.6065 11.558 31.5524 11.6018 31.5079C11.6457 31.4634 11.6992 31.4297 11.7583 31.4093C11.9534 31.3869 12.1505 31.3869 12.3456 31.4093H20.3375C20.8839 31.4093 20.8876 31.4093 20.8876 31.9557C20.8876 34.7399 20.8876 37.5315 20.8876 40.3008C20.8876 40.6725 20.7724 40.7766 20.4155 40.7728C18.9956 40.7728 17.5794 40.7728 16.1631 40.7728L16.1706 40.7691Z" fill="#FDFDFC"/>
<path d="M33.9574 33.8112C34.0064 33.7255 34.0511 33.6374 34.0912 33.5472L36.6932 26.7932C36.9125 26.2319 37.143 25.678 37.3549 25.1093C37.3836 25.0019 37.4503 24.9084 37.5425 24.8463C37.6347 24.7841 37.7463 24.7574 37.8567 24.771C38.5518 24.771 39.2506 24.771 39.9457 24.771C40.2319 24.771 40.3434 24.8714 40.3434 25.1613C40.3434 28.8785 40.3434 32.5956 40.3434 36.3128C40.3434 36.6139 40.2096 36.6845 39.9383 36.6845C39.5443 36.6845 39.1502 36.6659 38.7562 36.6845C38.3622 36.7031 38.299 36.5693 38.299 36.2273C38.299 34.51 38.299 32.7889 38.299 31.0679C38.299 29.9825 38.3473 28.8934 38.3696 27.8042C38.3696 27.5738 38.3696 27.347 38.3696 27.1166H38.2767C38.2444 27.1658 38.217 27.2181 38.1949 27.2727C37.0377 30.2712 35.8853 33.2709 34.738 36.2719C34.7034 36.4111 34.6176 36.5321 34.4977 36.6106C34.3777 36.6892 34.2326 36.7196 34.0912 36.6957C32.976 36.6436 33.1805 36.915 32.7233 35.7701C31.7419 33.3093 30.7495 30.8523 29.7495 28.3915C29.6009 28.0198 29.5042 27.6258 29.3778 27.2429H29.2626C29.2328 27.3925 29.2142 27.5441 29.2069 27.6964C29.2217 30.519 29.2403 33.3403 29.2626 36.1604C29.2626 36.6734 29.2626 36.6845 28.731 36.6845C28.4411 36.6845 28.1512 36.6845 27.8649 36.6845C27.4932 36.7105 27.3892 36.573 27.3892 36.2087C27.3892 33.8595 27.3892 31.5102 27.3892 29.1461C27.3892 27.8451 27.3892 26.5441 27.3892 25.2468C27.3892 24.8751 27.5044 24.7376 27.8873 24.7562C28.5824 24.7822 29.2775 24.7562 29.9726 24.7562C30.0832 24.7443 30.1945 24.7721 30.2864 24.8348C30.3784 24.8975 30.445 24.9908 30.4744 25.0981C31.4743 27.6667 32.4817 30.2315 33.4779 32.8038C33.6042 33.1235 33.6823 33.4655 33.779 33.7963L33.9574 33.8112Z" fill="#FDFDFC"/>
<path d="M87.8968 33.2499C87.8968 34.2722 87.8968 35.2944 87.8968 36.3203C87.8968 36.5991 87.7779 36.692 87.5251 36.692C87.1534 36.692 86.7631 36.6735 86.384 36.692C86.0643 36.692 85.9825 36.5619 85.9862 36.2646C85.9862 34.2969 85.9862 32.3293 85.9862 30.3617C85.9862 29.7781 85.9639 29.7595 85.3952 29.7558C84.3804 29.7558 84.4919 29.8971 84.4882 28.86C84.4882 28.7819 84.4882 28.7039 84.4882 28.6258C84.4547 28.2913 84.5774 28.1277 84.9343 28.1649C85.1164 28.1835 85.306 28.1649 85.4844 28.1649C85.8115 28.1649 85.9119 28.0273 85.9193 27.7151C85.9027 27.1788 85.9388 26.6422 86.0271 26.113C86.1211 25.5645 86.3884 25.0607 86.7898 24.6753C87.1912 24.2899 87.7056 24.0434 88.2574 23.9719C88.7398 23.9148 89.2267 23.9061 89.7108 23.9459C90.0119 23.9459 90.1494 24.1206 90.1271 24.4328C90.1048 24.7451 90.1271 25.0387 90.1271 25.3398C90.1271 25.6409 90.0342 25.6892 89.7554 25.6112C88.6588 25.2989 87.9712 25.7599 87.8968 26.8936C87.789 28.4697 87.7928 28.124 89.0529 28.1612C89.5398 28.1612 90.0231 28.1612 90.51 28.1612C90.8817 28.1612 91.0044 28.0236 90.9858 27.6705C90.958 27.2906 90.958 26.9092 90.9858 26.5293C90.9975 26.4471 91.0277 26.3687 91.074 26.2998C91.1204 26.2309 91.1817 26.1734 91.2534 26.1316C91.6921 25.9606 92.153 25.8454 92.6028 25.7004C92.8518 25.6223 92.9448 25.7004 92.9448 25.9606C92.9448 26.5368 92.9448 27.1166 92.9448 27.6928C92.9448 28.0273 93.0637 28.176 93.4057 28.1612C93.7477 28.1463 94.1937 28.1612 94.584 28.1612C94.9 28.1612 94.9966 28.2764 95.0003 28.5775C95.0003 29.7595 95.0226 29.7633 93.822 29.7558C92.8184 29.7558 92.9559 29.7558 92.9522 30.6368C92.9522 31.685 92.9522 32.737 92.9522 33.7852C92.9496 33.9557 92.9621 34.1261 92.9894 34.2945C93.0023 34.4731 93.0592 34.6458 93.1551 34.7972C93.251 34.9485 93.3829 35.0737 93.5389 35.1617C93.695 35.2496 93.8704 35.2976 94.0495 35.3013C94.2286 35.305 94.4059 35.2643 94.5654 35.1829C94.9855 35.0267 94.9929 35.0342 94.9929 35.4877V35.8817C94.9929 36.6772 94.9929 36.7366 94.1826 36.811C93.6258 36.8757 93.0623 36.8506 92.5136 36.7366C92.0748 36.6281 91.687 36.3712 91.416 36.0094C91.145 35.6476 91.0075 35.2033 91.0267 34.7517C90.9821 33.2834 90.9969 31.8151 90.9895 30.3431C90.9895 29.7818 90.9635 29.7558 90.4208 29.7558C89.7257 29.7558 89.0306 29.7558 88.3355 29.7558C87.9935 29.7558 87.8671 29.8934 87.8708 30.2279C87.8708 31.239 87.8708 32.25 87.8708 33.2611L87.8968 33.2499Z" fill="#FDFDFC"/>
<path d="M67.8541 32.3657C67.8541 33.9009 67.382 35.2279 66.0699 36.1498C64.4901 37.2649 60.8956 37.3467 59.5871 34.7893C58.8437 33.3321 58.8958 30.6632 60.167 29.2953C60.9265 28.4976 61.9628 28.0214 63.0627 27.9646C63.8227 27.8758 64.593 27.9609 65.3153 28.2136C66.8876 28.8009 67.7909 30.128 67.8541 31.9308C67.8578 32.0757 67.8541 32.2207 67.8541 32.3657ZM65.8692 32.3843C65.8154 31.9418 65.7322 31.5035 65.6201 31.0721C65.003 29.195 62.7616 29.2656 61.8695 30.2209C61.0554 31.0944 60.8659 33.0162 61.5238 34.1462C61.754 34.5566 62.108 34.8836 62.5353 35.0806C62.9626 35.2775 63.4413 35.3343 63.9028 35.2428C64.3263 35.2051 64.7262 35.0311 65.0425 34.747C65.3589 34.4628 65.5746 34.0838 65.6573 33.6667C65.7651 33.2652 65.7911 32.8452 65.8692 32.3843Z" fill="#FDFDFC"/>
<path d="M80.1905 36.8696C78.1014 36.8696 76.7038 36.2972 75.9343 34.7099C75.6382 34.0777 75.4709 33.3929 75.4422 32.6953C75.4135 31.9978 75.5239 31.3015 75.7671 30.6471C75.9749 29.9698 76.373 29.3665 76.9141 28.9091C77.4552 28.4517 78.1164 28.1595 78.8188 28.0674C80.4432 27.7737 81.9636 27.9261 83.1828 29.1825C83.704 29.7466 84.0377 30.4582 84.1381 31.2195C84.3611 32.5614 84.2719 33.881 83.5062 35.0482C83.1561 35.6107 82.6673 36.0737 82.0866 36.3927C81.5059 36.7117 80.853 36.8759 80.1905 36.8696ZM77.4249 32.4574C77.5204 32.9803 77.6571 33.4949 77.8338 33.9963C77.9962 34.3876 78.2754 34.7193 78.6333 34.9462C78.9912 35.173 79.4104 35.2839 79.8336 35.2638C80.7778 35.2861 81.5138 34.9255 81.8855 34.0409C82.108 33.5341 82.2228 32.9866 82.2228 32.4332C82.2228 31.8797 82.108 31.3323 81.8855 30.8255C81.7434 30.4685 81.5004 30.1606 81.1862 29.9395C80.872 29.7183 80.5001 29.5935 80.1161 29.5803C79.7039 29.5195 79.2829 29.5791 78.9038 29.7519C78.5246 29.9247 78.2034 30.2032 77.9788 30.5542C77.6425 31.1343 77.4524 31.7874 77.4249 32.4574Z" fill="#FDFDFC"/>
<path d="M68.883 34.5881C69.3213 34.8167 69.7791 35.0058 70.2509 35.1531C70.7726 35.2517 71.3045 35.2854 71.8344 35.2535C72.0078 35.2392 72.1715 35.1675 72.2994 35.0496C72.4274 34.9318 72.5123 34.7746 72.5407 34.603C72.5832 34.4357 72.57 34.2591 72.5029 34.1C72.4357 33.941 72.3185 33.8082 72.169 33.722C71.8569 33.5294 71.5328 33.3568 71.1988 33.2053C70.8568 33.038 70.5074 32.8819 70.1729 32.7109C69.7577 32.5149 69.4132 32.1954 69.1863 31.7963C68.9595 31.3971 68.8613 30.9377 68.9053 30.4806C68.9069 30.0236 69.0427 29.577 69.2958 29.1964C69.5489 28.8158 69.9081 28.5179 70.329 28.3396C71.4665 27.7783 72.6448 27.8563 73.8194 28.2132C73.8786 28.2333 73.9323 28.267 73.9762 28.3115C74.0201 28.356 74.0529 28.4102 74.0722 28.4697C74.0945 28.9752 74.0722 29.4807 74.0722 30.068C73.9452 30.018 73.8211 29.9609 73.7005 29.8971C73.1667 29.6073 72.5637 29.4697 71.9571 29.4993C71.7245 29.4969 71.497 29.5672 71.3063 29.7005C71.1157 29.8338 70.9715 30.0234 70.894 30.2427C70.8624 30.4664 70.9077 30.6942 71.0225 30.8887C71.1373 31.0832 71.3148 31.2329 71.5259 31.3133C72.0984 31.6032 72.708 31.8262 73.2655 32.1422C73.5496 32.2835 73.8019 32.481 74.0073 32.7228C74.2126 32.9645 74.3667 33.2455 74.4602 33.5486C74.5537 33.8517 74.5847 34.1706 74.5512 34.4861C74.5177 34.8015 74.4205 35.1068 74.2655 35.3836C73.786 36.3203 72.9087 36.6994 71.9162 36.8295C71.0415 36.9312 70.1552 36.8489 69.3142 36.5879C69.2447 36.5781 69.178 36.5543 69.118 36.518C69.058 36.4816 69.0059 36.4336 68.9649 36.3766C68.9239 36.3197 68.8949 36.255 68.8796 36.1866C68.8642 36.1181 68.8628 36.0473 68.8756 35.9783C68.8979 35.5323 68.883 35.0825 68.883 34.5881Z" fill="#FDFDFC"/>
<path d="M52.4092 30.2239C51.0041 29.4173 49.6882 29.1831 48.5247 30.406C48.0938 30.9023 47.8303 31.5218 47.7715 32.1764C47.7128 32.831 47.8619 33.4875 48.1976 34.0526C49.3128 35.7587 50.8182 35.4353 52.398 34.6027C52.398 35.1937 52.398 35.7178 52.398 36.2234C52.398 36.2977 52.2716 36.3944 52.1862 36.4353C50.3276 37.279 47.1494 37.1081 46.0863 34.3759C45.4283 32.6772 45.7517 29.9823 47.5323 28.8002C48.9671 27.8338 50.506 27.7445 52.1267 28.2687C52.2419 28.3058 52.398 28.4508 52.4017 28.5512C52.4092 29.0716 52.4092 29.6068 52.4092 30.2239Z" fill="#FDFDFC"/>
<path d="M56.041 29.4206C56.1934 29.2161 56.29 29.1009 56.3681 28.9782C56.5995 28.6079 56.9416 28.3199 57.346 28.1551C57.7503 27.9903 58.1964 27.957 58.6207 28.0601C58.6932 28.0868 58.7584 28.1304 58.8108 28.1873C58.8631 28.2442 58.9012 28.3127 58.9218 28.3872C58.9552 28.8444 58.9218 29.3054 58.9218 29.7663C58.9218 29.9744 58.8251 30.0822 58.6281 29.9744C57.4832 29.3425 56.212 30.138 56.0261 31.6583C55.9745 32.1671 55.9547 32.6785 55.9666 33.1898C55.9666 34.2008 55.9666 35.2119 55.9666 36.223C55.9666 36.5947 55.8403 36.7099 55.4834 36.6839C55.1431 36.6597 54.8015 36.6597 54.4612 36.6839C54.0895 36.7099 53.9779 36.5761 53.9817 36.2118C53.9817 33.8477 53.9817 31.4836 53.9817 29.1232C53.9817 28.0378 53.8479 28.1642 54.9519 28.1679C55.2604 28.1679 55.6581 28.101 55.8514 28.2608C56.0447 28.4207 55.922 28.8184 55.9481 29.1121C55.9629 29.1715 55.9889 29.2273 56.041 29.4206Z" fill="#FDFDFC"/>
<path d="M44.3057 32.4693C44.3057 33.7294 44.3057 34.9895 44.3057 36.2496C44.3057 36.573 44.2053 36.7031 43.8782 36.6845C43.5068 36.6636 43.1345 36.6636 42.7631 36.6845C42.4174 36.7031 42.3096 36.5693 42.3096 36.2273C42.3096 34.3687 42.3096 32.5101 42.3096 30.6516C42.3096 29.9527 42.3096 29.2576 42.3096 28.5625C42.3096 28.2763 42.4062 28.1573 42.6813 28.1685C43.0753 28.1871 43.4693 28.1871 43.8633 28.1685C44.1719 28.1685 44.2797 28.2726 44.2759 28.5811C44.2982 29.8672 44.3057 31.1682 44.3057 32.4693Z" fill="#FDFDFC"/>
<path d="M43.3467 24.5334C43.4986 24.5242 43.6509 24.5463 43.794 24.5983C43.9371 24.6502 44.0681 24.7309 44.1788 24.8354C44.2896 24.9398 44.3778 25.0659 44.4379 25.2057C44.4981 25.3456 44.529 25.4963 44.5287 25.6485C44.5118 25.951 44.3796 26.2356 44.1595 26.4438C43.9393 26.6519 43.6478 26.7679 43.3448 26.7679C43.0418 26.7679 42.7503 26.6519 42.5301 26.4438C42.31 26.2356 42.1778 25.951 42.1609 25.6485C42.1606 25.4959 42.1916 25.3449 42.252 25.2048C42.3124 25.0647 42.4009 24.9385 42.5121 24.8339C42.6232 24.7294 42.7546 24.6488 42.8982 24.5971C43.0418 24.5454 43.1944 24.5237 43.3467 24.5334Z" fill="#FDFDFC"/>
</svg>
