<svg width="95" height="61" viewBox="0 0 95 61" fill="none" xmlns="http://www.w3.org/2000/svg">
<path d="M83.5725 17.8314L80.9205 18.9576C71.5174 22.9443 62.1155 26.9353 52.7147 30.9308C45.0239 34.1921 37.3354 37.4462 29.6491 40.6931C27.3047 41.7015 24.8469 42.4265 22.3284 42.8525C20.2098 43.198 18.0945 43.2894 16.006 42.6532C12.7303 41.6565 10.7137 38.9323 10.7153 35.5337C10.7153 33.4873 11.2705 31.5687 12.0664 29.7066C13.2537 26.9176 14.9877 24.4675 16.9324 22.1553C18.2701 20.5473 19.6847 18.9875 21.0643 17.4078L21.1529 17.461C21.0994 17.5573 21.0492 17.6537 20.994 17.7467C19.969 19.5191 19.1597 21.3812 18.7433 23.3745C18.4089 24.9692 18.3286 26.5754 18.9206 28.1286C19.7717 30.3677 21.4455 31.6667 23.7982 32.1152C25.6562 32.4468 27.5634 32.3902 29.3982 31.9491C31.6824 31.4358 33.9465 30.8278 36.2122 30.2332C44.9074 27.9497 53.5976 25.6596 62.2827 23.3629L82.1896 18.1254C82.6394 18.0058 83.0892 17.8896 83.539 17.7733L83.5725 17.8314Z" fill="#FDFDFC"/>
</svg>
