<svg width="95" height="61" viewBox="0 0 95 61" fill="none" xmlns="http://www.w3.org/2000/svg">
<path d="M8.12016 41.4522C9.11429 39.8129 9.79212 38.0017 10.1185 36.1125C10.2047 36.1493 10.2847 36.199 10.356 36.2599C10.7998 36.6982 11.3528 37.0098 11.9576 37.1625C12.5624 37.3151 13.1971 37.3032 13.7957 37.128C14.6238 36.9529 15.4009 36.5912 16.0679 36.0703C16.735 35.5494 17.2744 34.8832 17.645 34.1223C18.596 32.4506 18.8687 30.4775 18.4066 28.6105C18.1517 27.4971 17.5949 26.4754 16.7974 25.6577C15.9999 24.84 14.9925 24.2578 13.8858 23.9751C12.7314 23.6044 11.5073 23.5032 10.3077 23.6793C9.10805 23.8553 7.96466 24.3039 6.96536 24.9906C5.67528 25.8856 4.75622 27.2206 4.38074 28.7452C4.00526 30.2697 4.19919 31.8789 4.9261 33.2706C5.20207 33.7238 5.53209 34.1418 5.90889 34.5154C6.01904 34.6542 6.16493 34.7603 6.33088 34.8224C6.49683 34.8844 6.67652 34.9 6.85069 34.8676C6.96535 34.409 7.10462 33.9258 7.19471 33.4262C7.19069 33.2583 7.13006 33.0967 7.0227 32.9675C6.64636 32.3575 6.41297 31.6701 6.34003 30.957C6.26709 30.2439 6.35648 29.5236 6.60151 28.85C6.84654 28.1763 7.24087 27.5669 7.75491 27.0673C8.26895 26.5677 8.88939 26.1909 9.56974 25.9652C10.2454 25.7208 10.9642 25.618 11.6813 25.6631C12.3984 25.7082 13.0986 25.9002 13.7384 26.2273C14.3456 26.5265 14.8679 26.9736 15.2572 27.5274C15.6464 28.0813 15.8902 28.7241 15.966 29.3968C16.1166 30.2383 16.0918 31.1018 15.8931 31.9333C15.6944 32.7648 15.3261 33.5463 14.8113 34.2288C14.339 34.8486 13.6417 35.2575 12.8703 35.3672C12.5983 35.4294 12.3149 35.4211 12.047 35.3431C11.7791 35.2651 11.5355 35.12 11.3395 34.9214C11.1434 34.7229 11.0013 34.4776 10.9267 34.2087C10.852 33.9399 10.8473 33.6564 10.9129 33.3852C11.0685 32.64 11.3388 31.9193 11.5271 31.174C11.6746 30.6384 11.7706 30.0899 11.8138 29.536C11.8455 29.1888 11.7488 28.842 11.542 28.5613C11.3353 28.2806 11.0327 28.0854 10.6917 28.0127C10.4502 27.9617 10.2001 27.9678 9.96124 28.0303C9.7224 28.0929 9.50143 28.2102 9.31585 28.373C8.81876 28.757 8.48759 29.3167 8.39039 29.9373C8.24454 30.6309 8.28123 31.3505 8.49687 32.0257C8.59088 32.3298 8.59088 32.6552 8.49687 32.9594C8.11194 34.5973 7.74339 36.1616 7.35846 37.7504C7.17448 38.6305 7.11661 39.5322 7.18651 40.4285C7.18651 40.6578 7.18651 40.8871 7.18651 41.1247C2.82131 39.675 -1.22449 34.065 0.585476 27.6769C1.01537 26.188 1.74838 24.804 2.73852 23.6118C3.72865 22.4197 4.9545 21.445 6.33918 20.7491C7.72385 20.0531 9.23743 19.6509 10.7849 19.5677C12.3324 19.4844 13.8804 19.722 15.3317 20.2654C16.7831 20.8088 18.1064 21.6463 19.2187 22.7254C20.331 23.8045 21.2082 25.1019 21.7954 26.5361C22.3825 27.9703 22.6668 29.5104 22.6304 31.0597C22.5941 32.609 22.238 34.134 21.5843 35.5392C18.726 41.6324 12.0185 42.9837 8.12016 41.4522Z" fill="#FDFDFC"/>
<path d="M29.7901 32.5011C29.6919 34.0162 29.7902 35.4413 29.7165 36.8909H26.9319C26.7763 36.4241 26.7271 24.86 26.8745 23.9345C27.0068 23.9062 27.1409 23.8871 27.2758 23.8772H32.2717C32.998 23.8703 33.7177 24.0153 34.3846 24.3031C35.2585 24.6776 35.962 25.3635 36.3584 26.2277C36.6375 26.7948 36.7962 27.4136 36.8244 28.0451C36.8525 28.6765 36.7497 29.307 36.5222 29.8967C36.2701 30.6318 35.7992 31.2722 35.1726 31.7319C34.546 32.1916 33.7938 32.4485 33.0169 32.4684C32.198 32.5339 31.379 32.4684 30.56 32.4684L29.7901 32.5011ZM29.8475 29.9868C30.0604 29.9868 30.2488 29.9868 30.4372 29.9868C31.1333 29.9868 31.8376 29.9868 32.5338 29.9049C32.9423 29.8594 33.3172 29.6574 33.5799 29.3413C33.8425 29.0251 33.9725 28.6195 33.9424 28.2096C33.9673 27.8042 33.8318 27.4053 33.5652 27.0989C33.2986 26.7925 32.9223 26.6031 32.5174 26.5717C31.6984 26.4898 30.8221 26.5717 29.9785 26.5717C29.9376 26.5717 29.9048 26.6126 29.8721 26.6372C29.7116 27.7474 29.7033 28.8743 29.8475 29.9868Z" fill="#FDFDFC"/>
<path d="M80.1584 34.2777C80.0331 34.7658 79.7946 35.2175 79.4623 35.5963C77.5459 37.8895 73.1643 37.7175 71.5181 35.0312C70.9073 34.0033 70.6562 32.8013 70.8045 31.6149C70.9528 30.4284 71.492 29.3252 72.3371 28.4793C74.2372 26.7021 78.7744 26.6939 79.9783 30.4858C80.2409 31.3004 80.3681 32.1525 80.355 33.0083H73.8031C73.7462 33.4866 73.8763 33.9684 74.1663 34.353C74.4563 34.7376 74.8837 34.9952 75.3592 35.0721C75.6938 35.1525 76.0442 35.1368 76.3703 35.0266C76.6963 34.9165 76.9846 34.7165 77.2019 34.4497C77.3195 34.3031 77.4902 34.2089 77.6769 34.1876C78.4959 34.1876 79.2493 34.1876 80.0437 34.1876C80.0683 34.1876 80.1011 34.2286 80.1584 34.2777ZM77.3166 31.2147C77.3166 30.9835 77.271 30.7545 77.1825 30.5409C77.094 30.3272 76.9643 30.1331 76.8008 29.9696C76.6373 29.8061 76.4432 29.6764 76.2295 29.5879C76.0159 29.4994 75.7869 29.4539 75.5557 29.4539C75.3245 29.4539 75.0955 29.4994 74.8819 29.5879C74.6683 29.6764 74.4741 29.8061 74.3106 29.9696C74.1471 30.1331 74.0174 30.3272 73.9289 30.5409C73.8404 30.7545 73.7949 30.9835 73.7949 31.2147C74.9661 31.2311 76.1782 31.272 77.3166 31.2147Z" fill="#FDFDFC"/>
<path d="M64.7119 33.001H58.16C58.1164 33.4038 58.2057 33.8098 58.4142 34.1572C58.6226 34.5047 58.9388 34.7745 59.3147 34.9256C59.7429 35.1234 60.2285 35.1585 60.6806 35.0243C61.1328 34.8902 61.5206 34.596 61.7717 34.1967H64.5317C64.5048 34.3725 64.4608 34.5453 64.4006 34.7127C64.1774 35.2109 63.8532 35.6573 63.4486 36.0238C63.0441 36.3903 62.5679 36.6689 62.0502 36.8421C61.2722 37.1478 60.4332 37.2664 59.6009 37.1881C58.7686 37.1099 57.9665 36.837 57.2591 36.3916C56.7731 36.0966 56.3524 35.7054 56.0229 35.2421C55.6933 34.7788 55.4619 34.2531 55.3427 33.6971C54.7776 31.3385 55.5147 29.1026 57.4557 27.9642C58.0737 27.5884 58.7699 27.3594 59.4904 27.2951C60.2109 27.2307 60.9365 27.3326 61.6115 27.5929C62.2864 27.8532 62.8925 28.265 63.3832 28.7965C63.8739 29.3281 64.236 29.9652 64.4416 30.6587C64.5885 31.3015 64.6979 31.9524 64.7692 32.6079C64.7625 32.7405 64.7433 32.8721 64.7119 33.001ZM58.16 31.2156C59.3311 31.2156 60.5023 31.2811 61.6734 31.2156C61.6976 30.9865 61.6732 30.7549 61.6018 30.5359C61.5304 30.3168 61.4136 30.1153 61.259 29.9445C61.1044 29.7737 60.9155 29.6374 60.7047 29.5446C60.4939 29.4517 60.2658 29.4044 60.0354 29.4057C59.7926 29.3904 59.5494 29.4265 59.3215 29.5117C59.0937 29.5969 58.8864 29.7293 58.7132 29.9002C58.5401 30.071 58.4049 30.2765 58.3166 30.5032C58.2283 30.7299 58.1889 30.9726 58.2009 31.2156H58.16Z" fill="#FDFDFC"/>
<path d="M49.8888 36.8902H47.0715C47.0715 36.6281 47.0305 36.3988 47.0305 36.1695C47.0305 34.7035 47.0305 33.2293 47.0305 31.7552C47.0299 31.4805 47.0052 31.2065 46.9568 30.9362C46.9135 30.6374 46.7742 30.3609 46.56 30.1482C46.3458 29.9354 46.0683 29.7981 45.7693 29.7568C45.4458 29.7147 45.117 29.7701 44.8251 29.916C44.5333 30.0619 44.2917 30.2917 44.1313 30.5758C43.9107 30.9914 43.8007 31.4568 43.8119 31.9272C43.8119 33.3358 43.8119 34.7445 43.8119 36.1531V36.9312C42.8543 36.9804 41.8948 36.9804 40.9373 36.9312V27.6357H43.6563L43.771 28.6594C44.074 28.6594 44.1559 28.4301 44.2869 28.2909C44.9294 27.6723 45.7865 27.3267 46.6784 27.3267C47.5702 27.3267 48.4274 27.6723 49.0698 28.2909C49.513 28.7921 49.798 29.4133 49.8888 30.0762C49.9461 30.584 49.9461 31.1 49.9543 31.6159C49.9543 33.1229 49.9543 34.638 49.9543 36.1531C49.9707 36.3661 49.9052 36.5954 49.8888 36.8902Z" fill="#FDFDFC"/>
<path d="M86.301 30.2325C86.2244 30.0232 86.1072 29.8312 85.9559 29.6675C85.8047 29.5039 85.6226 29.3718 85.42 29.2789C85.2175 29.186 84.9985 29.1341 84.7758 29.1263C84.5531 29.1185 84.3311 29.1549 84.1225 29.2333C83.9587 29.275 83.8053 29.3504 83.6721 29.4545C83.5705 29.5152 83.4883 29.6037 83.4352 29.7096C83.3821 29.8154 83.3602 29.9342 83.3723 30.052C83.3843 30.1698 83.4297 30.2817 83.5031 30.3746C83.5765 30.4675 83.6749 30.5375 83.7867 30.5765C84.2268 30.7365 84.6786 30.8625 85.1381 30.9532C85.8424 31.117 86.5631 31.2153 87.2511 31.4364C87.8062 31.5634 88.3013 31.8762 88.6543 32.323C89.0073 32.7699 89.197 33.3239 89.1921 33.8934C89.2441 34.4947 89.0987 35.0966 88.7781 35.6079C88.4574 36.1192 87.9788 36.5121 87.4148 36.7271C86.3018 37.1776 85.0864 37.3136 83.9014 37.1202C83.1354 37.0311 82.4007 36.7647 81.7556 36.3421C81.3985 36.1019 81.0987 35.7857 80.8779 35.4162C80.657 35.0467 80.5205 34.633 80.478 34.2046C80.635 34.1758 80.7937 34.1566 80.9531 34.1473C81.5263 34.1473 82.1078 34.1473 82.6811 34.1473C82.8273 34.1304 82.9751 34.1581 83.1052 34.2268C83.2353 34.2955 83.3416 34.402 83.41 34.5322C83.7005 34.9158 84.1192 35.1823 84.5897 35.283C85.0603 35.3838 85.5514 35.312 85.9734 35.0809C86.1149 35.023 86.2359 34.9244 86.3211 34.7975C86.4063 34.6706 86.4518 34.5212 86.4518 34.3684C86.4518 34.2156 86.4063 34.0662 86.3211 33.9393C86.2359 33.8124 86.1149 33.7137 85.9734 33.6559C85.5645 33.4789 85.1354 33.3524 84.6958 33.2791C84.1635 33.1481 83.6148 33.0744 83.0579 32.9597C82.8718 32.9165 82.6885 32.8618 82.5091 32.7959C82.0015 32.6596 81.551 32.3641 81.2238 31.9529C80.8965 31.5416 80.7098 31.0362 80.691 30.511C80.6278 29.9534 80.7458 29.3903 81.0275 28.905C81.3092 28.4198 81.7397 28.0381 82.2552 27.8165C83.0365 27.464 83.8838 27.2817 84.7409 27.2817C85.598 27.2817 86.4452 27.464 87.2265 27.8165C87.67 27.9896 88.0574 28.2813 88.3463 28.6597C88.6352 29.0382 88.8144 29.4888 88.8644 29.9622C88.8726 30.0028 88.8726 30.0446 88.8644 30.0851C88.8644 30.126 88.8644 30.1588 88.7989 30.2489L86.301 30.2325Z" fill="#FDFDFC"/>
<path d="M92.902 24.6381V27.4063C93.377 27.7093 93.8684 27.4964 94.3761 27.6029C94.4465 28.1877 94.4465 28.7788 94.3761 29.3637L92.9184 29.4374C92.9184 29.7076 92.8692 29.937 92.8692 30.1663V33.4914C92.8692 34.4987 93.033 34.6707 94.0322 34.7772L94.2697 34.8181C94.4352 35.5155 94.4352 36.2419 94.2697 36.9393C93.2684 37.1091 92.2411 37.0389 91.2722 36.7346C90.9714 36.6195 90.7054 36.4285 90.5002 36.1802C90.295 35.932 90.1575 35.6348 90.101 35.3177C90.0426 34.9823 90.0125 34.6426 90.011 34.3022C90.011 32.9345 90.011 31.5668 90.011 30.2072V29.4865L89.192 29.3309C89.0936 28.7729 89.0936 28.2019 89.192 27.6438L90.0601 27.48V24.6381H92.902Z" fill="#FDFDFC"/>
<path d="M50.9528 29.4625L50.0682 29.3314C49.974 28.7648 49.974 28.1864 50.0682 27.6198L50.9855 27.5051V24.6141C51.9437 24.5486 52.82 24.6141 53.7619 24.6141C53.9584 25.6051 53.7619 26.5633 53.9011 27.5461L55.2115 27.6607V29.3888L53.9257 29.4707C53.8883 29.6489 53.8636 29.8295 53.852 30.0112C53.852 31.2069 53.852 32.3945 53.852 33.5902C53.852 33.6966 53.852 33.8031 53.852 33.9096C53.9175 34.4993 54.0813 34.6712 54.6709 34.7777C54.8184 34.7777 54.9658 34.7777 55.2033 34.8514C55.2524 35.5576 55.2524 36.2664 55.2033 36.9726C54.1632 37.1649 53.0905 37.0715 52.0993 36.7023C51.7627 36.5346 51.4808 36.2746 51.2865 35.9526C51.0922 35.6307 50.9935 35.2601 51.0019 34.8842C51.0019 34.1962 51.0019 33.5165 51.0019 32.8367V30.0931C50.9855 29.9047 50.9691 29.7 50.9528 29.4625Z" fill="#FDFDFC"/>
<path d="M67.9876 27.5543L68.0613 28.8319C68.4053 28.8319 68.4544 28.5453 68.5936 28.3897C68.8587 28.0429 69.2154 27.7771 69.6235 27.6223C70.0316 27.4675 70.4748 27.4297 70.9032 27.5134V29.8884L70.035 30.0358C69.6196 30.0947 69.2322 30.2793 68.9248 30.5648C68.6173 30.8502 68.4046 31.223 68.3152 31.6329C68.2208 32.0245 68.1713 32.4257 68.1677 32.8286C68.1677 33.9424 68.1677 35.048 68.1677 36.1619C68.1677 36.3912 68.1677 36.6123 68.1677 36.8908H65.4241L65.3505 36.817C65.3435 36.7986 65.3435 36.7782 65.3505 36.7597C65.3255 36.6575 65.309 36.5534 65.3013 36.4485C65.3013 33.5902 65.3013 30.7156 65.3013 27.8737C65.3181 27.7834 65.3456 27.6955 65.3832 27.6116C66.1612 27.5379 67.0457 27.6362 67.9876 27.5543Z" fill="#FDFDFC"/>
<path d="M37.4066 36.8827C37.2674 36.3832 37.2346 28.3899 37.4066 27.6118H40.142V36.8008C39.2399 36.9694 38.3171 36.997 37.4066 36.8827Z" fill="#FDFDFC"/>
<path d="M37.0062 24.9997C37.0105 24.7695 37.0601 24.5424 37.1521 24.3314C37.2442 24.1205 37.3769 23.9297 37.5427 23.77C37.7085 23.6103 37.9041 23.4848 38.1184 23.4007C38.3327 23.3166 38.5614 23.2755 38.7915 23.2798C39.0217 23.2841 39.2488 23.3337 39.4598 23.4257C39.6708 23.5178 39.8616 23.6505 40.0213 23.8163C40.181 23.9821 40.3065 24.1777 40.3906 24.392C40.4747 24.6063 40.5158 24.835 40.5115 25.0652C40.5071 25.2953 40.4575 25.5224 40.3655 25.7334C40.2734 25.9444 40.1407 26.1352 39.9749 26.2949C39.8092 26.4546 39.6135 26.5801 39.3992 26.6642C39.185 26.7483 38.9562 26.7894 38.7261 26.7851C38.4959 26.7808 38.2688 26.7312 38.0578 26.6391C37.8468 26.5471 37.656 26.4144 37.4963 26.2486C37.3366 26.0828 37.2111 25.8871 37.127 25.6729C37.0429 25.4586 37.0019 25.2298 37.0062 24.9997Z" fill="#FDFDFC"/>
</svg>
