<svg width="427" height="428" viewBox="0 0 427 428" fill="none" xmlns="http://www.w3.org/2000/svg">
<g clip-path="url(#clip0)">
<path d="M395.048 342.762C385.404 342.762 377.619 334.977 377.619 325.334C377.619 251.669 317.665 191.715 244 191.715C170.335 191.715 110.381 251.669 110.381 325.334C110.381 334.977 102.596 342.762 92.9525 342.762C83.3087 342.762 75.5239 334.977 75.5239 325.334C75.5239 232.381 151.048 156.857 244 156.857C336.953 156.857 412.476 232.381 412.476 325.334C412.476 334.977 404.692 342.762 395.048 342.762Z" fill="url(#paint0_linear)"/>
<path d="M441.524 336.952C435.133 336.952 429.905 331.724 429.905 325.333C429.905 284.783 417.008 246.208 392.724 213.79C375.76 191.249 353.568 172.427 328.47 159.646C302.211 146.168 273.745 139.429 244 139.429C141.52 139.429 58.0953 222.853 58.0953 325.333C58.0953 331.724 52.8667 336.952 46.4762 336.952C40.0857 336.952 34.8572 331.724 34.8572 325.333C34.8572 209.956 128.623 116.19 244 116.19C277.463 116.19 309.415 123.859 339.044 138.964C367.278 153.371 392.259 174.402 411.314 199.848C438.619 236.215 453.143 279.67 453.143 325.333C453.143 331.724 447.914 336.952 441.524 336.952Z" fill="url(#paint1_linear)"/>
<path d="M395.048 342.761C404.673 342.761 412.476 334.958 412.476 325.333C412.476 315.707 404.673 307.904 395.048 307.904C385.422 307.904 377.619 315.707 377.619 325.333C377.619 334.958 385.422 342.761 395.048 342.761Z" fill="#FF0064"/>
<path d="M244 342.762C240.747 342.762 237.61 341.833 234.705 340.09C226.571 334.977 224.248 324.172 229.36 316.038L310.693 188.229C315.806 180.095 326.611 177.772 334.745 182.884C342.878 187.996 345.202 198.802 340.09 206.935L258.756 334.745C255.387 339.857 249.693 342.762 244 342.762Z" fill="url(#paint2_linear)"/>
<path d="M325.333 214.953C334.959 214.953 342.762 207.15 342.762 197.524C342.762 187.899 334.959 180.096 325.333 180.096C315.708 180.096 307.905 187.899 307.905 197.524C307.905 207.15 315.708 214.953 325.333 214.953Z" fill="#FF0064"/>
<path d="M244 342.761C253.626 342.761 261.429 334.958 261.429 325.333C261.429 315.707 253.626 307.904 244 307.904C234.375 307.904 226.572 315.707 226.572 325.333C226.572 334.958 234.375 342.761 244 342.761Z" fill="#FF0064"/>
</g>
<defs>
<linearGradient id="paint0_linear" x1="119.968" y1="205.989" x2="386.221" y2="372.363" gradientUnits="userSpaceOnUse">
<stop stop-color="#FF4B7D"/>
<stop offset="0.0901231" stop-color="#F84577"/>
<stop offset="0.2201" stop-color="#E53668"/>
<stop offset="0.3735" stop-color="#C61C4F"/>
<stop offset="0.5103" stop-color="#A40034"/>
<stop offset="0.5977" stop-color="#AE083C"/>
<stop offset="0.7461" stop-color="#C91E51"/>
<stop offset="0.9364" stop-color="#F44274"/>
<stop offset="0.9798" stop-color="#FF4B7D"/>
</linearGradient>
<linearGradient id="paint1_linear" x1="34.863" y1="226.572" x2="453.149" y2="226.572" gradientUnits="userSpaceOnUse">
<stop stop-color="#00B100"/>
<stop offset="1" stop-color="#50FB44"/>
</linearGradient>
<linearGradient id="paint2_linear" x1="215.986" y1="319.063" x2="353.358" y2="203.794" gradientUnits="userSpaceOnUse">
<stop stop-color="#F5F5EF"/>
<stop offset="1" stop-color="#FF4B7D"/>
</linearGradient>
<clipPath id="clip0">
<path d="M0 0H427V408C427 419.046 418.046 428 407 428H0V0Z" fill="white"/>
</clipPath>
</defs>
</svg>
