<svg width="360" height="510" viewBox="0 0 360 510" fill="none" xmlns="http://www.w3.org/2000/svg">
<g clip-path="url(#clip0)">
<path d="M183.23 487.677C182.619 487.679 182.021 487.503 181.507 487.173C180.993 486.843 180.586 486.372 180.333 485.816C176.464 477.277 169.977 459.132 169.977 433.369C169.977 432.526 170.311 431.718 170.907 431.123C171.503 430.527 172.311 430.192 173.153 430.192C173.996 430.192 174.804 430.527 175.4 431.123C175.995 431.718 176.33 432.526 176.33 433.369C176.33 457.918 182.468 475.123 186.121 483.192C186.339 483.676 186.433 484.206 186.394 484.735C186.355 485.265 186.184 485.776 185.896 486.222C185.609 486.668 185.214 487.035 184.748 487.289C184.283 487.543 183.761 487.677 183.23 487.677V487.677Z" fill="url(#paint0_linear)"/>
<path d="M154.157 322.846C153.388 322.845 152.647 322.565 152.069 322.059C151.491 321.552 151.116 320.854 151.014 320.093C150.912 319.331 151.089 318.559 151.512 317.918C151.936 317.277 152.577 316.811 153.318 316.607C181.241 308.983 197.309 282.56 197.467 282.299C197.899 281.575 198.6 281.053 199.417 280.846C200.233 280.639 201.099 280.765 201.823 281.197C202.546 281.628 203.069 282.329 203.276 283.146C203.482 283.963 203.356 284.828 202.925 285.552C202.226 286.727 185.44 314.428 154.995 322.738C154.722 322.811 154.44 322.847 154.157 322.846V322.846Z" fill="#40F6CE"/>
<path d="M130.84 386.507C130.021 386.507 129.234 386.192 128.642 385.626C128.05 385.06 127.699 384.288 127.663 383.47C127.6 382.015 127.492 380.357 127.365 378.432C126.787 369.626 125.91 356.316 128.693 344.352C132.155 329.453 140.44 320.12 153.312 316.607C154.114 316.414 154.96 316.542 155.67 316.962C156.38 317.381 156.899 318.061 157.117 318.857C157.335 319.653 157.235 320.502 156.838 321.225C156.44 321.948 155.778 322.489 154.989 322.732C144.392 325.622 137.835 333.17 134.881 345.788C132.308 356.836 133.115 369.079 133.705 378.012C133.826 379.918 133.947 381.672 134.01 383.197C134.046 384.038 133.747 384.86 133.177 385.481C132.608 386.101 131.815 386.47 130.973 386.507H130.84Z" fill="url(#paint1_linear)"/>
<path d="M200.301 287.509C199.597 287.51 198.912 287.278 198.354 286.848C197.797 286.417 197.398 285.814 197.22 285.133C197.043 284.451 197.097 283.73 197.374 283.082C197.651 282.435 198.135 281.898 198.751 281.556C206.55 276.98 213.937 271.736 220.829 265.882C230.956 257.254 243.548 243.931 246.064 229.458C246.225 228.644 246.698 227.925 247.382 227.455C248.066 226.986 248.906 226.802 249.724 226.944C250.542 227.086 251.271 227.542 251.757 228.215C252.242 228.888 252.445 229.724 252.322 230.545C250.041 243.696 240.804 257.229 224.857 270.793C217.685 276.898 209.986 282.356 201.851 287.102C201.378 287.368 200.844 287.508 200.301 287.509V287.509Z" fill="url(#paint2_linear)"/>
<path d="M251.039 232.514C250.557 232.511 250.081 232.401 249.648 232.19C249.272 232.007 248.937 231.752 248.66 231.439C248.384 231.127 248.172 230.762 248.036 230.368C247.9 229.973 247.844 229.555 247.87 229.139C247.895 228.722 248.003 228.315 248.186 227.94C254.336 215.347 263.86 207.164 273.072 199.248C284.331 189.565 294.966 180.423 299.185 163.803C299.279 163.39 299.456 163.001 299.703 162.657C299.95 162.314 300.264 162.023 300.625 161.802C300.986 161.582 301.388 161.436 301.807 161.372C302.225 161.309 302.652 161.33 303.062 161.435C303.473 161.539 303.858 161.724 304.196 161.979C304.533 162.234 304.817 162.554 305.029 162.92C305.241 163.287 305.378 163.692 305.432 164.111C305.485 164.531 305.455 164.958 305.341 165.365C300.633 183.93 288.727 194.165 277.215 204.064C268.091 211.904 259.47 219.312 253.898 230.748C253.634 231.28 253.227 231.728 252.721 232.04C252.216 232.352 251.633 232.516 251.039 232.514V232.514Z" fill="url(#paint3_linear)"/>
<path d="M183.223 487.677C182.513 487.676 181.824 487.437 181.266 486.998C158.88 469.32 131.161 459.757 102.637 459.869C96.1329 459.867 89.638 460.36 83.2085 461.343C82.7909 461.419 82.3623 461.41 81.9479 461.318C81.5336 461.226 81.142 461.051 80.7963 460.805C80.4506 460.558 80.1577 460.245 79.935 459.884C79.7124 459.522 79.5644 459.12 79.4998 458.701C79.4353 458.281 79.4555 457.853 79.5592 457.441C79.663 457.03 79.8482 456.643 80.1039 456.304C80.3596 455.965 80.6806 455.681 81.048 455.468C81.4154 455.256 81.8216 455.119 82.2428 455.066C88.9917 454.032 95.8095 453.514 102.637 453.515C132.59 453.408 161.693 463.463 185.193 482.036C185.712 482.444 186.091 483.005 186.277 483.639C186.463 484.273 186.446 484.95 186.23 485.574C186.013 486.199 185.607 486.74 185.068 487.123C184.529 487.505 183.884 487.71 183.223 487.709V487.677Z" fill="#40F6CE"/>
<path d="M173.07 444.462C172.228 444.462 171.42 444.127 170.824 443.532C170.229 442.936 169.894 442.128 169.894 441.285C169.894 435.307 169.945 417.39 169.945 417.39C169.93 415.444 170.38 413.523 171.257 411.786C172.135 410.048 173.414 408.546 174.989 407.403C180.116 403.762 186.063 402.187 191.813 400.656C202.69 397.771 212.08 395.274 214.755 379.569C215.81 372.834 216.199 366.011 215.918 359.2C215.784 352.542 215.689 347.764 219.628 345.922C223.173 344.289 225.511 342.211 226.026 340.235C226.151 339.71 226.152 339.162 226.028 338.636C225.905 338.11 225.66 337.62 225.314 337.205C222.506 333.323 218.402 330.051 214.062 326.588C210.7 324.022 207.516 321.231 204.532 318.234C201.648 315.203 200.371 311.55 200.39 306.397C200.492 283.023 192.486 262.134 177.855 247.578C163.629 233.423 143.546 225.741 121.31 225.977H121.189C110 225.647 98.8817 227.866 88.6761 232.466C78.4706 237.065 69.4446 243.925 62.2807 252.527C47.0327 270.704 40.7428 295.241 45.457 318.189C45.5591 318.605 45.5763 319.036 45.5075 319.458C45.4387 319.881 45.2853 320.284 45.0566 320.646C44.8279 321.007 44.5286 321.319 44.1766 321.562C43.8245 321.805 43.4271 321.974 43.008 322.06C42.5889 322.145 42.1569 322.145 41.7378 322.06C41.3187 321.975 40.9211 321.805 40.569 321.563C40.2168 321.32 39.9173 321.008 39.6885 320.647C39.4596 320.286 39.3061 319.882 39.2371 319.46C34.1544 294.682 40.9271 268.112 57.414 248.461C65.184 239.126 74.9739 231.679 86.0441 226.682C97.1143 221.685 109.175 219.269 121.316 219.617C145.224 219.414 166.889 227.743 182.308 243.093C198.16 258.862 206.826 281.359 206.718 306.442C206.718 310.965 207.944 312.649 209.113 313.875C211.903 316.659 214.874 319.255 218.008 321.645C222.455 325.216 227.125 328.914 230.441 333.501C231.344 334.673 231.968 336.036 232.265 337.486C232.562 338.936 232.525 340.435 232.157 341.868C231.14 345.737 227.817 349.092 222.544 351.582C222.118 352.662 222.188 356.214 222.245 359.092C222.353 364.467 222.5 371.837 220.975 380.655C217.614 400.389 204.748 403.801 193.401 406.818C187.956 408.267 182.81 409.633 178.617 412.606C177.869 413.162 177.264 413.889 176.853 414.725C176.442 415.561 176.236 416.484 176.254 417.416C176.254 417.416 176.203 435.332 176.203 441.304C176.198 442.136 175.867 442.932 175.281 443.523C174.696 444.113 173.902 444.45 173.07 444.462V444.462Z" fill="#40F6CE"/>
<path d="M61.0164 422.829C48.1356 422.807 35.6675 418.284 25.7689 410.042C15.8703 401.8 9.16384 390.357 6.80972 377.693C4.45559 365.029 6.60186 351.941 12.8772 340.692C19.1526 329.443 29.1623 320.742 41.1749 316.092C41.57 315.903 42.0001 315.797 42.4381 315.782C42.8761 315.767 43.3126 315.842 43.72 316.004C44.1274 316.165 44.497 316.409 44.8055 316.721C45.114 317.032 45.3547 317.404 45.5125 317.813C45.6704 318.221 45.7419 318.659 45.7226 319.096C45.7033 319.534 45.5936 319.963 45.4004 320.357C45.2072 320.75 44.9347 321.099 44.6 321.382C44.2654 321.665 43.8758 321.876 43.4557 322.001C36.177 324.806 29.6755 329.312 24.4946 335.144C19.3137 340.975 15.6039 347.962 13.6754 355.52C11.7469 363.078 11.6556 370.988 13.4093 378.589C15.1629 386.19 18.7105 393.26 23.7556 399.21C28.8006 405.159 35.1964 409.814 42.4084 412.786C49.6205 415.758 57.4392 416.961 65.211 416.293C72.9827 415.626 80.4818 413.107 87.0813 408.949C93.6808 404.79 99.189 399.112 103.145 392.39C103.573 391.664 104.272 391.137 105.089 390.926C105.905 390.715 106.771 390.837 107.498 391.265C108.224 391.693 108.75 392.392 108.961 393.209C109.172 394.025 109.05 394.891 108.622 395.617C103.723 403.887 96.7593 410.743 88.4143 415.513C80.0692 420.283 70.6285 422.804 61.0164 422.829V422.829Z" fill="#40F6CE"/>
<path d="M221.61 417.397C220.768 417.397 219.96 417.062 219.364 416.466C218.768 415.871 218.434 415.063 218.434 414.22L218.364 395.065C218.343 392.9 218.84 390.763 219.814 388.83C220.788 386.896 222.21 385.224 223.961 383.953C229.787 379.817 236.585 378.012 243.161 376.265C255.823 372.898 266.764 369.994 269.89 351.633C271.51 342.103 271.344 334.028 271.23 328.126C271.078 320.375 270.976 315.254 275.226 313.297C279.477 311.34 282.215 308.85 282.85 306.448C283.014 305.775 283.019 305.073 282.863 304.398C282.707 303.723 282.396 303.094 281.955 302.56C278.689 298.049 273.949 294.301 268.93 290.266C265.188 287.28 261.306 284.199 257.996 280.704C254.686 277.21 253.339 273.29 253.364 267.413C253.479 240.411 244.222 216.269 227.316 199.432C210.867 183.066 187.664 174.171 161.984 174.425H161.863C145.478 173.955 130.275 177.672 116.678 185.474C103.847 192.911 93.1306 203.505 85.5469 216.25C67.8592 245.71 67.694 282.998 85.1149 313.57C92.9867 327.376 102.555 336.074 110.998 343.749C123.368 354.981 134.042 364.683 134.042 385.096C134.042 385.939 133.707 386.747 133.112 387.343C132.516 387.938 131.708 388.273 130.865 388.273C130.023 388.273 129.215 387.938 128.619 387.343C128.023 386.747 127.689 385.939 127.689 385.096C127.689 367.498 118.896 359.505 106.723 348.45C97.9296 340.458 87.9612 331.404 79.5875 316.715C61.0357 284.154 61.2263 244.408 80.0894 212.984C88.2289 199.306 99.7277 187.934 113.495 179.947C128.108 171.566 144.411 167.57 161.965 168.059C189.316 167.812 214.126 177.354 231.782 194.915C249.915 212.959 259.832 238.715 259.737 267.432C259.737 272.267 260.874 274.478 262.621 276.327C265.645 279.504 269.337 282.458 272.914 285.304C278.041 289.396 283.346 293.627 287.12 298.843C288.12 300.134 288.811 301.636 289.141 303.235C289.472 304.834 289.432 306.487 289.026 308.068C287.889 312.414 284.102 316.194 278.073 319.009C277.437 320.089 277.552 324.473 277.622 328.005C277.742 334.174 277.907 342.618 276.192 352.72C272.38 375.103 257.767 378.991 244.832 382.422C238.523 384.099 232.57 385.681 227.678 389.15C226.755 389.833 226.008 390.727 225.5 391.757C224.991 392.787 224.736 393.923 224.755 395.071L224.825 414.22C224.825 415.063 224.49 415.871 223.895 416.466C223.299 417.062 222.491 417.397 221.648 417.397H221.61Z" fill="#0093FF"/>
<path d="M82.9866 461.044C82.3872 461.046 81.7996 460.877 81.2918 460.559C80.784 460.24 80.3767 459.785 80.1169 459.245C79.8571 458.704 79.7554 458.102 79.8236 457.506C79.8919 456.911 80.1272 456.347 80.5024 455.879C80.5977 455.758 80.9789 455.32 81.6079 454.608C110.458 421.793 127.682 395.808 127.682 385.103C127.682 384.26 128.017 383.452 128.613 382.856C129.209 382.261 130.017 381.926 130.859 381.926C131.702 381.926 132.51 382.261 133.105 382.856C133.701 383.452 134.036 384.26 134.036 385.103C134.036 402.06 104.175 438.56 86.3856 458.802L85.458 459.869C85.1616 460.239 84.7852 460.537 84.3572 460.74C83.9291 460.944 83.4605 461.048 82.9866 461.044Z" fill="url(#paint4_linear)"/>
<path d="M230.136 469.304C229.201 469.303 228.293 468.99 227.557 468.414C210.72 455.225 177.264 441.133 133.858 441.133C133.015 441.133 132.207 440.798 131.611 440.202C131.016 439.607 130.681 438.799 130.681 437.956C130.681 437.114 131.016 436.306 131.611 435.71C132.207 435.114 133.015 434.779 133.858 434.779C161.266 434.779 198.694 441.26 225.473 459.081C221.902 448.916 218.783 435.161 218.427 413.553C218.42 413.136 218.495 412.721 218.648 412.333C218.801 411.945 219.029 411.591 219.319 411.291C219.609 410.991 219.956 410.751 220.338 410.585C220.721 410.418 221.133 410.329 221.55 410.322C221.967 410.315 222.381 410.39 222.77 410.543C223.158 410.696 223.512 410.925 223.812 411.214C224.112 411.504 224.352 411.851 224.518 412.233C224.684 412.616 224.773 413.028 224.78 413.445C225.206 439.24 229.673 453.223 233.993 463.49C234.261 464.127 234.368 464.82 234.303 465.507C234.239 466.195 234.006 466.856 233.624 467.431C233.242 468.007 232.724 468.479 232.115 468.806C231.507 469.132 230.827 469.303 230.136 469.304Z" fill="#0093FF"/>
<path d="M287.831 447.073C287.119 447.073 286.428 446.834 285.868 446.394C275.184 437.99 263.334 431.186 250.69 426.196C250.294 426.049 249.931 425.825 249.622 425.535C249.314 425.246 249.067 424.899 248.895 424.513C248.722 424.127 248.629 423.71 248.62 423.288C248.61 422.865 248.686 422.445 248.841 422.052C248.996 421.659 249.228 421.301 249.523 420.999C249.818 420.696 250.171 420.456 250.56 420.292C250.95 420.127 251.368 420.042 251.79 420.042C252.213 420.041 252.631 420.125 253.021 420.288C262.869 424.172 272.266 429.114 281.046 435.028C277.615 424.417 274.184 408.464 274.184 387.149C274.175 387.013 274.175 386.877 274.184 386.742V367.529C274.164 365.15 274.713 362.801 275.785 360.677C276.857 358.553 278.421 356.715 280.347 355.318C286.866 350.687 294.515 348.654 301.91 346.69C316.364 342.878 328.849 339.537 332.406 318.52C334.243 307.719 334.065 298.551 333.931 291.836C333.76 283.233 333.652 277.553 338.207 275.457C343.074 273.214 346.301 270.291 347.045 267.445C347.248 266.625 347.257 265.769 347.07 264.945C346.884 264.121 346.507 263.352 345.971 262.699C342.241 257.553 336.86 253.258 331.168 248.722C326.955 245.354 322.591 241.879 318.848 237.921C315.233 234.109 313.702 229.712 313.728 223.188C313.861 192.552 303.353 165.156 284.146 146.045C265.474 127.468 239.127 117.379 209.996 117.658H209.876C191.273 117.125 174.017 121.35 158.572 130.2C144.015 138.651 131.856 150.678 123.248 165.143C113.655 181.244 108.43 199.569 108.089 218.308C107.733 238.394 112.829 258.201 122.835 275.622C131.539 290.87 142.117 301.327 151.425 310.533C165.72 324.638 178.064 336.817 178.064 360.058C178.064 360.9 177.73 361.708 177.134 362.304C176.538 362.9 175.73 363.235 174.888 363.235C174.045 363.235 173.237 362.9 172.642 362.304C172.046 361.708 171.711 360.9 171.711 360.058C171.711 339.473 160.79 328.698 146.933 315.057C137.308 305.565 126.399 294.803 117.256 278.767C106.701 260.344 101.337 239.404 101.735 218.175C102.131 198.331 107.696 178.933 117.879 161.897C127.048 146.504 139.994 133.707 155.491 124.717C171.946 115.282 190.301 110.771 210.073 111.33C240.874 111.07 268.828 121.813 288.702 141.566C309.128 161.897 320.297 190.887 320.157 223.238C320.157 228.842 321.491 231.421 323.531 233.563C326.974 237.184 331.155 240.519 335.208 243.728C340.984 248.334 346.956 253.099 351.193 258.976C352.284 260.387 353.037 262.028 353.397 263.774C353.757 265.52 353.714 267.325 353.271 269.052C352 273.875 347.756 278.074 340.99 281.2C340.17 282.223 340.278 287.477 340.355 291.708C340.494 298.659 340.679 308.183 338.741 319.562C334.478 344.607 318.073 348.965 303.594 352.815C296.427 354.721 289.661 356.513 284.07 360.477C282.972 361.289 282.083 362.352 281.478 363.576C280.872 364.8 280.567 366.151 280.589 367.517V387.53C280.595 387.655 280.595 387.78 280.589 387.905C280.703 416.126 287.005 434.246 290.754 442.544C290.973 443.028 291.067 443.559 291.027 444.089C290.988 444.618 290.816 445.13 290.528 445.576C290.24 446.022 289.844 446.389 289.377 446.643C288.911 446.897 288.388 447.029 287.857 447.029L287.831 447.073Z" fill="#00E200"/>
<path d="M107.075 396.786C108.715 396.153 109.534 394.318 108.904 392.688C108.275 391.058 106.435 390.25 104.795 390.883C103.155 391.517 102.336 393.352 102.966 394.982C103.595 396.612 105.435 397.42 107.075 396.786Z" fill="#00E3B8"/>
<path d="M251.788 426.393C253.543 426.393 254.965 424.971 254.965 423.216C254.965 421.462 253.543 420.04 251.788 420.04C250.034 420.04 248.612 421.462 248.612 423.216C248.612 424.971 250.034 426.393 251.788 426.393Z" fill="#00AD00"/>
<path d="M134.864 440.899C136.503 440.265 137.322 438.43 136.693 436.8C136.063 435.17 134.223 434.362 132.583 434.996C130.944 435.629 130.125 437.464 130.754 439.094C131.384 440.724 133.224 441.532 134.864 440.899Z" fill="#0076E3"/>
<path d="M83.7869 461.15C85.4268 460.517 86.2457 458.682 85.6161 457.052C84.9865 455.422 83.1467 454.614 81.5068 455.247C79.867 455.881 79.048 457.715 79.6777 459.345C80.3073 460.976 82.1471 461.783 83.7869 461.15Z" fill="#00E3B8"/>
<path d="M396.963 134.47C396.157 134.476 395.38 134.175 394.787 133.629C394.195 133.083 393.832 132.332 393.773 131.529C393.713 130.726 393.96 129.93 394.466 129.302C394.971 128.674 395.695 128.262 396.493 128.148C397.409 126.969 398.014 125.578 398.251 124.104C398.488 122.63 398.351 121.119 397.851 119.712C397.35 118.305 396.504 117.047 395.39 116.053C394.275 115.059 392.929 114.361 391.474 114.025C390.748 113.858 390.105 113.441 389.656 112.848C389.206 112.254 388.98 111.522 389.015 110.778C389.015 110.48 389.015 110.181 389.015 109.876C388.988 104.605 387.089 99.5143 383.658 95.5129C380.226 91.5115 375.484 88.8595 370.278 88.0299C365.072 87.2003 359.741 88.2471 355.235 90.9835C350.73 93.72 347.343 97.9682 345.679 102.97C345.485 103.564 345.119 104.088 344.629 104.476C344.138 104.863 343.544 105.098 342.921 105.149C339.334 105.447 335.977 107.039 333.476 109.628C330.974 112.217 329.499 115.626 329.325 119.222C329.306 119.682 329.187 120.132 328.977 120.541C328.767 120.95 328.47 121.309 328.108 121.593C327.745 121.876 327.325 122.077 326.877 122.182C326.429 122.288 325.964 122.294 325.513 122.202C324.069 121.874 322.569 121.876 321.125 122.205C319.681 122.535 318.33 123.185 317.171 124.108C316.136 124.958 315.307 126.031 314.745 127.247C314.183 128.462 313.902 129.789 313.925 131.128C313.925 131.971 313.59 132.779 312.994 133.374C312.399 133.97 311.591 134.305 310.748 134.305C309.906 134.305 309.097 133.97 308.502 133.374C307.906 132.779 307.571 131.971 307.571 131.128C307.566 128.853 308.065 126.604 309.034 124.545C310.004 122.486 311.418 120.668 313.175 119.222C316.049 116.895 319.642 115.637 323.34 115.664H323.385C324.238 111.524 326.308 107.734 329.329 104.777C332.35 101.821 336.185 99.8333 340.342 99.0692C342.816 93.0521 347.268 88.0588 352.963 84.9137C358.658 81.7686 365.255 80.6598 371.665 81.7705C378.076 82.8812 383.915 86.1449 388.22 91.0227C392.525 95.9005 395.038 102.101 395.343 108.599C397.556 109.526 399.52 110.962 401.073 112.791C402.627 114.62 403.727 116.789 404.284 119.123C404.842 121.457 404.84 123.89 404.28 126.223C403.72 128.556 402.617 130.725 401.061 132.551C400.557 133.148 399.93 133.629 399.222 133.96C398.515 134.291 397.744 134.465 396.963 134.47Z" fill="#00E200"/>
<path d="M294.547 68.426C293.705 68.4394 292.891 68.1177 292.286 67.5315C291.681 66.9453 291.333 66.1426 291.32 65.3001C291.306 64.4576 291.628 63.6443 292.214 63.039C292.8 62.4337 293.603 62.0861 294.446 62.0726C295.776 60.4762 296.694 58.578 297.12 56.5444C297.546 54.5107 297.466 52.4037 296.889 50.4078C296.311 48.4119 295.253 46.5881 293.807 45.0961C292.361 43.6041 290.571 42.4895 288.594 41.8499C287.587 41.5279 286.708 40.894 286.084 40.0398C285.461 39.1855 285.125 38.1552 285.125 37.0976C285.132 29.9044 282.573 22.9447 277.907 17.4699C273.241 11.9951 266.775 8.36431 259.672 7.23033C252.569 6.09635 245.294 7.53359 239.156 11.2836C233.018 15.0337 228.418 20.8505 226.185 27.6883C225.991 28.2835 225.624 28.8079 225.133 29.1956C224.641 29.5833 224.046 29.8171 223.422 29.8675C218.45 30.2825 213.801 32.4941 210.342 36.0885C206.883 39.683 204.852 44.4143 204.628 49.3977C204.609 49.8574 204.49 50.3075 204.28 50.7168C204.07 51.1261 203.773 51.4849 203.411 51.7683C203.048 52.0516 202.628 52.2529 202.18 52.358C201.732 52.4632 201.267 52.4698 200.816 52.3774C196.369 51.507 192.195 52.4663 189.012 55.0776C187.538 56.2905 186.356 57.8199 185.554 59.5523C184.752 61.2846 184.351 63.1754 184.38 65.0841C184.38 65.9266 184.045 66.7346 183.45 67.3304C182.854 67.9261 182.046 68.2608 181.203 68.2608C180.361 68.2608 179.553 67.9261 178.957 67.3304C178.361 66.7346 178.027 65.9266 178.027 65.0841C178.008 62.2389 178.622 59.4251 179.824 56.8463C181.026 54.2674 182.786 51.988 184.977 50.1728C188.821 47.0603 193.678 45.4766 198.618 45.7254C199.575 40.2131 202.227 35.1364 206.205 31.202C210.182 27.2676 215.288 24.6713 220.81 23.7746C223.874 15.8953 229.572 9.32041 236.936 5.16819C244.3 1.01597 252.875 -0.457208 261.202 0.999219C269.529 2.45565 277.095 6.75174 282.613 13.1568C288.13 19.5619 291.259 27.6805 291.466 36.1319C294.321 37.2151 296.875 38.9686 298.911 41.2448C300.947 43.521 302.407 46.2532 303.167 49.2113C303.926 52.1693 303.964 55.2667 303.277 58.2424C302.589 61.2181 301.197 63.9851 299.217 66.3103C298.64 66.9821 297.923 67.5195 297.116 67.885C296.31 68.2504 295.433 68.4351 294.547 68.426V68.426Z" fill="#0093FF"/>
<path d="M181.229 68.4196C182.984 68.4196 184.406 66.9974 184.406 65.243C184.406 63.4885 182.984 62.0663 181.229 62.0663C179.475 62.0663 178.052 63.4885 178.052 65.243C178.052 66.9974 179.475 68.4196 181.229 68.4196Z" fill="#0076E3"/>
<path d="M310.793 134.47C312.547 134.47 313.97 133.048 313.97 131.293C313.97 129.539 312.547 128.117 310.793 128.117C309.038 128.117 307.616 129.539 307.616 131.293C307.616 133.048 309.038 134.47 310.793 134.47Z" fill="#00AD00"/>
<path d="M126.062 125.765C125.256 125.771 124.479 125.47 123.886 124.924C123.294 124.378 122.931 123.627 122.871 122.824C122.812 122.021 123.059 121.225 123.564 120.597C124.069 119.969 124.794 119.557 125.592 119.443C126.501 118.265 127.099 116.877 127.333 115.407C127.566 113.938 127.427 112.433 126.929 111.03C126.43 109.628 125.587 108.374 124.478 107.382C123.368 106.389 122.028 105.692 120.579 105.352C119.855 105.183 119.213 104.766 118.765 104.173C118.317 103.579 118.091 102.848 118.127 102.105C118.127 101.807 118.127 101.508 118.127 101.203C118.129 95.9218 116.247 90.813 112.82 86.7946C109.394 82.7761 104.646 80.1115 99.4308 79.2794C94.2155 78.4473 88.8745 79.5024 84.3674 82.255C79.8603 85.0076 76.4826 89.2773 74.8411 94.2969C74.6465 94.8921 74.2804 95.4165 73.7886 95.8043C73.2969 96.192 72.7016 96.4257 72.0774 96.4761C68.4949 96.7835 65.1461 98.3821 62.6543 100.974C60.1626 103.567 58.6976 106.976 58.5321 110.568C58.5096 111.072 58.3676 111.563 58.1177 112C57.8679 112.438 57.5174 112.811 57.0953 113.086C56.6731 113.362 56.1915 113.533 55.6901 113.586C55.1887 113.638 54.6819 113.571 54.2118 113.389C53.3729 113.074 52.4725 112.959 51.5815 113.052C50.7383 113.144 49.9262 113.423 49.204 113.868C48.4819 114.313 47.8677 114.913 47.4061 115.624C46.9445 116.336 46.647 117.141 46.5351 117.982C46.4232 118.823 46.4998 119.678 46.7593 120.485C46.9051 120.888 46.968 121.317 46.944 121.744C46.92 122.172 46.8097 122.591 46.6198 122.975C46.4299 123.359 46.1642 123.701 45.8387 123.979C45.5133 124.258 45.1349 124.468 44.7261 124.597C44.3174 124.725 43.8869 124.77 43.4605 124.728C43.0341 124.686 42.6206 124.558 42.2449 124.352C41.8692 124.146 41.539 123.866 41.2743 123.529C41.0096 123.192 40.8158 122.805 40.7045 122.391C40.1158 120.546 39.9801 118.585 40.3088 116.676C40.6375 114.766 41.4209 112.964 42.593 111.421C43.765 109.878 45.2912 108.64 47.0426 107.812C48.794 106.983 50.719 106.588 52.6552 106.661C53.5542 102.586 55.6345 98.8671 58.6358 95.9686C61.6371 93.07 65.4264 91.1207 69.5297 90.3642C71.986 84.3324 76.431 79.3218 82.127 76.1641C87.8231 73.0064 94.4277 71.8914 100.845 73.0042C107.262 74.1169 113.105 77.3906 117.406 82.2817C121.706 87.1729 124.204 93.3876 124.486 99.8942C126.7 100.821 128.663 102.257 130.217 104.086C131.77 105.915 132.871 108.084 133.428 110.418C133.985 112.752 133.983 115.185 133.423 117.518C132.863 119.851 131.76 122.02 130.204 123.846C129.695 124.448 129.06 124.932 128.345 125.263C127.629 125.595 126.85 125.766 126.062 125.765V125.765Z" fill="#40F6CE"/>
<path d="M43.7162 124.621C45.4636 124.621 46.8802 123.205 46.8802 121.457C46.8802 119.71 45.4636 118.293 43.7162 118.293C41.9688 118.293 40.5522 119.71 40.5522 121.457C40.5522 123.205 41.9688 124.621 43.7162 124.621Z" fill="#00E3B8"/>
<path d="M133.324 441.133C132.693 441.134 132.075 440.947 131.551 440.595C131.026 440.244 130.618 439.744 130.379 439.16C130.139 438.576 130.08 437.933 130.207 437.315C130.334 436.696 130.643 436.13 131.094 435.688C131.501 435.288 171.756 395.35 171.756 360.045C171.756 359.202 172.09 358.394 172.686 357.799C173.282 357.203 174.09 356.868 174.932 356.868C175.775 356.868 176.583 357.203 177.179 357.799C177.774 358.394 178.109 359.202 178.109 360.045C178.109 376.093 170.923 394.493 156.736 414.728C150.4 423.8 143.319 432.328 135.567 440.224C134.968 440.811 134.162 441.138 133.324 441.133V441.133Z" fill="url(#paint5_linear)"/>
<path d="M396.963 134.47H325.17C324.328 134.47 323.52 134.135 322.924 133.54C322.328 132.944 321.994 132.136 321.994 131.293C321.994 130.451 322.328 129.643 322.924 129.047C323.52 128.451 324.328 128.117 325.17 128.117H396.963C397.806 128.117 398.614 128.451 399.209 129.047C399.805 129.643 400.14 130.451 400.14 131.293C400.14 132.136 399.805 132.944 399.209 133.54C398.614 134.135 397.806 134.47 396.963 134.47V134.47Z" fill="url(#paint6_linear)"/>
<path d="M294.548 68.4261H200.48C199.637 68.4261 198.829 68.0914 198.234 67.4957C197.638 66.8999 197.303 66.0919 197.303 65.2494C197.303 64.4069 197.638 63.5989 198.234 63.0032C198.829 62.4074 199.637 62.0728 200.48 62.0728H294.548C295.39 62.0728 296.198 62.4074 296.794 63.0032C297.39 63.5989 297.724 64.4069 297.724 65.2494C297.724 66.0919 297.39 66.8999 296.794 67.4957C296.198 68.0914 295.39 68.4261 294.548 68.4261V68.4261Z" fill="url(#paint7_linear)"/>
<path d="M126.062 125.765H62.2426C61.4001 125.765 60.5921 125.43 59.9963 124.835C59.4006 124.239 59.0659 123.431 59.0659 122.588C59.0659 121.746 59.4006 120.938 59.9963 120.342C60.5921 119.746 61.4001 119.412 62.2426 119.412H126.062C126.905 119.412 127.713 119.746 128.308 120.342C128.904 120.938 129.239 121.746 129.239 122.588C129.239 123.431 128.904 124.239 128.308 124.835C127.713 125.43 126.905 125.765 126.062 125.765V125.765Z" fill="url(#paint8_linear)"/>
</g>
<defs>
<linearGradient id="paint0_linear" x1="178.192" y1="487.677" x2="178.192" y2="430.192" gradientUnits="userSpaceOnUse">
<stop stop-color="#40F6CE"/>
<stop offset="0.07" stop-color="#40F6CE" stop-opacity="0.96"/>
<stop offset="0.19" stop-color="#40F6CE" stop-opacity="0.85"/>
<stop offset="0.34" stop-color="#40F6CE" stop-opacity="0.66"/>
<stop offset="0.52" stop-color="#40F6CE" stop-opacity="0.41"/>
<stop offset="0.72" stop-color="#40F6CE" stop-opacity="0.09"/>
<stop offset="0.78" stop-color="#40F6CE" stop-opacity="0"/>
</linearGradient>
<linearGradient id="paint1_linear" x1="142.047" y1="386.507" x2="142.047" y2="316.493" gradientUnits="userSpaceOnUse">
<stop offset="0.48" stop-color="#40F6CE" stop-opacity="0"/>
<stop offset="0.83" stop-color="#40F6CE" stop-opacity="0.68"/>
<stop offset="1" stop-color="#40F6CE"/>
</linearGradient>
<linearGradient id="paint2_linear" x1="191.444" y1="269.287" x2="258.047" y2="245.043" gradientUnits="userSpaceOnUse">
<stop offset="0.27" stop-color="#0093FF" stop-opacity="0.01"/>
<stop offset="0.42" stop-color="#0093FF" stop-opacity="0.32"/>
<stop offset="0.67" stop-color="#0093FF" stop-opacity="0.81"/>
<stop offset="0.78" stop-color="#0093FF"/>
</linearGradient>
<linearGradient id="paint3_linear" x1="249.26" y1="231.968" x2="306.389" y2="163.885" gradientUnits="userSpaceOnUse">
<stop offset="0.14" stop-color="#50FB44" stop-opacity="0"/>
<stop offset="0.25" stop-color="#3EF535" stop-opacity="0.23"/>
<stop offset="0.45" stop-color="#1DEB19" stop-opacity="0.64"/>
<stop offset="0.59" stop-color="#08E507" stop-opacity="0.9"/>
<stop offset="0.65" stop-color="#00E200"/>
</linearGradient>
<linearGradient id="paint4_linear" x1="91.8432" y1="464.475" x2="123.006" y2="378.857" gradientUnits="userSpaceOnUse">
<stop offset="0.12" stop-color="#F5F5EF" stop-opacity="0"/>
<stop offset="0.18" stop-color="#D5E8F1" stop-opacity="0.13"/>
<stop offset="0.36" stop-color="#7BC4F7" stop-opacity="0.5"/>
<stop offset="0.51" stop-color="#39AAFB" stop-opacity="0.77"/>
<stop offset="0.61" stop-color="#1099FE" stop-opacity="0.94"/>
<stop offset="0.66" stop-color="#0093FF"/>
</linearGradient>
<linearGradient id="paint5_linear" x1="139.773" y1="443.687" x2="171.851" y2="355.553" gradientUnits="userSpaceOnUse">
<stop offset="0.12" stop-color="#F1F5EB" stop-opacity="0.02"/>
<stop offset="0.33" stop-color="#8BED87" stop-opacity="0.43"/>
<stop offset="0.49" stop-color="#40E73E" stop-opacity="0.74"/>
<stop offset="0.61" stop-color="#12E311" stop-opacity="0.93"/>
<stop offset="0.66" stop-color="#00E200"/>
</linearGradient>
<linearGradient id="paint6_linear" x1="322.025" y1="131.262" x2="400.14" y2="131.262" gradientUnits="userSpaceOnUse">
<stop stop-color="#F5F5EF" stop-opacity="0"/>
<stop offset="0.8" stop-color="#00E200"/>
</linearGradient>
<linearGradient id="paint7_linear" x1="197.303" y1="65.2494" x2="297.724" y2="65.2494" gradientUnits="userSpaceOnUse">
<stop stop-color="#F5F5EF" stop-opacity="0"/>
<stop offset="0.8" stop-color="#0093FF"/>
</linearGradient>
<linearGradient id="paint8_linear" x1="59.0659" y1="122.588" x2="129.239" y2="122.588" gradientUnits="userSpaceOnUse">
<stop stop-color="#F5F5EF" stop-opacity="0"/>
<stop offset="0.8" stop-color="#40F6CE"/>
</linearGradient>
<clipPath id="clip0">
<path d="M0 20.1824C0 9.03598 9.03598 0 20.1824 0H339.818C350.964 0 360 9.03599 360 20.1824V489.064C360 500.21 350.964 509.246 339.818 509.246H20.1824C9.03599 509.246 0 500.21 0 489.064V20.1824Z" fill="white"/>
</clipPath>
</defs>
</svg>
