<?xml version="1.0" standalone="no"?>
<!DOCTYPE svg PUBLIC "-//W3C//DTD SVG 20010904//EN"
 "http://www.w3.org/TR/2001/REC-SVG-20010904/DTD/svg10.dtd">
<svg version="1.0" xmlns="http://www.w3.org/2000/svg"
 width="700.000000pt" height="700.000000pt" viewBox="0 0 700.000000 700.000000"
 preserveAspectRatio="xMidYMid meet">
<metadata>
Created by potrace 1.14, written by Peter Selinger 2001-2017
</metadata>
<g transform="translate(0.000000,700.000000) scale(0.100000,-0.100000)"
fill="#000000" stroke="none">
<path d="M1290 6993 c-85 -10 -273 -58 -365 -94 -434 -169 -768 -546 -880
-994 -45 -181 -44 -118 -41 -2440 2 -2040 3 -2205 19 -2275 10 -41 19 -82 20
-90 1 -8 6 -21 10 -27 5 -7 6 -13 3 -13 -10 0 52 -163 94 -249 201 -411 588
-702 1045 -787 96 -18 195 -19 2300 -19 1210 0 2222 4 2249 8 158 26 286 64
411 121 76 35 194 102 234 133 172 133 270 235 368 383 90 135 151 271 197
445 45 165 44 119 42 2440 -2 2334 0 2190 -41 2370 -56 246 -209 506 -411 698
-195 186 -475 329 -724 371 -19 3 -46 9 -60 13 -25 8 -4404 13 -4470 6z"/>
</g>
</svg>
