<svg width="140" height="140" viewBox="0 0 140 140" fill="none" xmlns="http://www.w3.org/2000/svg">
<g clip-path="url(#clip0)">
<path d="M39.9998 125C35.9998 125 30.9998 123 27.9998 119L0.999838 84C-1.00016 82 -0.000162125 79 1.99984 77C3.99984 75 6.99984 76 8.99984 78L35.9998 113C37.9998 115 40.9998 116 42.9998 114C42.9998 114 43.9998 114 43.9998 113C45.9998 111 48.9998 111 50.9998 112C52.9998 113 52.9998 117 51.9998 119C50.9998 120 50.9998 121 49.9998 121C46.9998 124 42.9998 125 39.9998 125Z" fill="#121212"/>
<path d="M47.8999 121.4C46.7999 121.4 45.6999 121 44.6999 120.3C42.5999 118.5 42.2999 115.4 43.9999 113.3L131.1 7.80001C132.9 5.70001 136 5.40001 138.1 7.10001C140.2 8.90001 140.5 12 138.8 14.1L51.7999 119.6C50.7999 120.8 49.3999 121.4 47.8999 121.4Z" fill="url(#paint0_linear)"/>
</g>
<defs>
<linearGradient id="paint0_linear" x1="31.3971" y1="85.5596" x2="151.543" y2="41.83" gradientUnits="userSpaceOnUse">
<stop offset="0.3447" stop-color="#121212"/>
<stop offset="0.9037" stop-color="#121212" stop-opacity="0"/>
</linearGradient>
<clipPath id="clip0">
<rect width="140" height="140" fill="white"/>
</clipPath>
</defs>
</svg>
