<svg width="140" height="140" viewBox="0 0 140 140" fill="none" xmlns="http://www.w3.org/2000/svg">
<g clip-path="url(#clip0)">
<path d="M70 75C67.2 75 65 72.8 65 70V26C65 23.2 67.2 21 70 21C72.8 21 75 23.2 75 26V70C75 72.8 72.8 75 70 75Z" fill="#121212"/>
<path d="M95.4 104.7C94 104.7 92.6 104.1 91.6 103L66.2 73.3C64.4 71.2 64.6 68 66.7 66.2C68.8 64.4 72 64.6 73.7 66.7L99.1 96.4C100.9 98.5 100.7 101.7 98.6 103.5C97.7 104.3 96.6 104.7 95.4 104.7Z" fill="url(#paint0_linear)"/>
<path d="M64.9961 134.995C64.9961 137.795 67.1961 139.995 69.9961 139.995C108.596 139.995 139.996 108.595 139.996 69.9951C139.996 67.1951 137.796 64.9951 134.996 64.9951C132.196 64.9951 129.996 67.1951 129.996 69.9951C129.996 103.095 103.096 129.995 69.9961 129.995C67.1961 129.995 64.9961 132.195 64.9961 134.995Z" fill="url(#paint1_linear)"/>
<path d="M-0.00389791 69.9951C-0.00389791 108.595 31.3961 139.995 69.9961 139.995C72.7961 139.995 74.9961 137.795 74.9961 134.995C74.9961 132.195 72.7961 129.995 69.9961 129.995C36.8961 129.995 9.9961 103.095 9.9961 69.9951C9.9961 36.8951 36.8961 9.99512 69.9961 9.99512C103.096 9.99512 129.996 36.8951 129.996 69.9951C129.996 72.7951 132.196 74.9951 134.996 74.9951C137.796 74.9951 139.996 72.7951 139.996 69.9951C139.996 31.3951 108.596 -0.00487447 69.9961 -0.00487447C31.3961 -0.00487447 -0.00389791 31.3951 -0.00389791 69.9951Z" fill="#121212"/>
</g>
<defs>
<linearGradient id="paint0_linear" x1="77" y1="71.5" x2="100" y2="96.5" gradientUnits="userSpaceOnUse">
<stop stop-color="#121212"/>
<stop offset="1" stop-color="#121212" stop-opacity="0"/>
</linearGradient>
<linearGradient id="paint1_linear" x1="88.3811" y1="147.009" x2="120.296" y2="59.3222" gradientUnits="userSpaceOnUse">
<stop offset="0.182292" stop-color="#121212"/>
<stop offset="0.848958" stop-color="#121212"/>
</linearGradient>
<clipPath id="clip0">
<rect width="140" height="140" fill="white"/>
</clipPath>
</defs>
</svg>
