<svg width="140" height="140" viewBox="0 0 140 140" fill="none" xmlns="http://www.w3.org/2000/svg">
<path d="M63.5 84.6008C62.4 84.6008 61.2 84.2006 60.3 83.4006L1.79997 34.0007C-0.300034 32.2007 -0.60001 29.1007 1.19999 27.0007C2.99999 24.9007 6.09999 24.6006 8.19999 26.4006L66.7 75.8008C68.8 77.6008 69.1 80.7008 67.3 82.8008C66.4 84.0008 65 84.6008 63.5 84.6008Z" fill="url(#paint0_linear)"/>
<path d="M135 127.5H5C2.2 127.5 0 125.3 0 122.5V17.5C0 14.7 2.2 12.5 5 12.5H135C137.8 12.5 140 14.7 140 17.5V122.5C140 125.3 137.8 127.5 135 127.5ZM10 117.5H130V22.5H10V117.5Z" fill="black"/>
<path d="M70 86.9006C66.6 86.9006 63.1 85.7006 60.3 83.4006C58.2 81.6006 57.9 78.5006 59.7 76.4006C61.5 74.3006 64.6 74.0008 66.7 75.8008C68.6 77.4008 71.3 77.4008 73.1 75.8008L131.7 26.4006C133.8 24.6006 137 24.9007 138.7 27.0007C140.5 29.1007 140.2 32.3007 138.1 34.0007L79.5 83.4006C76.9 85.7006 73.4 86.9006 70 86.9006Z" fill="black"/>
<defs>
<linearGradient id="paint0_linear" x1="61.7502" y1="87.5989" x2="6.8002" y2="22.1124" gradientUnits="userSpaceOnUse">
<stop offset="0.1423"/>
<stop offset="0.7572" stop-opacity="0"/>
</linearGradient>
</defs>
</svg>
