<svg width="141" height="140" viewBox="0 0 141 140" fill="none" xmlns="http://www.w3.org/2000/svg">
<g clip-path="url(#clip0)">
<path d="M52.8 32C51.5 32 50.2 31.5 49.3 30.5L30.5 11.6C28.3 9.40005 24.7 9.40005 22.5 11.6L18 16.1C16 18.1 12.9 18.1 10.9 16.1C8.90002 14.1 8.90002 11 10.9 9.00005L15.4 4.50005C21.5 -1.59995 31.4 -1.59995 37.5 4.50005L56.3 23.3C58.3 25.3 58.3 28.4 56.3 30.4C55.4 31.5 54.1 32 52.8 32Z" fill="#121212"/>
<path d="M87.6 135C86.6 135 85.7 134.7 84.8 134.1C53.6 113 27 86.5 5.90002 55.2C5.90002 55.2 5.90002 55.1 5.80002 55.1C-3.59998 40.3 -1.49998 21.4 10.9 8.99997C12.9 6.99997 16 7.09997 18 8.99997C20 10.9 19.9 14.1 18 16.1C9.10002 25 7.60002 39.1 14.3 49.7C34.7 79.9 60.3 105.5 90.5 125.9C92.8 127.4 93.4 130.6 91.8 132.8C90.8 134.2 89.2 135 87.6 135Z" fill="url(#paint0_linear)"/>
<path d="M104.8 140C97.9 140 91 138.1 85 134.2C82.7 132.7 82 129.6 83.5 127.3C85 125 88.1 124.3 90.4 125.8C101 132.6 115.1 131 124 122.1L128.5 117.6C130.7 115.4 130.7 111.8 128.5 109.6L109.6 90.7C107.4 88.5 103.8 88.5 101.6 90.7C95.5 96.8 85.6 96.8 79.5 90.7L49.3 60.6C43.2 54.5 43.2 44.6 49.3 38.5C51.5 36.3 51.5 32.7 49.3 30.5C47.3 28.5 47.3 25.4 49.3 23.4C51.3 21.4 54.4 21.4 56.4 23.4C62.5 29.5 62.5 39.4 56.4 45.5C54.2 47.7 54.2 51.3 56.4 53.5L86.5 83.6C88.7 85.8 92.3 85.8 94.5 83.6C100.6 77.5 110.5 77.5 116.6 83.6L135.5 102.5C141.6 108.6 141.6 118.5 135.5 124.6L131 129.1C123.9 136.3 114.4 140 104.8 140Z" fill="#121212"/>
</g>
<defs>
<linearGradient id="paint0_linear" x1="2.36225e-05" y1="71.29" x2="92.6383" y2="71.29" gradientUnits="userSpaceOnUse">
<stop offset="0.080901" stop-opacity="0"/>
<stop offset="0.4828"/>
</linearGradient>
<clipPath id="clip0">
<rect width="140.1" height="140" fill="white"/>
</clipPath>
</defs>
</svg>
